<svg xmlns="http://www.w3.org/2000/svg" viewBox="0 0 500 500"><path d="M124.4 411.34c80.06 38.15 209.86 38.15 289.92 0s80.05-100 0-138.18-209.86-38.16-289.92 0-80.05 100.02 0 138.18" style="fill:#ebebeb;opacity:.5"/><ellipse cx="383.84" cy="313.58" rx="55.32" ry="26.37" style="fill:#e0e0e0"/><path d="M300.18 418.55c-14.78 7.05-38.74 7.05-53.52 0s-14.78-18.46 0-25.51 38.74-7 53.52 0 14.82 18.47 0 25.51" style="fill:#e0e0e0"/><path d="m101.4 328.59 8.13-4.69s4.29-19.13-2.1-43.43S82.61 238 73 241.81s-9.36 11-4.06 18.29c4.4 6 18.67 20.6 25.53 37.42a92.6 92.6 0 0 1 6.93 31.07" style="fill:#3cf"/><path d="m101.4 328.59 8.13-4.69s4.29-19.13-2.1-43.43S82.61 238 73 241.81s-9.36 11-4.06 18.29c4.4 6 18.67 20.6 25.53 37.42a92.6 92.6 0 0 1 6.93 31.07" style="opacity:.1"/><path d="M105.73 326.59h-.07a.5.5 0 0 1-.42-.56c5.55-40-19.24-72.34-30.52-79.09a.5.5 0 1 1 .51-.85c11.45 6.84 36.62 39.61 31 80.08a.51.51 0 0 1-.5.42" style="fill:#fff"/><path d="m101.4 328.59-12.18 7a23.2 23.2 0 0 0-8.13-2.34c-5.18-.65-8.63-5.65-8.12-9.38.34-2.52 1.15-5.39.76-7.94-.34-2.28-2.55-4.33-4.61-5.13a17 17 0 0 0-5.42-.77c-2.93-.14-6-.47-8.47-2s-4.29-4.59-3.49-7.42a10 10 0 0 1 2.55-3.85A12.3 12.3 0 0 0 57 293c1.08-2.82-.83-4.62-3.1-5.93-8-4.6-11.6-8.23-8.72-11.71s10.79-5 18.9-.74 14.84-.31 20.19.59c8.38 1.4 8.87 7.32 7.83 12.46s9.33 7.33 11.9 13.5c1.93 4.48 3.51 19.2-2.6 27.42" style="fill:#3cf"/><path d="M97.34 331.43a.5.5 0 0 1-.5-.48c-1-28.55-37.59-53.45-46.22-54.88a.5.5 0 0 1-.42-.57.51.51 0 0 1 .58-.41c9.09 1.5 46.05 26.21 47.06 55.82a.5.5 0 0 1-.48.52Z" style="fill:#fff"/><path d="M254.26 383c-.4-5-4.26-13.54-10-19.62s-14.86-9-20.5-6.56c-5.25 2.28-4.09 9.32 2.84 13.49s17.25 9.27 20.79 17.16l6.84 9.47Z" style="fill:#3cf"/><path d="M254.26 383c-.4-5-4.26-13.54-10-19.62s-14.86-9-20.5-6.56c-5.25 2.28-4.09 9.32 2.84 13.49s17.25 9.27 20.79 17.16l6.84 9.47Z" style="opacity:.1"/><path d="M254.26 392.16h.1a.68.68 0 0 0 .58-.77c-2.49-18.53-21.32-31.42-28.81-32.84a.68.68 0 0 0-.8.54.68.68 0 0 0 .54.8c7 1.33 25.34 14.08 27.71 31.68a.69.69 0 0 0 .68.59" style="fill:#fff"/><path d="M253.52 403.7c-1-2.75-4.84-7.12-10.71-10.5-6.49-3.75-14.42-5.08-16.48-8.23-2.47-3.8.57-7.81 6.94-7.54s18.18 8 21 20.83Z" style="fill:#3cf"/><path d="M254 401h.13a.68.68 0 0 0 .54-.81c-1.89-9.5-15.66-19.34-24.56-19.75a.72.72 0 0 0-.72.65.7.7 0 0 0 .66.72c8.26.38 21.53 9.85 23.28 18.65a.68.68 0 0 0 .67.54" style="fill:#fff"/><path d="M92.66 336a3.5 3.5 0 0 1-1.48-3.61l35.46-156.94a6.5 6.5 0 0 1 2.71-3.69l211-121.8a4.64 4.64 0 0 1 4.2-.07 3.5 3.5 0 0 1 1.45 3.59l-35.47 156.94a6.5 6.5 0 0 1-2.72 3.69L96.86 335.91a4.64 4.64 0 0 1-4.2.09" style="fill:#f0f0f0"/><path d="m130.7 177.77-35.46 157c-.3 1.34.42 1.88 1.62 1.19l211-121.8a6.5 6.5 0 0 0 2.72-3.69L346 53.48c.3-1.35-.42-1.88-1.62-1.19l-211 121.8a6.52 6.52 0 0 0-2.68 3.68" style="fill:#e6e6e6"/><path d="M348.57 52.21a4.64 4.64 0 0 0-4.2.08l-211 121.8a4 4 0 0 0-1.81 3.72l27.77 194.39a5.63 5.63 0 0 0 2.39 3.65 4.59 4.59 0 0 0 4.19-.08L376.87 254a4 4 0 0 0 1.81-3.73L351 55.86a5.62 5.62 0 0 0-2.43-3.65" style="fill:#f0f0f0"/><path d="m135.66 180.16 27.73 194.39a1.57 1.57 0 0 0 2.52 1.22L376.87 254a4 4 0 0 0 1.81-3.73L351 55.86a1.57 1.57 0 0 0-2.52-1.23l-211 121.8a4 4 0 0 0-1.82 3.73" style="fill:#fafafa"/><path d="m95.43 333.89 54-31.19L151 314l-24.76 14.3s-6.6 2.34-9.22 3-21.59 2.59-21.59 2.59" style="fill:#e0e0e0"/><path style="fill:#e6e6e6" d="m151.03 314.01 8.1 56.8-32.86-42.5z"/><path d="m158.16 372.7-29.45-38.25a4.72 4.72 0 0 0-4-1.63l-27.54 4a8.1 8.1 0 0 1-4.51-.82c-1.12-.64-.93-1.38.42-1.64l31.65-6.09a4.35 4.35 0 0 1 4 1.53l33.53 45.2c.82 1.11.58 1.48-.54.83a14.5 14.5 0 0 1-3.56-3.13" style="fill:#e0e0e0"/><path d="M346.05 52.71a3.43 3.43 0 0 0-1.54-2.84 4.68 4.68 0 0 0-4.2.08l-211 121.8a5.9 5.9 0 0 0-1.65 1.54 6.1 6.1 0 0 0-1.07 2.15l-5 22.17 4.06 2.33L341 75.64l5-22.16a3.6 3.6 0 0 0 .06-.77Z" style="fill:#3cf"/><path d="M346 53.48c.3-1.35-.42-1.88-1.62-1.19l-211 121.8a6.52 6.52 0 0 0-2.71 3.68l-5 22.17L341 75.64Z" style="opacity:.2"/><path d="M131.76 175.63a5.9 5.9 0 0 0-1.06 2.14l-5 22.17-4.06-2.34 5-22.17a6.1 6.1 0 0 1 1.07-2.15Z" style="opacity:.1"/><path d="M346.05 52.7c-.1-.75-.75-1-1.68-.41l-211 121.79a5.7 5.7 0 0 0-1.65 1.55l-4.06-2.35a5.9 5.9 0 0 1 1.65-1.54l211-121.8a4.68 4.68 0 0 1 4.2-.08 3.43 3.43 0 0 1 1.54 2.84" style="fill:#fff;opacity:.4"/><path d="m351.21 57.72-.21-1.86a3 3 0 0 0-.06-.27.3.3 0 0 0 0-.08 5.67 5.67 0 0 0-2.31-3.3 4.64 4.64 0 0 0-4.2.08l-211 121.8a3.75 3.75 0 0 0-1.45 1.66 3.76 3.76 0 0 0-.36 2.06l4 27.85 4.06 2.35L354.93 83.72Z" style="fill:#3cf"/><path d="m139.64 208-4.06-2.35-4-27.85a3.76 3.76 0 0 1 .36-2.06l4.07 2.34a3.7 3.7 0 0 0-.37 2.06Z" style="opacity:.1"/><path d="M350.88 55.51a1.54 1.54 0 0 0-2.44-.88l-211 121.8a3.7 3.7 0 0 0-1.45 1.66l-3.99-2.34a3.83 3.83 0 0 1 1.45-1.67l211-121.79a4.64 4.64 0 0 1 4.2-.08 5.63 5.63 0 0 1 2.23 3.3" style="fill:#fff;opacity:.4"/><path d="m195.65 342.34-2.52-17.71a1.26 1.26 0 0 0-2-1l-18.39 10.62a3.18 3.18 0 0 0-1.45 3L173.8 355a1.25 1.25 0 0 0 2 1l18.39-10.62a3.17 3.17 0 0 0 1.46-3.04" style="fill:#3cf"/><path d="m224.09 325.94-2.53-17.7a1.25 1.25 0 0 0-2-1l-18.39 10.61a3.19 3.19 0 0 0-1.45 3l2.53 17.71a1.25 1.25 0 0 0 2 1l18.39-10.62a3.17 3.17 0 0 0 1.45-3m28.44-16.4-2.53-17.7a1.25 1.25 0 0 0-2-1l-18.4 10.63a3.19 3.19 0 0 0-1.45 3l2.53 17.71a1.25 1.25 0 0 0 2 1l18.39-10.62a3.17 3.17 0 0 0 1.46-3.02M281 293.15l-2.53-17.71a1.25 1.25 0 0 0-2-1L258 285.08a3.17 3.17 0 0 0-1.45 3l2.53 17.7a1.25 1.25 0 0 0 2 1l18.39-10.61a3.19 3.19 0 0 0 1.53-3.02m28.41-16.4L306.88 259a1.25 1.25 0 0 0-2-1l-18.39 10.62a3.17 3.17 0 0 0-1.45 3l2.53 17.7a1.25 1.25 0 0 0 2 1L308 279.73a3.19 3.19 0 0 0 1.41-2.98m28.44-16.4-2.53-17.71a1.25 1.25 0 0 0-2-1l-18.39 10.62a3.17 3.17 0 0 0-1.45 3L316 273a1.25 1.25 0 0 0 2 1l18.39-10.62a3.18 3.18 0 0 0 1.46-3.03M366.29 244l-2.53-17.71a1.25 1.25 0 0 0-2-1l-18.39 10.62a3.18 3.18 0 0 0-1.45 3l2.52 17.71a1.26 1.26 0 0 0 2 1L364.83 247a3.18 3.18 0 0 0 1.46-3" style="fill:#ebebeb"/><path d="M190.71 307.69 188.18 290a1.26 1.26 0 0 0-2-1l-18.39 10.62a3.18 3.18 0 0 0-1.45 3l2.52 17.71a1.26 1.26 0 0 0 2 1l18.39-10.62a3.22 3.22 0 0 0 1.46-3.02" style="fill:#3cf"/><path d="m219.15 291.29-2.53-17.71a1.26 1.26 0 0 0-2-1l-18.39 10.62a3.18 3.18 0 0 0-1.45 3l2.52 17.71a1.26 1.26 0 0 0 2 1l18.39-10.62a3.22 3.22 0 0 0 1.46-3m28.44-16.4-2.53-17.71a1.26 1.26 0 0 0-2-1l-18.39 10.62a3.18 3.18 0 0 0-1.45 3l2.52 17.71a1.26 1.26 0 0 0 2 1l18.39-10.62a3.22 3.22 0 0 0 1.46-3m28.41-16.4-2.53-17.71a1.26 1.26 0 0 0-2-1l-18.37 10.64a3.19 3.19 0 0 0-1.45 3l2.52 17.71a1.26 1.26 0 0 0 2 1l18.39-10.62a3.21 3.21 0 0 0 1.44-3.02m28.47-16.4-2.53-17.7a1.25 1.25 0 0 0-2-1L281.54 234a3.19 3.19 0 0 0-1.45 3l2.52 17.71a1.26 1.26 0 0 0 2 1L303 245.07a3.21 3.21 0 0 0 1.47-2.98m28.44-16.4L330.38 208a1.25 1.25 0 0 0-2-1L310 217.63a3.17 3.17 0 0 0-1.45 3l2.52 17.7a1.26 1.26 0 0 0 2 1l18.39-10.62a3.21 3.21 0 0 0 1.45-3.02m28.44-16.39-2.53-17.71a1.25 1.25 0 0 0-2-1l-18.4 10.62a3.18 3.18 0 0 0-1.44 3l2.52 17.7a1.26 1.26 0 0 0 2 1l18.39-10.61a3.23 3.23 0 0 0 1.46-3" style="fill:#ebebeb"/><path d="m185.76 273-2.52-17.71a1.26 1.26 0 0 0-2-1L162.83 265a3.21 3.21 0 0 0-1.45 3l2.53 17.7a1.25 1.25 0 0 0 2 1l18.4-10.7a3.19 3.19 0 0 0 1.45-3" style="fill:#3cf"/><path d="m214.2 256.64-2.52-17.71a1.26 1.26 0 0 0-2-1l-18.39 10.62a3.21 3.21 0 0 0-1.45 3l2.53 17.71a1.26 1.26 0 0 0 2 1l18.39-10.62a3.18 3.18 0 0 0 1.44-3m28.44-16.4-2.52-17.71a1.26 1.26 0 0 0-2-1l-18.39 10.62a3.22 3.22 0 0 0-1.45 3l2.53 17.71a1.26 1.26 0 0 0 2 1l18.39-10.62a3.18 3.18 0 0 0 1.44-3m28.44-16.4-2.52-17.71a1.26 1.26 0 0 0-2-1l-18.39 10.62a3.22 3.22 0 0 0-1.45 3l2.53 17.71a1.26 1.26 0 0 0 2 1l18.39-10.62a3.18 3.18 0 0 0 1.44-3m28.44-16.4L297 189.73a1.26 1.26 0 0 0-2-1l-18.39 10.62a3.22 3.22 0 0 0-1.45 3l2.53 17.71a1.26 1.26 0 0 0 2 1l18.39-10.62a3.18 3.18 0 0 0 1.44-3M328 191l-2.52-17.71a1.26 1.26 0 0 0-2-1L305 183a3.22 3.22 0 0 0-1.45 3l2.53 17.71a1.26 1.26 0 0 0 2 1L326.51 194a3.17 3.17 0 0 0 1.49-3m28.4-16.36-2.52-17.7a1.26 1.26 0 0 0-2-1l-18.39 10.61a3.21 3.21 0 0 0-1.45 3l2.53 17.71a1.26 1.26 0 0 0 2 1L355 177.62a3.17 3.17 0 0 0 1.4-2.98" style="fill:#ebebeb"/><path d="m180.82 238.38-2.53-17.7a1.25 1.25 0 0 0-2-1l-18.39 10.61a3.19 3.19 0 0 0-1.45 3L159 251a1.25 1.25 0 0 0 2 1l18.39-10.62a3.17 3.17 0 0 0 1.43-3" style="fill:#3cf"/><path d="m209.26 222-2.53-17.7a1.25 1.25 0 0 0-2-1l-18.39 10.62a3.17 3.17 0 0 0-1.45 3l2.53 17.7a1.25 1.25 0 0 0 2 1L207.81 225a3.17 3.17 0 0 0 1.45-3m28.44-16.41-2.53-17.71a1.25 1.25 0 0 0-2-1l-18.39 10.62a3.17 3.17 0 0 0-1.45 3l2.53 17.7a1.25 1.25 0 0 0 2 1l18.39-10.61a3.19 3.19 0 0 0 1.45-3m28.44-16.4-2.53-17.71a1.25 1.25 0 0 0-2-1l-18.39 10.62a3.17 3.17 0 0 0-1.45 3l2.52 17.71a1.26 1.26 0 0 0 2 1l18.39-10.62a3.19 3.19 0 0 0 1.46-3m28.44-16.4-2.53-17.71a1.25 1.25 0 0 0-2-1l-18.39 10.62a3.17 3.17 0 0 0-1.45 3l2.52 17.71a1.26 1.26 0 0 0 2 1l18.39-10.62a3.18 3.18 0 0 0 1.46-3m28.42-16.4-2.53-17.71a1.25 1.25 0 0 0-2-1l-18.39 10.62a3.18 3.18 0 0 0-1.45 3l2.53 17.7a1.26 1.26 0 0 0 2 1l18.39-10.62a3.18 3.18 0 0 0 1.45-2.99M351.46 140l-2.53-17.71a1.25 1.25 0 0 0-2-1l-18.39 10.62a3.18 3.18 0 0 0-1.45 3l2.52 17.71a1.26 1.26 0 0 0 2 1L350 143a3.18 3.18 0 0 0 1.46-3" style="fill:#ebebeb"/><path d="m176.45 207.08-.64-4.52a1.25 1.25 0 0 0-2-1l-18.4 10.64a3.18 3.18 0 0 0-1.45 3l.63 4.52a1.26 1.26 0 0 0 2 1L175 210.06a3.21 3.21 0 0 0 1.45-2.98m28.44-16.4-.64-4.52a1.25 1.25 0 0 0-2-1l-18.4 10.64a3.18 3.18 0 0 0-1.45 3l.63 4.52a1.26 1.26 0 0 0 2 1l18.4-10.62a3.21 3.21 0 0 0 1.46-3.02m28.44-16.4-.64-4.52a1.26 1.26 0 0 0-2-1l-18.4 10.64a3.18 3.18 0 0 0-1.45 3l.63 4.52a1.25 1.25 0 0 0 2 1l18.4-10.62a3.21 3.21 0 0 0 1.46-3.02m28.44-16.39-.64-4.53a1.26 1.26 0 0 0-2-1L240.73 163a3.18 3.18 0 0 0-1.45 3l.63 4.52a1.25 1.25 0 0 0 2 1l18.4-10.61a3.23 3.23 0 0 0 1.46-3.02m28.44-16.4-.64-4.53a1.26 1.26 0 0 0-2-1l-18.4 10.64a3.19 3.19 0 0 0-1.45 3l.63 4.52a1.25 1.25 0 0 0 2 1l18.4-10.61a3.23 3.23 0 0 0 1.46-3.02m28.44-16.4-.64-4.52a1.25 1.25 0 0 0-2-1l-18.4 10.63a3.19 3.19 0 0 0-1.45 3l.63 4.53a1.26 1.26 0 0 0 2 1l18.4-10.62a3.22 3.22 0 0 0 1.46-3.02m28.43-16.4-.63-4.52a1.25 1.25 0 0 0-2-1l-18.39 10.62a3.17 3.17 0 0 0-1.45 3l.63 4.52a1.26 1.26 0 0 0 2 1l18.4-10.62a3.19 3.19 0 0 0 1.44-3" style="fill:#e6e6e6"/><path d="M155 180.38a7.26 7.26 0 0 1 3.44-6.68c2.24-1.29 4.33-.4 4.68 2a7.23 7.23 0 0 1-3.45 6.68c-2.23 1.29-4.32.4-4.67-2M183.47 164a7.24 7.24 0 0 1 3.44-6.68c2.24-1.3 4.33-.41 4.68 2a7.22 7.22 0 0 1-3.45 6.67c-2.24 1.25-4.33.36-4.67-1.99m28.41-16.45a7.24 7.24 0 0 1 3.44-6.68c2.24-1.3 4.34-.41 4.68 2a7.23 7.23 0 0 1-3.44 6.67c-2.24 1.29-4.34.4-4.68-1.99m56.86-32.83a7.24 7.24 0 0 1 3.44-6.68c2.24-1.29 4.33-.4 4.67 2a7.2 7.2 0 0 1-3.44 6.68c-2.24 1.28-4.33.4-4.67-2M297.2 98.3a7.22 7.22 0 0 1 3.44-6.68c2.24-1.3 4.33-.41 4.68 2a7.23 7.23 0 0 1-3.45 6.68c-2.24 1.28-4.33.39-4.67-2m28.41-16.41a7.24 7.24 0 0 1 3.44-6.68c2.24-1.3 4.34-.41 4.68 2a7.23 7.23 0 0 1-3.44 6.67c-2.29 1.29-4.29.4-4.68-1.99" style="opacity:.2"/><path d="M152.06 153.36c-3-1.75-5.94-2-8.18-.71s-3.48 3.93-3.48 7.44a18.2 18.2 0 0 0 .72 4.85l1.78-1a16 16 0 0 1-.5-3.83c0-2.76.88-4.79 2.48-5.71a4.26 4.26 0 0 1 2.15-.54 8.3 8.3 0 0 1 4 1.25c5.32 3.08 9.65 10.58 9.65 16.72a11 11 0 0 1-.07 1.31 5.52 5.52 0 0 1-2.4 4.4 4.6 4.6 0 0 1-3 .48 5.7 5.7 0 0 0-.25 2 7 7 0 0 0 1.13.09 6.13 6.13 0 0 0 3.14-.82 7.09 7.09 0 0 0 3.27-5.14 13 13 0 0 0 .2-2.3c.01-6.85-4.77-15.1-10.64-18.49m28.46-16.42c-3-1.75-5.94-2-8.18-.71s-3.48 3.93-3.48 7.44a18.2 18.2 0 0 0 .72 4.85l1.78-1a16 16 0 0 1-.5-3.83c0-2.76.88-4.79 2.48-5.71a4.26 4.26 0 0 1 2.15-.54 8.3 8.3 0 0 1 4 1.25c5.32 3.08 9.65 10.58 9.65 16.72a11 11 0 0 1-.07 1.31 5.52 5.52 0 0 1-2.4 4.4 4.6 4.6 0 0 1-3 .48 5.7 5.7 0 0 0-.25 2 7 7 0 0 0 1.13.09 6.13 6.13 0 0 0 3.14-.82 7.09 7.09 0 0 0 3.27-5.14 13 13 0 0 0 .2-2.3c.01-6.82-4.77-15.1-10.64-18.49m28.41-16.41c-3-1.75-5.94-2-8.18-.71s-3.48 3.93-3.48 7.44a18.2 18.2 0 0 0 .72 4.85l1.78-1a16 16 0 0 1-.5-3.83c0-2.76.88-4.79 2.48-5.71a4.26 4.26 0 0 1 2.15-.54 8.3 8.3 0 0 1 4 1.25c5.32 3.08 9.65 10.58 9.65 16.72a11 11 0 0 1-.07 1.31 5.52 5.52 0 0 1-2.4 4.4 4.6 4.6 0 0 1-3 .48 5.7 5.7 0 0 0-.25 2 7 7 0 0 0 1.13.09 6.13 6.13 0 0 0 3.14-.82 7.09 7.09 0 0 0 3.27-5.14 13 13 0 0 0 .2-2.3c.01-6.82-4.77-15.1-10.64-18.49m56.87-32.78c-3-1.75-5.94-2-8.18-.71s-3.48 3.93-3.48 7.44a18.2 18.2 0 0 0 .72 4.85l1.78-1a16 16 0 0 1-.5-3.83c0-2.76.88-4.79 2.48-5.71a4.26 4.26 0 0 1 2.15-.54 8.3 8.3 0 0 1 4 1.25c5.32 3.08 9.65 10.58 9.65 16.72a11 11 0 0 1-.07 1.31 5.52 5.52 0 0 1-2.4 4.4 4.6 4.6 0 0 1-3 .48 5.7 5.7 0 0 0-.25 2 7 7 0 0 0 1.13.09 6.13 6.13 0 0 0 3.14-.82 7.09 7.09 0 0 0 3.27-5.14 13 13 0 0 0 .2-2.3c.01-6.82-4.77-15.1-10.64-18.49m28.46-16.43c-3-1.75-5.94-2-8.18-.71s-3.48 3.93-3.48 7.44a18.2 18.2 0 0 0 .72 4.85l1.78-1a16 16 0 0 1-.5-3.83c0-2.76.88-4.79 2.48-5.71a4.26 4.26 0 0 1 2.15-.54 8.3 8.3 0 0 1 4 1.25c5.32 3.08 9.65 10.58 9.65 16.72a11 11 0 0 1-.07 1.31 5.52 5.52 0 0 1-2.4 4.4 4.6 4.6 0 0 1-3 .48 5.7 5.7 0 0 0-.25 2 7 7 0 0 0 1.13.09 6.13 6.13 0 0 0 3.14-.82 7.09 7.09 0 0 0 3.27-5.14 13 13 0 0 0 .2-2.3c.01-6.81-4.77-15.1-10.64-18.49m28.41-16.41c-3-1.75-5.94-2-8.18-.71S311 58.13 311 61.64a18.2 18.2 0 0 0 .72 4.85l1.78-1a16 16 0 0 1-.5-3.83c0-2.76.88-4.79 2.48-5.71a4.26 4.26 0 0 1 2.15-.54 8.3 8.3 0 0 1 4 1.25c5.32 3.08 9.65 10.58 9.65 16.72a11 11 0 0 1-.07 1.31 5.52 5.52 0 0 1-2.4 4.4 4.6 4.6 0 0 1-3 .48 5.7 5.7 0 0 0-.25 2 7 7 0 0 0 1.13.09 6.13 6.13 0 0 0 3.14-.82 7.09 7.09 0 0 0 3.27-5.14 13 13 0 0 0 .2-2.3c.02-6.82-4.76-15.1-10.63-18.49" style="fill:#f5f5f5"/><path d="m352.22 315-6.72 11.67A3.18 3.18 0 0 0 351 330l6.76-11.74c.65-1.12-.05-2.75-1.57-3.63s-3.32-.72-3.97.37m53.48-20.55 11.67 6.72a3.18 3.18 0 1 0 3.26-5.46L408.89 289c-1.12-.65-2.75.05-3.63 1.57s-.68 3.23.44 3.88" style="fill:#455a64"/><path d="M418.63 241.84h-.06l-28.43-16.41h-.08c-6.24-3.55-14.84-3-24.33 2.46-19.07 11-34.53 37.79-34.53 59.81 0 11 3.85 18.69 10.06 22.31h.05l28.43 16.42h.07c6.24 3.57 14.85 3 24.35-2.45 19.06-11 34.52-37.79 34.52-59.8 0-11-3.84-18.72-10.05-22.34" style="fill:#3cf"/><path d="m369.28 326.1-28-16.14h-.06c-6.21-3.63-10.05-11.35-10.05-22.31 0-9.82 3.08-20.58 8.17-30.46l28.43 16.41c-5.1 9.88-8.17 20.64-8.17 30.46.02 10.7 3.7 18.32 9.68 22.04" style="opacity:.1"/><ellipse cx="394.16" cy="284.09" rx="48.83" ry="28.19" transform="rotate(-60 394.153 284.087)" style="fill:#fff;opacity:.4"/><path d="M378.73 321.67c-10.92 0-12.1-12.34-12.1-17.65 0-19.42 14.21-44 31-53.74 4.28-2.47 8.4-3.77 11.92-3.77 10.92 0 12.1 12.34 12.1 17.65 0 19.42-14.21 44-31 53.74-4.29 2.47-8.41 3.77-11.92 3.77" style="fill:#fafafa"/><path d="M386.5 306.59a.5.5 0 0 1-.16 0 .51.51 0 0 1-.31-.64l7.65-21.85a.5.5 0 0 1 .95.33L387 306.25a.49.49 0 0 1-.5.34" style="fill:#3cf"/><path d="M405.62 290.69a1.4 1.4 0 0 1-.59-.12l-12.37-5.35v-22.44a1.5 1.5 0 0 1 3 0v20.47l10.56 4.57a1.5 1.5 0 0 1-.6 2.87" style="fill:#37474f"/><path d="M394.16 279.4c2.24-1.3 4.06-.25 4.06 2.34a9 9 0 0 1-4.06 7c-2.25 1.3-4.07.25-4.07-2.35a9 9 0 0 1 4.07-6.99" style="fill:#3cf"/><path d="M361.12 263.3c-4.9 8.47-14.13 12.31-21.07 8.3a17.73 17.73 0 0 1 17.75-30.7c6.92 4.1 8.2 13.92 3.32 22.4" style="fill:#455a64"/><path d="M340.05 271.6c6.94 4 16.17.17 21.07-8.3a22.5 22.5 0 0 0 2.41-6.08c-.28.37-8.44 10.77-18.58 7.84-10.32-3-12.26-10.93-11.37-17.69a17.73 17.73 0 0 0 6.47 24.23" style="fill:#37474f"/><path d="m337.2 245.65-5.26-3a3.18 3.18 0 1 0-3.26 5.46l5.32 3.08c1.13.65 2.76-.05 3.64-1.57s.68-3.32-.44-3.97m78.46-25.37 3-5.25a3.18 3.18 0 1 0-5.46-3.26l-3.08 5.32c-.65 1.12 0 2.75 1.57 3.63s3.31.69 3.97-.44" style="fill:#3cf"/><path d="M390.25 222.45A17.73 17.73 0 1 1 421 240.2Z" style="fill:#455a64"/><path d="M417.1 217.84c1 2.09 3.72 10.94 0 13.14s-20.9-5.1-20.9-5.1L421 240.2a17.74 17.74 0 0 0-3.9-22.36" style="fill:#37474f"/><path d="M304.87 268.51c-17.7-23.79-23.52-26.44-26.85-27.25l5.84 16L296 272.83" style="fill:#ffa8a7"/><path d="M276.29 241s3.76-1.14 9.2 4.19 12 13.1 12 13.1-1.77 6.35-7.3 8.32l-8-8.32Z" style="fill:#3cf"/><path d="M276.29 241s3.76-1.14 9.2 4.19 12 13.1 12 13.1-1.77 6.35-7.3 8.32l-8-8.32Z" style="opacity:.1"/><circle cx="277.41" cy="217.93" r="10.16" transform="rotate(-13.28 277.486 217.971)" style="fill:#263238"/><path transform="rotate(180 256.655 395.995)" style="fill:#ffa8a7" d="M253.07 389.87h7.16v12.25h-7.16z"/><path style="fill:#ffa8a7" d="m276.42 393.22 7.15.25.36-12.97-7.16-.25z"/><path d="M253.54 292.74v49.51c-.17 2-1.62 5.37-2 13.74-.48 10.27 1.09 38.53 1.09 38.53s3.35 3.33 8.09 0c0 0 6.35-40.34 7.64-50.51 1.12-8.88 3-33 3-33l4.28 36.33s-1.17 6.67-1.42 11.37 2.06 29.83 2.06 29.83a7.83 7.83 0 0 0 7.79.29s4.9-37.65 5.64-41.9-2.69-54.2-2.69-54.2Z" style="fill:#37474f"/><path d="M260.42 243.29a16.5 16.5 0 0 0-2.95.69c-2 .77-2.87 3.19-3.34 5.32a25.2 25.2 0 0 0-.59 5.44v38c5 5.46 22.52 8 33.48 0 0 0-.21-33.56-1-39.08-1.43-9.58-6-13-10.62-12.64l-11.05 1.58Z" style="fill:#3cf"/><path d="M259.84 225.16s1.65 7.73 2.31 9a3.54 3.54 0 0 0 2 1.64l-.12-5.45Z" style="fill:#263238"/><path d="M261.91 214.07a3.84 3.84 0 0 0-3.16 1.11c-1.35 1.39-.59 5.73 1.09 10l3.11.35Z" style="fill:#263238"/><path d="M263.88 225.51c-.63.38-1.51-.82-2.28-1.62s-3.27-1.9-4.52.73 1.1 6.23 3.07 6.85c3.4 1.06 3.91-1.12 3.91-1.12l.26 12.26a10.93 10.93 0 0 0 8.25 6.26c6 .81 4.78-4.15 2.8-6.59v-3.73a21.5 21.5 0 0 0 4.58.24c2.5-.39 4.07-2.36 4.83-5.06 1.22-4.35 1.68-7.85.65-16.4-1.14-9.36-12-9.46-17.91-5.76s-3.64 13.94-3.64 13.94" style="fill:#ffa8a7"/><path d="M263.88 226.56c-.32 0-1.51-2-2.28-2.67-1.07-1 .31-9.82.31-9.82a4.18 4.18 0 0 1 1-4.47c1.46-1.62 3.92-1.79 8.11-2.45 2.2-.35 5.54-1 7.74-1.37 2.62-.49 4.79-1 6.64.6a4.63 4.63 0 0 1 1.29 5.21 4.4 4.4 0 0 1-.75 1.12c-.53.59-.62 1.39-1.37 1.63 0 0-1.59 1.44-5.57 1.92a59 59 0 0 1-11-.21c-1.16-.16-1.47.21-2.09 3.26-.53 2.69-.98 7.23-2.03 7.25" style="fill:#263238"/><path d="m261.92 214.76-3.76-2a2.06 2.06 0 0 1 2.84-.94 2.25 2.25 0 0 1 .92 2.94" style="fill:#263238"/><path d="M275.36 238.55s-5.57-1.12-7.52-2.16a6.4 6.4 0 0 1-2.7-2.66 8.9 8.9 0 0 0 1.53 3.14c1.43 1.82 8.69 3.17 8.69 3.17Z" style="fill:#f28f8f"/><path d="M274.38 225.14a1.12 1.12 0 1 1-1.12-1.16 1.13 1.13 0 0 1 1.12 1.16m-1.19-4.21-2.39 1.31a1.44 1.44 0 0 1 .56-1.9 1.33 1.33 0 0 1 1.83.59" style="fill:#263238"/><path d="m274.86 231.84 2.55 1a1.33 1.33 0 0 1-1.73.84 1.41 1.41 0 0 1-.82-1.84" style="fill:#f28f8f"/><path d="m284.34 221.86-2.18-1.68a1.32 1.32 0 0 1 1.9-.29 1.44 1.44 0 0 1 .28 1.97m-.67 2.97a1.13 1.13 0 0 1-1.12 1.15 1.16 1.16 0 1 1 1.12-1.15" style="fill:#263238"/><path style="fill:#f28f8f" d="m277.62 222.74.37 6.72 3.51-1.19z"/><path d="M260.23 398.59v-1c.69.29 2.28 6.37 5.12 9 2.26 2.06 5.34 4.43 6.12 6.73s-4.29 3.71-6.4 3.33c-2.45-.43-6.7-2.16-7.76-3.76s-1.57-4-2.44-5.13-2.86-2.48-3.33-3.84a8.7 8.7 0 0 1 .41-3.76c.33-1.26.69-2.65 1.12-2.53v.78a5.75 5.75 0 0 0 3.58 1.21c1.05-.02 3.59-.23 3.58-1.03m23.41-7.33c.38 0 .68.54 1.5 1.43a15.6 15.6 0 0 0 4.21 3c2.68 1.35 7.89 3.41 10.25 4.47 1.47.67 1.4 2.45-.12 3.46s-5.2 1.74-9.61.75c-2.41-.53-5.54-2.76-7.52-2.64s-5.69.1-7.15-.91-.88-3.16-.47-5c.45-2 1.1-5.11 1.77-5v.64c.87 1.3 5.25 1.83 7.14.88ZM271.36 311a26.5 26.5 0 0 0 10-5.71s-1.92 3.6-7.64 6.95l.12 19.51Z" style="fill:#263238"/><path d="M257.79 310.7c-1.18-1-1.92-2.29-3.7-3.6a9.5 9.5 0 0 1-3.15-3.19c-1-1.68-2-7.28-2.3-12.6a52.3 52.3 0 0 1 2.47-17.53c2.43-6.71 7.36-15.71 9-19.51s.76-5.71-.71-7.64c-1.72-2.26-4.91-2.27-7.92 2.88a110.4 110.4 0 0 0-9.54 22.61 55.1 55.1 0 0 0-1.73 18.07c.33 5.63 1.56 9.93 3.14 15.34.44 1.47.39 2.67.89 5.58a12.4 12.4 0 0 0 .92 3.53 16 16 0 0 0 2.57 3.71 10.76 10.76 0 0 0 4.79 3 6.7 6.7 0 0 0 3.11.17 4.44 4.44 0 0 0 2.65-1.56 1.3 1.3 0 0 0 .28-.57 1.46 1.46 0 0 0-.41-1 65 65 0 0 1-4-5.2c-.92-1.55-1.36-2.78-1-2.71s.83 1 2.17 1.84 3 .81 3.39.06.29-.66-.92-1.68" style="fill:#ffa8a7"/><path d="M258.28 243.75c-2.86.17-5.46.81-8.32 6.48s-7.35 16.29-7.35 16.29a12.32 12.32 0 0 0 10.93 6.31s6.58-13.74 7.65-17.36 1.81-9.47-2.91-11.72" style="fill:#3cf"/><path d="M258.28 243.75c-2.86.17-5.46.81-8.32 6.48s-7.35 16.29-7.35 16.29a12.32 12.32 0 0 0 10.93 6.31s6.58-13.74 7.65-17.36 1.81-9.47-2.91-11.72" style="opacity:.1"/><path d="M296 272.83c-.65 1.9-6.89 7.69-11.48 9.53a6.3 6.3 0 0 1-3.38.2 8.5 8.5 0 0 0-3.4-.66c-1.34.12-2.7.38-4.05.54a2 2 0 0 0-.81.2c-.82.45-.35 1.14.3 1.39a24 24 0 0 0 3.21.91v.29a32 32 0 0 1-8.66 1.74 2.42 2.42 0 0 0-1.45.5 1.52 1.52 0 0 0-.33 1.42 3.7 3.7 0 0 0 .7 1.33 8.3 8.3 0 0 0 5.22 3.55 16.15 16.15 0 0 0 6.39-.8q1.49-.42 2.94-.93a67 67 0 0 0 8.25-3.69 74.4 74.4 0 0 0 15.74-11.07c2.88-2.81 2.17-5.51-.25-8.77" style="fill:#ffa8a7"/><path d="M283.85 282.54s1-.37 2.14 1.46 1.86 5.17.43 5.83a2.84 2.84 0 0 0 2.52-1.25 7.09 7.09 0 0 0-2.52-7.12 3.8 3.8 0 0 0-2.57 1.08" style="fill:#37474f"/><path d="M289.14 283.21a2.12 2.12 0 1 1-2.88-.76 2.11 2.11 0 0 1 2.88.76" style="fill:#3cf"/><path d="M288.65 283.49a1.56 1.56 0 1 1-2.12-.57 1.55 1.55 0 0 1 2.12.57" style="fill:#fafafa"/></svg>