<svg xmlns="http://www.w3.org/2000/svg" viewBox="0 0 750 500"><path d="M461.9 411.82c.07-5.92-1.16-6.86-1.85-7.92a5.22 5.22 0 0 1-1.24-2.94c0-1.27-.44-6.85-.53-8.64s-.75-4.44-.55-5.36a1 1 0 0 1 0-.17 3.2 3.2 0 0 0-2.28-.48l-.47.11a2.1 2.1 0 0 1-1.18.09l-.53-.14a2.8 2.8 0 0 0-1.09-.16 2 2 0 0 0-.67.19c0 .15.06.34.11.57.2.92-.45 3.57-.53 5.36s-.45 7.37-.49 8.65a5.14 5.14 0 0 1-1.23 2.94c-.68 1.07-1.92 2-1.82 7.93s.21 19.08.21 19.08v1.91a6.2 6.2 0 0 0 1.15 3.61 3 3 0 0 0 2.32.86h6.99a3.2 3.2 0 0 0 2.19-.73c1.46-1.43 1.28-3.81 1.29-5.67.07-.01.13-13.17.2-19.09" style="fill:#fff"/><path d="M453.79 437.56h-2.49a3.2 3.2 0 0 1-2.5-.95 6.38 6.38 0 0 1-1.2-3.75 18 18 0 0 1 0-1.93c0-.12-.11-13.22-.21-19.07-.08-5.3.89-6.68 1.6-7.69l.26-.37c.08-.14.17-.27.25-.4a4.15 4.15 0 0 0 .94-2.42c0-.69.14-2.66.26-4.57.1-1.64.19-3.26.23-4.08s.18-1.69.31-2.58a11 11 0 0 0 .23-2.71c-.05-.24-.09-.44-.11-.6v-.17l.16-.08a2.5 2.5 0 0 1 .74-.21 3.1 3.1 0 0 1 1.19.17l.51.14a2 2 0 0 0 1.06-.09c.17 0 .32-.09.5-.12a3.46 3.46 0 0 1 2.45.52l.13.09-.1.31a11 11 0 0 0 .23 2.73c.14.89.28 1.81.32 2.59s.15 2.44.25 4.08c.13 1.9.26 3.87.28 4.57a4.22 4.22 0 0 0 .94 2.41l.26.4.26.37c.71 1 1.69 2.38 1.63 7.68-.07 5.92-.13 19-.13 19.08v.58c0 1.74 0 3.9-1.37 5.26a3.26 3.26 0 0 1-2.35.8h-3.49Zm-2-51c0 .11.05.24.08.38a10.7 10.7 0 0 1-.23 2.89 25 25 0 0 0-.3 2.53c0 .83-.14 2.45-.24 4.09-.11 1.9-.23 3.87-.25 4.56a4.66 4.66 0 0 1-1 2.67l-.25.39c-.08.13-.17.25-.27.39-.67.95-1.59 2.25-1.51 7.4.1 5.86.21 19 .21 19.09v1.89a5.84 5.84 0 0 0 1.09 3.47 2.74 2.74 0 0 0 2.15.78h6.97a2.87 2.87 0 0 0 2-.66c1.24-1.22 1.23-3.18 1.22-4.92v-.58c0-1 .09-15.66.13-19.08.06-5.15-.86-6.45-1.54-7.4-.1-.14-.19-.26-.27-.39s-.17-.27-.26-.39a4.7 4.7 0 0 1-1-2.67c0-.68-.15-2.65-.27-4.55-.11-1.64-.22-3.27-.26-4.09a23 23 0 0 0-.31-2.53 10.3 10.3 0 0 1-.23-2.89 2.88 2.88 0 0 0-2-.36 2.5 2.5 0 0 0-.43.1 2.5 2.5 0 0 1-1.31.09 5 5 0 0 1-.54-.14 2.4 2.4 0 0 0-1-.15 2.5 2.5 0 0 0-.35.06Z" style="fill:#e0e0e0"/><path d="m453.4 386.42.52.12a1.8 1.8 0 0 0 .9-.07 4 4 0 0 1 .6-.13 4.7 4.7 0 0 1 2.75.42 1 1 0 0 0 0-.2 1.28 1.28 0 0 0-1.4-1.62h-4.18c-1.4 0-1.46 1-1.42 1.44a4 4 0 0 1 .71-.16 4.2 4.2 0 0 1 1.52.2" style="fill:#e0e0e0"/><path d="m459 404.57-.25-.39a5.66 5.66 0 0 1-1.19-3.17c0-.67-.15-2.61-.27-4.49-.1-1.6-.21-3.26-.25-4.1 0-.28-.05-.59-.09-.92h-4.53c0 .33-.07.64-.08.92 0 .84-.14 2.5-.24 4.1-.11 1.88-.23 3.82-.25 4.49a5.64 5.64 0 0 1-1.18 3.18l-.25.38c-.09.14-.18.28-.29.43-.59.84-1.41 2-1.33 6.82q.06 3.19.09 6.39c0 3.75.11 7.5.1 11.26 0 1.52-.07 3 .81 4.32s2.69 1.14 3.93 1.14a34 34 0 0 0 4.14-.14 3.5 3.5 0 0 0 1.94-.76c.92-.84.71-3.05.71-4.16v-8.4c0-3.22 0-6.45.08-9.68.06-4.82-.76-6-1.36-6.81Z" style="fill:#ebebeb"/><path d="M452 425.91h-4.4v-13.3h4.4a6.65 6.65 0 0 1 6.65 6.65 6.65 6.65 0 0 1-6.65 6.65" style="fill:#e0e0e0"/><path d="M275.05 467.81c.07-5.92-1.16-6.86-1.85-7.92A5.2 5.2 0 0 1 272 457c0-1.27-.44-6.85-.52-8.64s-.75-4.44-.56-5.36a1 1 0 0 0 0-.17 3.2 3.2 0 0 0-2.28-.48l-.47.11a2.1 2.1 0 0 1-1.18.09l-.52-.14a2.9 2.9 0 0 0-1.1-.16 1.8 1.8 0 0 0-.66.19c0 .15.06.34.11.58.2.91-.45 3.56-.54 5.35s-.45 7.37-.49 8.65a5.14 5.14 0 0 1-1.23 2.94c-.68 1.07-1.91 2-1.82 7.93s.21 19.08.21 19.08v1.91a6.13 6.13 0 0 0 1.15 3.61 3 3 0 0 0 2.32.86h6.98a3.2 3.2 0 0 0 2.19-.73c1.46-1.43 1.28-3.81 1.29-5.67.04-.06.12-13.22.17-19.14" style="fill:#fff"/><path d="M267 493.55h-2.5a3.19 3.19 0 0 1-2.5-.94 6.43 6.43 0 0 1-1.2-3.76c0-.64-.06-1.3 0-1.93 0-.12-.11-13.22-.21-19.07-.08-5.3.89-6.68 1.61-7.69l.25-.37c.09-.14.17-.27.26-.39a4.17 4.17 0 0 0 .93-2.43c0-.69.14-2.66.26-4.57.1-1.64.2-3.26.23-4.08s.18-1.69.31-2.58a10.6 10.6 0 0 0 .23-2.71c-.05-.24-.09-.44-.11-.6v-.17l.16-.08a2.5 2.5 0 0 1 .74-.21 3.1 3.1 0 0 1 1.19.17l.51.14a2 2 0 0 0 1.07-.09c.16 0 .31-.09.49-.12a3.46 3.46 0 0 1 2.45.52l.13.09-.06.31a10.7 10.7 0 0 0 .24 2.73c.13.89.28 1.81.31 2.59s.15 2.44.26 4.08c.12 1.9.25 3.87.27 4.57a4.13 4.13 0 0 0 .95 2.41l.26.4c.07.12.16.24.25.37.72 1 1.7 2.38 1.63 7.68-.07 5.92-.13 19-.13 19.08v.58c0 1.74 0 3.91-1.36 5.26a3.3 3.3 0 0 1-2.36.8h-3.49Zm-2-51c0 .12 0 .24.08.38a11 11 0 0 1-.22 2.89c-.14.88-.27 1.78-.31 2.53s-.13 2.45-.23 4.09c-.12 1.9-.24 3.87-.26 4.56a4.7 4.7 0 0 1-1 2.67l-.26.39c-.08.13-.17.25-.26.39-.68.95-1.6 2.25-1.52 7.4.1 5.86.21 19 .21 19.09a17 17 0 0 0 0 1.89 5.77 5.77 0 0 0 1.09 3.47 2.71 2.71 0 0 0 2.14.78h6.97a2.87 2.87 0 0 0 2-.66c1.24-1.21 1.23-3.18 1.22-4.92v-.58c0-1.05.09-15.66.13-19.08.07-5.15-.86-6.45-1.54-7.4-.09-.14-.18-.26-.27-.39l-.25-.39a4.7 4.7 0 0 1-1-2.67c0-.68-.15-2.65-.27-4.55-.11-1.64-.21-3.27-.25-4.09s-.18-1.66-.32-2.53a10.7 10.7 0 0 1-.23-2.89 2.88 2.88 0 0 0-2-.36 2.5 2.5 0 0 0-.43.1 2.37 2.37 0 0 1-1.31.09 5 5 0 0 1-.53-.13 2 2 0 0 0-1.44-.07Z" style="fill:#e0e0e0"/><path d="m266.55 442.41.52.12a1.8 1.8 0 0 0 .9-.07 5 5 0 0 1 .61-.13 4.65 4.65 0 0 1 2.74.42v-.2a1.28 1.28 0 0 0-1.4-1.62h-4.19c-1.4 0-1.45 1-1.42 1.44a3.7 3.7 0 0 1 .71-.15 4 4 0 0 1 1.53.19" style="fill:#e0e0e0"/><path d="M272.11 460.56c-.08-.14-.17-.26-.25-.39a5.6 5.6 0 0 1-1.18-3.17c0-.67-.15-2.61-.27-4.49-.1-1.6-.21-3.26-.25-4.1 0-.28 0-.59-.08-.92h-4.54c0 .33-.06.64-.08.92 0 .84-.14 2.5-.23 4.1-.11 1.88-.23 3.82-.25 4.49a5.54 5.54 0 0 1-1.18 3.18l-.24.38-.29.43c-.6.84-1.41 2-1.34 6.82q.06 3.19.09 6.39c0 3.75.11 7.5.1 11.26 0 1.52-.06 3 .81 4.32s2.7 1.14 3.94 1.15a36 36 0 0 0 4.13-.15 3.5 3.5 0 0 0 1.95-.76c.91-.84.7-3 .71-4.16v-8.4c0-3.22 0-6.45.08-9.68.06-4.82-.76-6-1.35-6.81q-.14-.2-.28-.41" style="fill:#ebebeb"/><path d="M265.19 481.9h-4.43v-13.29h4.43a6.64 6.64 0 0 1 6.65 6.64 6.65 6.65 0 0 1-6.65 6.65" style="fill:#e0e0e0"/><path style="fill:#ebebeb" d="m376.82 269.76-12.69-7.14-4.21-21.42-3.55.95 3.08 20.24-12.17-8.06-2.66 2.99 16.1 10.04 16.1 7.39z"/><path style="fill:#ebebeb" d="M375.06 238.51h9.3v198.57h-9.3z"/><path d="M377.17 12.73c0 1.24-25 78.36-25 78.36l12.48-12.44-18 53.9 11.84-16.17-14 67.58 6.77-7.05-11.85 47.68 10.16-12.44-10.16 35.66 80.4-5.81-19-67.16 11.5 12.44-14.89-48.93 7.62 4.15-17.35-63 8 5.39Z" style="fill:#e0e0e0"/><path d="M379.87 150.37a8 8 0 0 1-.4 1.15l-1.26 3.13-4.5 10.79-.2.48-.25-.46a55 55 0 0 1-3.28-7.14c-.36-1-.68-1.92-1-2.83h.5c-2.22 5.54-4.39 10.36-6 13.79-.82 1.71-1.5 3.08-2 4-.23.42-.41.78-.57 1.07a1.3 1.3 0 0 1-.23.36 11 11 0 0 1 .63-1.51l1.83-4.07c1.55-3.46 3.66-8.3 5.86-13.84l.27-.68.22.7c.29.9.61 1.85 1 2.8a56 56 0 0 0 3.22 7.09h-.45l4.68-10.72 1.39-3.08a6.4 6.4 0 0 1 .54-1.03m8.56-28.78a5 5 0 0 1-.45-.83c-.31-.63-.69-1.42-1.16-2.36-1-2-2.45-4.8-4.35-7.92l.46-.07c-.4 1.52-.83 3.16-1.28 4.85-.28 1.06-.56 2.09-.83 3.08l-.18.69-.3-.65c-1.72-3.74-3.2-7-4.24-9.39l-1.21-2.79a4.8 4.8 0 0 1-.37-1 6 6 0 0 1 .54 1c.36.73.81 1.64 1.34 2.73 1.13 2.33 2.67 5.6 4.41 9.32h-.49c.27-1 .54-2 .82-3.08l1.31-4.84.15-.58.31.52a81 81 0 0 1 4.2 8c.46 1 .8 1.85 1 2.42a3.5 3.5 0 0 1 .32.9M377 62.51a20 20 0 0 1-1.41 2.74c-.94 1.68-2.28 4-3.82 6.66l-.36.6-.12-.68c-.14-.77-.29-1.56-.44-2.38-.25-1.4-.49-2.75-.71-4l.46.09c-1.44 2.22-2.69 4.13-3.59 5.47a15.3 15.3 0 0 1-1.51 2.09 15 15 0 0 1 1.25-2.25c.82-1.39 2-3.33 3.42-5.57l.34-.54.12.63.74 4c.15.82.29 1.61.43 2.38l-.48-.08c1.56-2.64 3-4.94 4-6.58a22 22 0 0 1 1.68-2.58M72.62 315.78l-13.99-8.03-4.65-24.1-3.9 1.07 3.39 22.77-13.42-9.07-2.93 3.37 17.75 11.29 17.75 8.32z" style="fill:#ebebeb"/><path style="fill:#ebebeb" d="M70.68 280.62h10.25v156.76H70.68z"/><path d="M73 26.61c0 1.4-27.52 88.15-27.52 88.15l13.76-14-19.82 60.65 13.06-18.19-15.39 76 7.46-7.93L31.49 265l11.2-14-11.2 40.11 88.63-6.53L99.13 209l12.67 14-16.41-55 8.4 4.66-19.12-70.96 8.86 6.07Z" style="fill:#e0e0e0"/><path d="M76 181.46a7.6 7.6 0 0 1-.44 1.29c-.36.9-.82 2.07-1.39 3.52-1.25 3.08-3 7.27-5 12.14L69 199l-.27-.51a61 61 0 0 1-3.62-8c-.39-1.08-.75-2.16-1.07-3.18h.54a269 269 0 0 1-6.64 15.51c-.9 1.93-1.65 3.47-2.18 4.52l-.63 1.2c-.15.27-.23.41-.25.4a14 14 0 0 1 .69-1.69l2-4.58c1.71-3.9 4-9.34 6.46-15.57l.3-.77.24.79c.31 1 .67 2.08 1.06 3.15a64 64 0 0 0 3.56 8h-.49c2.06-4.84 3.84-9 5.15-12.06l1.53-3.46a8 8 0 0 1 .62-1.29m9.42-32.38a5 5 0 0 1-.5-.94c-.34-.71-.77-1.59-1.27-2.65-1.1-2.25-2.71-5.4-4.8-8.91l.51-.07c-.45 1.7-.92 3.54-1.42 5.45-.31 1.19-.62 2.35-.91 3.47l-.21.77-.33-.73c-1.88-4.2-3.52-7.91-4.67-10.57-.53-1.26-1-2.31-1.33-3.14a5 5 0 0 1-.41-1.16 5.5 5.5 0 0 1 .6 1.08l1.48 3.07c1.24 2.62 2.94 6.25 4.84 10.49h-.53l.9-3.47c.51-1.9 1-3.74 1.44-5.44l.17-.65.34.57a91 91 0 0 1 4.68 9.1c.51 1.15.89 2.08 1.13 2.72a4.8 4.8 0 0 1 .29 1.01M72.87 82.61a24 24 0 0 1-1.57 3.08c-1 1.89-2.51 4.52-4.21 7.5l-.39.67-.14-.77q-.23-1.29-.48-2.67c-.27-1.57-.54-3.09-.78-4.5l.5.1c-1.58 2.5-3 4.65-3.95 6.15a17 17 0 0 1-1.67 2.35A18 18 0 0 1 61.56 92c.91-1.56 2.22-3.74 3.77-6.26l.38-.61.13.7c.25 1.41.53 2.93.81 4.5.16.92.32 1.81.47 2.67l-.52-.09c1.72-3 3.26-5.55 4.38-7.39a22 22 0 0 1 1.89-2.91m621.41 234.15 13.99-8.03 4.64-24.1 3.91 1.07-3.39 22.77 13.41-9.07 2.94 3.37-17.75 11.29-17.75 8.32z" style="fill:#ebebeb"/><path transform="rotate(180 691.095 359.98)" style="fill:#ebebeb" d="M685.97 281.6h10.25v156.76h-10.25z"/><path d="M693.89 27.59c0 1.4 27.52 88.16 27.52 88.16l-13.76-14 19.83 60.64-13.06-18.19 15.39 76-7.46-7.93 13.06 53.64-11.2-14 11.2 40.11-88.63-6.53 21-75.56L655.1 224l16.4-55-8.39 4.67 19.12-70.9-8.86 6.06Z" style="fill:#e0e0e0"/><path d="M690.92 182.44a7.6 7.6 0 0 0 .44 1.29c.35.9.82 2.08 1.39 3.52 1.25 3.08 3 7.27 5 12.15l.21.53.28-.51a61 61 0 0 0 3.62-8c.39-1.08.75-2.16 1.07-3.18h-.55c2.45 6.23 4.84 11.66 6.65 15.52.9 1.92 1.65 3.46 2.18 4.51.25.48.45.87.63 1.2s.23.41.25.4a15 15 0 0 0-.69-1.69l-2-4.58c-1.71-3.89-4-9.34-6.46-15.57l-.3-.77-.24.79c-.32 1-.67 2.08-1.07 3.15a63 63 0 0 1-3.55 8h.49c-2.07-4.84-3.85-9-5.15-12.07l-1.53-3.46a8 8 0 0 0-.67-1.23m-9.44-32.38a5 5 0 0 0 .5-.94l1.27-2.65c1.1-2.25 2.71-5.4 4.8-8.91l-.51-.07c.44 1.7.92 3.54 1.42 5.45.31 1.19.61 2.35.91 3.47l.2.78.33-.74c1.89-4.2 3.53-7.91 4.68-10.57l1.32-3.14a6.3 6.3 0 0 0 .42-1.16 5.5 5.5 0 0 0-.6 1.08l-1.48 3.07c-1.24 2.62-2.94 6.29-4.85 10.49h.53l-.9-3.47c-.51-1.9-1-3.74-1.44-5.44l-.17-.65-.34.58a90 90 0 0 0-4.63 9.05 53 53 0 0 0-1.13 2.72 4 4 0 0 0-.33 1.05M694 83.59a22 22 0 0 0 1.57 3.08c1 1.9 2.5 4.52 4.21 7.5l.39.68.13-.77q.24-1.31.48-2.67c.28-1.58.55-3.1.79-4.51l-.5.1c1.58 2.5 3 4.65 3.95 6.16a18.4 18.4 0 0 0 1.66 2.34 16 16 0 0 0-1.34-2.5c-.91-1.55-2.23-3.74-3.78-6.26l-.37-.61-.13.71c-.25 1.4-.53 2.92-.82 4.49-.16.92-.31 1.81-.47 2.68l.53-.1c-1.72-3-3.26-5.55-4.38-7.39a23.6 23.6 0 0 0-1.92-2.93" style="fill:#ebebeb"/><path d="M144.35 137.37s15.54 30 19.38 28.67c5-1.74 13.87-33.46 13.87-33.46s-30.28 4.42-33.25 4.79" style="fill:#f5f5f5"/><path d="M180.89 132.1s18.16 28.51 21.87 26.83c4.79-2.17 10.83-34.56 10.83-34.56s-29.76 7.14-32.7 7.73" style="fill:#ebebeb"/><path d="M216.72 123.43s20.65 26.75 24.2 24.74c4.57-2.59 7.67-35.39 7.67-35.39s-29 9.79-31.87 10.65" style="fill:#f5f5f5"/><path d="M250.07 112.38s22.18 25.5 25.6 23.29c4.41-2.86 5.59-35.78 5.59-35.78s-28.37 11.47-31.19 12.49" style="fill:#ebebeb"/><path d="M283 98.43s24.7 23.07 27.87 20.51c4.09-3.29 1.86-36.16 1.86-36.16S285.66 97.13 283 98.43" style="fill:#f5f5f5"/><path d="M314.37 81.71s26.37 21.13 29.34 18.34c3.83-3.59-.88-36.2-.88-36.2S317 80.2 314.37 81.71M107.91 139.5S121 170.65 125 169.61c5.08-1.34 16.46-32.26 16.46-32.26s-30.56 2.06-33.55 2.15" style="fill:#ebebeb"/><path d="m369.86 44.32-.66.54-1.95 1.57-3.18 2.57-2 1.62-2.36 1.79-5.54 4.19-6.72 4.82c-1.2.88-2.47 1.73-3.78 2.62l-4.06 2.76c-.7.47-1.39 1-2.12 1.43l-2.21 1.43-4.59 3a431 431 0 0 1-46 25.25c-8.95 4.18-18.46 8.31-28.47 12.22s-20.55 7.51-31.45 10.82l-8.16 2.4-8.1 2.18-2 .54-2 .48-4 1-4 1-4 .86c-2.63.55-5.22 1.17-7.82 1.66l-7.69 1.47c-2.54.47-5.07.85-7.57 1.28l-3.72.62-3.69.52c-9.77 1.47-19.12 2.33-27.87 3.06s-16.94 1-24.41 1l-5.47.05c-1.77 0-3.5-.05-5.19-.07-3.36-.07-6.53-.09-9.5-.26s-5.72-.24-8.25-.42l-6.93-.52c-1-.08-2-.14-3-.23l-2.58-.27-4-.43-2.48-.27c-.56-.06-.85-.11-.85-.11l.85.07 2.49.24 4 .39 2.58.26c.92.09 1.91.14 3 .22l6.93.49c2.53.16 5.29.24 8.25.38s6.14.18 9.5.24c1.68 0 3.41.09 5.18.06l5.47-.06c7.46-.06 15.63-.47 24.39-1.07s18.09-1.61 27.85-3.1l3.68-.52 3.72-.62c2.49-.42 5-.8 7.56-1.28l7.69-1.48c2.59-.49 5.18-1.1 7.81-1.66l4-.86 4-1 4-1 2-.49 2-.54 8.09-2.17 8.15-2.4c10.89-3.32 21.4-7 31.43-10.81s19.51-8 28.46-12.19a435 435 0 0 0 46-25.18l4.6-2.94 2.18-1.47 2.12-1.43 4.06-2.74c1.31-.89 2.59-1.74 3.79-2.62l6.73-4.79 5.56-4.17L362 50.5l2-1.61 3.2-2.51 2-1.54c.42-.35.66-.52.66-.52" style="fill:#455a64"/><path d="M92.33 139.4c-.92 0-1.82-.07-2.71-.12l-3-.14c-1.84-.08-3.58-.16-5.23-.27l-8-.61c-.65 0-1.27-.09-1.87-.15l-9.11-1-.87-.1.13-1.29.87.07 9.12.88c.59.06 1.2.1 1.84.14l8 .57c1.61.11 3.32.18 5.11.25l3.13.14c2.3.13 4.72.16 7.29.2h7.35l5.47-.06c6.76-.05 14.5-.39 24.35-1.06 8.23-.71 17.85-1.58 27.8-3.1l7.39-1.14 2.65-.44c1.63-.26 3.26-.53 4.9-.84l7.69-1.47c1.66-.32 3.33-.69 5-1.06l2.79-.6 7.9-1.82 8-2 8.09-2.17 8.13-2.39c10.43-3.18 21-6.81 31.39-10.79 9.27-3.62 18.83-7.72 28.41-12.18a438 438 0 0 0 45.9-25.13l10.13-6.61L343.7 63c1.12-.75 2.21-1.49 3.24-2.24l6.73-4.8 9.94-7.53 5.17-4.05c.45-.36.69-.53.69-.53l.81 1-.67.56-9.53 7.52-5.54 4.2-6.74 4.83c-1 .76-2.14 1.51-3.27 2.28l-5.31 3.61c-.46.31-.92.63-1.39.93L331 73.13a435 435 0 0 1-46 25.3c-9.62 4.48-19.21 8.6-28.52 12.23-10.42 4-21 7.66-31.5 10.84l-8.15 2.41-20.12 5.14-4 .86-2.81.61c-1.68.37-3.35.74-5 1l-7.71 1.48c-1.66.32-3.31.58-4.95.85l-2.63.44-7.43 1.14c-10 1.51-19.66 2.38-27.91 3.07-9.88.66-17.65 1-24.46 1l-5.46.05h-7.36c-1.61-.07-3.16-.1-4.66-.15" style="fill:#e0e0e0"/><path d="M619.63 128.54s-13.82 30.85-17.73 29.72c-5-1.45-15.74-32.62-15.74-32.62s30.48 2.74 33.47 2.9" style="fill:#f5f5f5"/><path d="M582.84 125.35s-16.51 29.49-20.31 28c-4.9-1.89-12.77-33.89-12.77-33.89s30.12 5.47 33.08 5.89" style="fill:#ebebeb"/><path d="M546.58 118.72s-19.1 27.88-22.75 26.07c-4.71-2.32-9.67-34.9-9.67-34.9s29.5 8.11 32.42 8.83" style="fill:#f5f5f5"/><path d="M512.66 109.58s-20.7 26.72-24.24 24.7c-4.57-2.6-7.61-35.41-7.61-35.41s28.98 9.85 31.85 10.71" style="fill:#ebebeb"/><path d="M479 97.51s-23.35 24.43-26.66 22.06c-4.27-3.06-3.9-36-3.9-36S476.26 96.36 479 97.51" style="fill:#f5f5f5"/><path d="M446.73 82.59s-25.14 22.6-28.26 20c-4-3.37-1.17-36.19-1.17-36.19s26.76 14.84 29.43 16.19m209.4 46.02s-11.35 31.84-15.34 31c-5.15-1-18.26-31.27-18.26-31.27s30.6.35 33.6.27" style="fill:#ebebeb"/><path d="m389.21 48.41.69.5 2 1.46 3.32 2.36 2.12 1.5 2.45 1.65 5.77 3.87 7 4.43c1.25.81 2.57 1.59 3.93 2.41l4.2 2.52c.72.43 1.45.88 2.2 1.31l2.29 1.3 4.75 2.69A429 429 0 0 0 477.26 97c9.17 3.66 18.9 7.25 29.12 10.59s20.94 6.33 32 9l8.27 1.93 8.21 1.71 2 .43 2 .37 4 .74 4 .74 4 .63c2.65.41 5.28.88 7.89 1.22l7.77 1c2.56.33 5.11.57 7.63.85l3.75.41 3.71.31c9.84.92 19.22 1.24 28 1.48 8.78.09 17 0 24.43-.35l5.46-.27c1.78-.07 3.5-.24 5.18-.36 3.35-.26 6.52-.46 9.47-.8s5.7-.56 8.22-.88l6.89-.91c1-.15 2-.26 2.93-.41l2.56-.41 4-.66 2.47-.41.84-.15-.85.12-2.47.38-4 .62-2.56.4c-.92.14-1.9.25-2.93.38l-6.89.89c-2.52.3-5.27.54-8.22.85s-6.12.53-9.47.78c-1.68.11-3.4.27-5.17.34l-5.46.26c-7.46.36-15.64.41-24.41.31-8.78-.25-18.16-.59-28-1.52l-3.71-.31-3.75-.41c-2.51-.28-5.06-.52-7.62-.85l-7.76-1c-2.61-.34-5.24-.81-7.89-1.22l-4-.63-4-.74-4-.74-2-.38-2-.42-8.2-1.71-8.27-1.93c-11.07-2.7-21.77-5.74-32-9s-19.93-6.91-29.1-10.56a432 432 0 0 1-47.27-22.51l-4.76-2.68-2.3-1.29-2.2-1.31-4.21-2.51c-1.36-.81-2.68-1.59-3.93-2.39l-7-4.41-5.79-3.84-2.46-1.64-2.12-1.49-3.29-2.33-2.05-1.43c-.49-.32-.74-.47-.74-.47" style="fill:#455a64"/><path d="M671.68 127.63c.91-.08 1.82-.17 2.7-.28l3-.31c1.82-.19 3.56-.36 5.2-.57l8-1.06c.65-.08 1.27-.16 1.86-.26l9-1.48.86-.15-.2-1.28s-.29 0-.86.12l-9.06 1.4c-.58.09-1.19.16-1.82.24l-8 1c-1.6.2-3.3.37-5.08.54l-3.12.31c-2.29.26-4.7.44-7.26.62l-2.19.16-1.81.13c-1.09.09-2.2.17-3.34.22l-5.46.25c-6.75.33-14.5.42-24.38.31-8.25-.23-17.91-.56-27.92-1.51l-7.45-.72-2.67-.29c-1.64-.17-3.28-.35-4.94-.57l-7.75-1c-1.69-.22-3.37-.49-5.06-.77l-2.82-.45-8-1.37-8.1-1.53-8.2-1.72-8.26-1.93c-10.59-2.57-21.34-5.6-31.94-9-9.46-3.09-19.24-6.64-29.06-10.55a439 439 0 0 1-47.25-22.49l-10.49-6-3.5-2.08c-1.16-.69-2.28-1.36-3.35-2.05l-7-4.41-10.35-7-5.39-3.76-.72-.49-.75 1.06.7.52 9.94 7 5.77 3.88 7 4.44c1.08.7 2.22 1.39 3.4 2.09l5.5 3.3 1.44.86 7.05 4A436 436 0 0 0 477 97.62c9.85 3.94 19.67 7.51 29.16 10.61 10.63 3.4 21.42 6.45 32.06 9l8.28 1.93 20.38 4 4 .63 2.84.45c1.7.28 3.39.55 5.08.77l7.76 1c1.68.22 3.34.4 5 .57l2.65.29 7.49.71c10.08.95 19.76 1.27 28 1.49 9.91.1 17.68 0 24.48-.36l5.46-.26c1.16-.05 2.3-.14 3.42-.23l1.77-.13L667 128c1.63-.12 3.18-.24 4.68-.37" style="fill:#e0e0e0"/><path d="M732 437.38c0 .14-154.59.26-345.23.26s-345.26-.12-345.26-.26 154.55-.26 345.26-.26 345.23.11 345.23.26m-60.27-1.07c-.09 0-.18-1.08-.58-2.76a22.3 22.3 0 0 0-2.52-6.23 22.5 22.5 0 0 0-4.27-5.19c-1.29-1.16-2.2-1.75-2.15-1.82s.26.09.69.34a14 14 0 0 1 1.7 1.2 19.75 19.75 0 0 1 6.91 11.62 12.3 12.3 0 0 1 .24 2.07 2.5 2.5 0 0 1-.02.77" style="fill:#263238"/><path d="M678.31 404.72A5.8 5.8 0 0 1 678 406c-.25.81-.58 2-1 3.44a71 71 0 0 0-2 11.59 72.4 72.4 0 0 0 0 11.75c.13 1.5.25 2.71.36 3.55a7.5 7.5 0 0 1 .11 1.31 5.5 5.5 0 0 1-.31-1.28c-.17-.83-.35-2-.53-3.55a61.2 61.2 0 0 1 2-23.47c.42-1.45.8-2.62 1.11-3.41a7 7 0 0 1 .57-1.21m8.1 18.1a24.3 24.3 0 0 0-5.84 14.69 7.4 7.4 0 0 1-.09-2.39 18.9 18.9 0 0 1 4.22-10.62 7.5 7.5 0 0 1 1.71-1.68M54.82 438.07a28 28 0 0 1-1.15-2.72 42 42 0 0 0-3.35-6.25 41.4 41.4 0 0 0-4.41-5.56 29 29 0 0 1-2-2.15 12 12 0 0 1 2.29 1.89 32 32 0 0 1 4.59 5.53 32.4 32.4 0 0 1 3.25 6.4 12 12 0 0 1 .78 2.86m.62-46.37a1.7 1.7 0 0 1 0 .47l-.06 1.33c-.07 1.16-.14 2.83-.18 4.9a124 124 0 0 0 3.41 32c.48 2 .9 3.64 1.21 4.75.13.51.25.94.34 1.29a1.5 1.5 0 0 1 .08.46s-.08-.14-.18-.43l-.43-1.26c-.37-1.1-.85-2.71-1.38-4.72a110.5 110.5 0 0 1-2.91-15.94 108 108 0 0 1-.51-16.2c.09-2.07.22-3.75.35-4.9l.15-1.33a1.5 1.5 0 0 1 .11-.42m252.37 83.44c-.08 0-.47-1.31-1.21-3.42a68 68 0 0 0-3.38-8.05 70 70 0 0 0-4.38-7.55c-1.25-1.87-2.08-3-2-3a4 4 0 0 1 .67.71c.41.48 1 1.2 1.64 2.11a53.4 53.4 0 0 1 4.55 7.52 54.5 54.5 0 0 1 3.3 8.14c.33 1.08.56 2 .7 2.58a4 4 0 0 1 .11.96m6.19-1.03a3.7 3.7 0 0 1-.48-1c-.29-.63-.66-1.56-1.08-2.72a70.4 70.4 0 0 1-4-18.82c-.08-1.23-.12-2.23-.12-2.92a4.7 4.7 0 0 1 .05-1.07c.09 0 .18 1.51.44 4a90.8 90.8 0 0 0 4 18.73c.72 2.34 1.25 3.77 1.19 3.8m5.65 2.02a3.1 3.1 0 0 1-.31-.82c-.17-.54-.38-1.33-.59-2.31a38 38 0 0 1-.83-7.81 40 40 0 0 1 .75-7.83q.315-1.5.57-2.31c.255-.81.27-.83.31-.82s-.2 1.23-.51 3.2a48.5 48.5 0 0 0-.6 7.75 50 50 0 0 0 .67 7.75c.33 1.97.62 3.18.54 3.2" style="fill:#263238"/><path d="m500.65 419.65-15.29 34.53-43.06-18.8c2.05-4 27.93-2.53 27.93-2.53l8.88-22.53Z" style="fill:#3cf"/><g style="opacity:.6000000000000001"><path d="M484.36 436.79a1.93 1.93 0 0 1 .34 2.54 1.84 1.84 0 0 1-2.51.36 2 2 0 0 1-.35-2.69 1.91 1.91 0 0 1 2.66-.08" style="fill:#fff"/></g><g style="opacity:.6000000000000001"><path d="m485.36 454.18 1.41-3.54-41.77-16.7s-2.28 0-2.65 1.44Z" style="fill:#fff"/></g><path d="M469.63 432.32c-.09.21.92.77 1.66 1.9s.91 2.25 1.14 2.25.44-1.35-.48-2.7-2.28-1.66-2.32-1.45m-5.34-.1c-.13.18.62.94.95 2.14s.12 2.23.33 2.31.87-1.05.44-2.53-1.62-2.14-1.72-1.92m-4.92 4.28c.17.13.92-.79.88-2.18s-.82-2.27-1-2.14.17 1 .19 2.16-.27 2.05-.07 2.16m12.85-9.09c0 .23 1.1.36 2.25 1s1.92 1.38 2.1 1.25-.37-1.27-1.74-2-2.64-.46-2.61-.25m3.26-4.66c0 .09.73.58 2.16.93a10.6 10.6 0 0 0 2.56.29 12 12 0 0 0 1.52-.11 3 3 0 0 0 .87-.23 1 1 0 0 0 .59-1.07 1.28 1.28 0 0 0-.71-.89 3.2 3.2 0 0 0-.86-.24 8.5 8.5 0 0 0-4.1.31c-1.4.49-2.09 1.13-2 1.2s.84-.33 2.19-.65a9.5 9.5 0 0 1 2.39-.25 10 10 0 0 1 1.41.16c.51.08.9.25.92.5s0 .13-.15.22a2.3 2.3 0 0 1-.64.16c-.49.08-1 .13-1.42.16a14 14 0 0 1-2.44-.11 15 15 0 0 0-2.29-.38" style="fill:#263238"/><path d="M475.62 423.17c.06.07.81-.51 1.48-1.83a7.7 7.7 0 0 0 .73-2.49 8 8 0 0 0 0-1.55 2 2 0 0 0-.9-1.69 1.1 1.1 0 0 0-1.17.21 2.8 2.8 0 0 0-.56.69 5.3 5.3 0 0 0-.64 1.45 5.5 5.5 0 0 0 0 2.63c.35 1.49 1.12 2.12 1.17 2.06a21 21 0 0 1-.62-2.16 5.5 5.5 0 0 1 .21-2.32 4.8 4.8 0 0 1 .58-1.23c.27-.43.6-.72.75-.6s.43.59.45 1a8.4 8.4 0 0 1 0 1.41 8.6 8.6 0 0 1-.52 2.33c-.49 1.32-1.06 2.01-.96 2.09" style="fill:#263238"/><path d="M511.44 332.2c2-.95 11.14-2.5 20.49 3.67 28 18.45 73.22 60.78 73.22 60.78l.75 9.57L559 409l-33-31.62-27.06 57c.59-.69-30.56-12.49-30.56-12.49s31.76-84.39 43.06-89.69" style="fill:#263238"/><path d="M548 409.64c1.91-.6 5.31-1.11 11.62-1.95 14.76-1.95 38-5.52 38-5.52l44.94-3.08 3.58 17.52c1.22 15.51-7.91 21.53-14.83 23.29-17.21 4.36-55.48 6.36-69.18 7.51-20 1.66-32-5.82-33.47-14.58-2.77-16.63 9.92-20.21 19.34-23.19" style="fill:#263238"/><path d="M536.34 414.56a3.6 3.6 0 0 0 .54-.3c.35-.2.84-.53 1.52-.88a35 35 0 0 1 5.94-2.54 44.3 44.3 0 0 1 9.37-2c3.6-.53 7.52-1.16 11.65-1.83 8.26-1.36 15.74-2.49 21.19-3.07 2.72-.31 4.93-.51 6.45-.64l1.76-.15a3 3 0 0 0 .61-.08 4 4 0 0 0-.61 0l-1.77.07c-1.53.09-3.74.24-6.47.52-5.46.52-13 1.6-21.22 3l-11.63 1.86a43.6 43.6 0 0 0-9.41 2.08 32.6 32.6 0 0 0-5.93 2.67 16 16 0 0 0-1.49.95 2.8 2.8 0 0 0-.5.34M521.84 352a5 5 0 0 0 .31 1c.24.62.56 1.52.93 2.65a60.5 60.5 0 0 1 2.19 9 61.4 61.4 0 0 1 .76 9.21v2.81a5 5 0 0 0 0 1 5.7 5.7 0 0 0 .14-1c.07-.66.13-1.62.16-2.81a52 52 0 0 0-.66-9.29 51.3 51.3 0 0 0-2.31-9c-.4-1.12-.76-2-1-2.62a6 6 0 0 0-.52-.95m48.34 53.39a7.4 7.4 0 0 0 1.46-1.81 7 7 0 0 0 1.15-2 7.4 7.4 0 0 0-1.46 1.81 7.2 7.2 0 0 0-1.15 2" style="fill:#455a64"/><path d="M580.07 281.23s-7.23-2.83-18.35 3.69c-12 7-59.06 38.46-59.06 38.46a130.7 130.7 0 0 0-8.44 36.76c-.61 9.4-.13 12.51-.13 12.51l14-.61s11.8-38 16.52-40.88l45-18.22Z" style="fill:#ffbe9d"/><path d="M522.63 396.71s1.44 3.79.51 4.5-1.56 1.73-3.18 0-3.32-3.64-3.32-3.64a3.66 3.66 0 0 1-2.22 1.79c-1.38.22-.09.44.2.58s3.87 1.93 4.07 4-1.09 1.57-1.09 1.57l-8.63-2.9s2 2.87-.38 4.64l-8.6-7.84-5-16.06-1.09-12.89 15.06.94c-.8-.05 6.81 8 7.73 9.34s2.77 7.75 2.77 7.75" style="fill:#ffbe9d"/><path d="M519.48 389.32a45.6 45.6 0 0 0 3.15 7.71 23 23 0 0 0-1.4-3.93 23.6 23.6 0 0 0-1.75-3.78m-6.05 3.32a10.7 10.7 0 0 0 1.53 2.73 10.8 10.8 0 0 0 2 2.43 16.7 16.7 0 0 0-1.65-2.64 16.5 16.5 0 0 0-1.88-2.52m-5.25.7a3.8 3.8 0 0 0 .38 1.26 8.2 8.2 0 0 0 1.65 2.72 8.6 8.6 0 0 0 2.66 1.76 3.9 3.9 0 0 0 1.23.44 5 5 0 0 0-1.11-.68 10.9 10.9 0 0 1-2.51-1.78 10 10 0 0 1-1.68-2.57 5.2 5.2 0 0 0-.62-1.15m-5.76 2.09a3.9 3.9 0 0 0 .3 1.49 9.1 9.1 0 0 0 1.9 3.15 9 9 0 0 0 3 2.13 3.8 3.8 0 0 0 1.47.41c0-.06-.54-.23-1.35-.65a10.7 10.7 0 0 1-2.84-2.15 10.4 10.4 0 0 1-1.93-3c-.36-.81-.49-1.4-.55-1.38" style="fill:#eb996e"/><path d="m574.16 370.37-7.27-53.74L578 280.18s24 1.19 34.1 3.32c3.65.78 24.16 11 28.3 23.68s4.14 31.91 3.9 45.5c-.24 13.77 5 50.1.07 54.22" style="fill:#455a64"/><path d="m535 299 5.55 27.5 29.54-9.52 10.43-36.62a28 28 0 0 0-15.61 2.85C557.05 287.23 535 299 535 299" style="fill:#455a64"/><path d="M574.46 361.06a11.6 11.6 0 0 1 2.91-3.83 94.77 94.77 0 0 1 50.16-25.46l1.38 1.35-13.21 16c-2.18 2.64-5 5.54-8.36 5.13-1.41-.17-2.74-.92-4.16-.87-2.22.09-3.82 2.05-5.32 3.69a29.83 29.83 0 0 1-23.87 9.4 12.55 12.55 0 0 1 .47-5.41" style="opacity:.30000000000000004"/><path d="M573.82 366.85c.56 9.45-2 24.51-.78 33.9 7-1.67 18.42-.82 24.59 2.85 3.2 1.91 6 4.47 9.43 6 5.73 2.6 12.39 2 18.53.67s12.2-3.42 18.49-3.65l-22.39-22.91Z" style="fill:#455a64"/><path d="M577.65 381.46a9 9 0 0 0 .29 2.13 12.5 12.5 0 0 0 .86 2.37 17 17 0 0 0 1.78 2.83 23.6 23.6 0 0 0 6.6 5.61c2.8 1.71 6.1 3.14 9.41 4.9a41 41 0 0 1 4.66 2.85c1.44 1 2.81 2.06 4.15 3a30 30 0 0 0 4 2.37 15.8 15.8 0 0 0 3.86 1.26 10.74 10.74 0 0 0 5.8-.4 6.3 6.3 0 0 0 1.87-1.06 15 15 0 0 1-1.92.92 10.8 10.8 0 0 1-5.7.27 15.2 15.2 0 0 1-3.77-1.28 30 30 0 0 1-3.94-2.37c-1.33-.93-2.69-2-4.14-3a39 39 0 0 0-4.69-2.89c-3.33-1.77-6.62-3.19-9.41-4.86a23.8 23.8 0 0 1-6.56-5.48 16.2 16.2 0 0 1-1.81-2.76 14 14 0 0 1-.91-2.31c-.36-1.34-.39-2.11-.43-2.1m2.99-14.46a9.5 9.5 0 0 0 .63 1.06c.43.67 1.07 1.63 1.9 2.79a100.2 100.2 0 0 0 14.83 16.5c1.06.95 1.94 1.69 2.56 2.19a7.6 7.6 0 0 0 1 .75 9 9 0 0 0-.89-.86c-.59-.53-1.44-1.31-2.48-2.28-2.07-1.93-4.87-4.69-7.76-7.91s-5.31-6.31-7-8.59c-.85-1.14-1.52-2.07-2-2.71a7 7 0 0 0-.79-.94m-14.54-62a7 7 0 0 0 0 1.07c0 .69 0 1.69.09 2.92.11 2.46.36 5.85.78 9.58s.87 7.11 1.22 9.54c.16 1.17.3 2.14.41 2.89a7 7 0 0 0 .17 1.05 4.4 4.4 0 0 0 0-1.07c-.05-.69-.16-1.68-.3-2.9-.29-2.51-.68-5.85-1.1-9.55s-.71-7.11-.9-9.56c-.08-1.17-.15-2.15-.21-2.9a5.2 5.2 0 0 0-.16-1.07m.36-19.63a5.2 5.2 0 0 0-.48 1.52 22.5 22.5 0 0 0-.54 3.8 21.5 21.5 0 0 0 .13 3.84 6 6 0 0 0 .31 1.56c.12 0-.22-2.42-.06-5.38s.75-5.31.64-5.34" style="fill:#263238"/><path d="M600 388.67c3.86 2.9 7.24 6 11.21 8.88a27.56 27.56 0 0 1-16.55-7.26c-4.47-4-7.6-9.1-8.27-14.93Z" style="opacity:.30000000000000004"/><path d="M618.22 339.74s-45.39 28.81-52.07 29.35c-14.46 1.16-41.56-37.93-41.56-37.93l8.74-10.41s30.19 23.11 32.35 22.94c4.29-.34 34.94-23 34.94-23Z" style="fill:#ffbe9d"/><path d="M533.81 321s-3.07-9.72-4.76-11.16c-.63-.54-1.53-1.35-2.4-2.14a5.35 5.35 0 0 0-6.25-.71l-1.22.69s-2.8-1.24-3.73-.27a25 25 0 0 0-2.42 3.56 8 8 0 0 0-3.48 1.4 10.7 10.7 0 0 0-1.68 1.54s-2.41.81-3.06 2.54l-.65 1.74s-2.11 1.74-1.84 3.74.89 1.28.89 1.28l2.13-.06s12.93 7.19 15.55 7.66a18.3 18.3 0 0 0 4.3.33Z" style="fill:#ffbe9d"/><path d="M502.66 323.38a2.5 2.5 0 0 1 .77-.14 12 12 0 0 1 2.32.19c1.64 1 4.06 2.35 7.11 4 1.54.81 3.22 1.7 5.11 2.53a10.4 10.4 0 0 0 1.49.54c.53.12 1.06.2 1.6.3 1.08.17 2.2.32 3.36.43l-.12-.06c3.28 4.31 7 9.24 11.17 14.29 3.66 4.43 7.32 8.53 10.87 12 1.77 1.77 3.51 3.38 5.18 4.85a35.5 35.5 0 0 0 5 3.58 30.5 30.5 0 0 0 4.52 2.36 13.6 13.6 0 0 0 3.75.91 6.5 6.5 0 0 0 2.42-.23 4 4 0 0 0 .59-.24l.19-.11a6.15 6.15 0 0 1-3.19.43 13.8 13.8 0 0 1-3.68-1 30 30 0 0 1-4.46-2.39 37 37 0 0 1-5-3.59 123 123 0 0 1-5.13-4.85c-3.53-3.52-7.17-7.62-10.83-12.05-4.15-5-7.89-9.95-11.19-14.25v-.06h-.08c-1.14-.1-2.26-.25-3.34-.42-.54-.08-1.07-.17-1.58-.28a11 11 0 0 1-1.45-.51c-1.87-.81-3.56-1.69-5.1-2.48-3.06-1.61-5.5-3-7.16-3.89a10.7 10.7 0 0 0-2.34-.11 2 2 0 0 0-.59.12q-.22.11-.21.13M513 310.94a7 7 0 0 0 1-1.37c.27-.46.67-.92 1.06-1.48a1.9 1.9 0 0 1 1.8-.81 11 11 0 0 1 2.19.31 4 4 0 0 1 1.62.7 9 9 0 0 0 1 .73c.26.15.42.19.43.17s-.51-.37-1.27-1.11a4 4 0 0 0-1.7-.83 9.8 9.8 0 0 0-2.26-.35 2.22 2.22 0 0 0-2.09 1 18 18 0 0 0-1 1.56 8 8 0 0 0-.78 1.48" style="fill:#eb996e"/><path d="M511.57 311.4c0 .11 1.06-.24 2.35-.14a22 22 0 0 1 2.3.45 4.35 4.35 0 0 0-4.65-.31m-6.28 4.34c.06 0 .26-.35.78-.75a4.24 4.24 0 0 1 2.37-.84 10 10 0 0 1 2.59.29 3.2 3.2 0 0 0 1.1.18 3.1 3.1 0 0 0-1-.44 7.8 7.8 0 0 0-2.68-.41 4 4 0 0 0-2.53 1 1.67 1.67 0 0 0-.63.97m-1.51 2.95c.06 0 .12-.24.38-.5a1.85 1.85 0 0 1 1.27-.53 4.5 4.5 0 0 1 1.46.26c.38.12.62.19.64.14s-.18-.2-.54-.39a3.5 3.5 0 0 0-1.57-.4 1.91 1.91 0 0 0-1.42.73c-.3.4-.26.69-.22.69m61.46 34.77c.11 0 0-2.2.09-4.89s.25-4.88.14-4.89a29.7 29.7 0 0 0-.23 9.78m-39.73-46.59s.31.16.8.54a11.7 11.7 0 0 1 1.89 1.82c1.51 1.66 2.41 4.67 3.78 7.81l1.67 4c1.87 1.44 3.47 2.66 4.61 3.51l1.34 1a2.7 2.7 0 0 0 .51.32 2.4 2.4 0 0 0-.44-.42l-1.28-1.06c-1.1-.9-2.67-2.16-4.52-3.62l.06.07-1.65-4c-.66-1.57-1.29-3.07-1.86-4.45a11.8 11.8 0 0 0-2.07-3.38 6.54 6.54 0 0 0-2.84-2.14" style="fill:#eb996e"/><path d="M639.51 328.07 606 351.35l-22-21.81s30.48-33.49 36.92-32.55 23.19 2.35 18.59 31.08" style="fill:#455a64"/><path d="m612.75 303.21-.18.05a2.4 2.4 0 0 0-.51.24 15 15 0 0 0-1.8 1.21c-1.51 1.15-3.62 2.93-6.2 5.24-5.17 4.63-12.25 11.37-20.31 19.34l-.13.13.13.12L595.32 341l10.46 10.32.1.1.12-.07a139 139 0 0 0 13.32-9.35c1.95-1.5 3.75-3 5.42-4.32s3.33-2.44 4.81-3.48 2.8-2 3.89-2.91a21.4 21.4 0 0 0 2.57-2.56 13 13 0 0 0 .8-1 8 8 0 0 0 .53-.8c.13-.21.22-.38.3-.5s.1-.18.09-.18l-.12.16-.32.49c-.14.22-.33.47-.56.77a11 11 0 0 1-.82 1 22.5 22.5 0 0 1-2.59 2.5c-1.09.91-2.41 1.85-3.9 2.86s-3.16 2.11-4.86 3.45-3.48 2.8-5.43 4.29a142 142 0 0 1-13.31 9.23h.22l-10.45-10.34L584 329.29v.25c8-8 15.1-14.74 20.21-19.42 2.56-2.33 4.64-4.14 6.13-5.31a19 19 0 0 1 1.75-1.26 5 5 0 0 1 .66-.34m10.39-2.87a30 30 0 0 1 3.37.52 15.17 15.17 0 0 1 11.16 10.86 29 29 0 0 1 .61 3.35 3 3 0 0 0 0-.92 13 13 0 0 0-.37-2.5 15 15 0 0 0-4.07-7.18 15.23 15.23 0 0 0-7.29-3.88 14.4 14.4 0 0 0-2.51-.3 4.2 4.2 0 0 0-.9.05m-12.22-41.13a87.6 87.6 0 0 0 4.82-14.31 30.66 30.66 0 0 0-.16-15c-.21-.73-2.14-5.68-2.91-5.66-.54 0 .54 4.58.23 5-2.93 4.31-4 9.66-4 14.87a68.6 68.6 0 0 0 2 15" style="fill:#263238"/><path d="M580.78 285.1c.21-3.55.36-6.36.33-6.36s-12.09-2.08-12.05-14.21c0-5.85 1.05-17.91 2.11-28.81A22.6 22.6 0 0 1 594 215.3h1.17c12.6.94 18.85 12.17 17.56 24.75l-3.12 44.12-9.26 9.6a11.41 11.41 0 0 1-19.6-8.69Z" style="fill:#ffbe9d"/><path d="M581.11 278.74a29.24 29.24 0 0 0 15.89-4.41s-4 8.76-16.08 7.47Z" style="fill:#eb996e"/><path d="M574 245.74a1.73 1.73 0 0 0 1.64 1.77 1.66 1.66 0 0 0 1.81-1.53 1.74 1.74 0 0 0-1.64-1.78 1.66 1.66 0 0 0-1.81 1.54m-.32-4.95c.21.22 1.54-.73 3.4-.69s3.22 1 3.42.76-.11-.51-.7-1a4.7 4.7 0 0 0-2.73-.89 4.57 4.57 0 0 0-2.71.83c-.58.48-.78.88-.68.99m17.7 5.62a1.74 1.74 0 0 0 1.65 1.78 1.66 1.66 0 0 0 1.81-1.54 1.73 1.73 0 0 0-1.64-1.77 1.66 1.66 0 0 0-1.82 1.53m.54-4.58c.21.23 1.54-.72 3.41-.68s3.21 1 3.41.76-.1-.51-.7-.95a4.7 4.7 0 0 0-2.73-.89 4.57 4.57 0 0 0-2.71.83c-.6.43-.78.83-.68.93M585 256a13 13 0 0 0-3-.59c-.48-.06-.93-.16-1-.49a2.4 2.4 0 0 1 .34-1.4c.47-1.14.95-2.34 1.47-3.6 2-5.13 3.52-9.35 3.31-9.43s-2 4-4.06 9.14c-.5 1.26-1 2.47-1.41 3.62a2.77 2.77 0 0 0-.28 1.87 1.23 1.23 0 0 0 .77.71 3.8 3.8 0 0 0 .81.12 12 12 0 0 0 3.05.05m7.15-21.73c.17.51 2 .3 4.22.6s3.94.93 4.24.48c.13-.22-.17-.7-.87-1.2a7.46 7.46 0 0 0-6.45-.82c-.81.31-1.22.67-1.14.94m-17.6.33c.32.43 1.61 0 3.16 0s2.84.33 3.15-.11c.14-.21-.06-.64-.63-1a4.58 4.58 0 0 0-5.08.08c-.55.43-.74.82-.6 1.03" style="fill:#263238"/><path d="M611.62 249c.21-.09 8.37-2.33 8 6s-8.63 6.17-8.64 5.93.64-11.93.64-11.93" style="fill:#ffbe9d"/><path d="M613.64 257.91s.14.1.37.23a1.46 1.46 0 0 0 1.08.07c.89-.28 1.7-1.63 1.81-3.12a4.7 4.7 0 0 0-.31-2.09 1.65 1.65 0 0 0-1-1.16.74.74 0 0 0-.87.36c-.12.22-.08.39-.12.4s-.17-.15-.09-.48a.9.9 0 0 1 .35-.51 1.1 1.1 0 0 1 .81-.17 2 2 0 0 1 1.45 1.36 5 5 0 0 1 .39 2.33c-.14 1.67-1.07 3.19-2.28 3.48a1.55 1.55 0 0 1-1.31-.29c-.28-.21-.31-.4-.28-.41" style="fill:#eb996e"/><path d="M577.31 222.3c-1.3-.82 3-4.93 6.35-6.24 5.11-2 12.79-2.93 17.31-1.37 5.43 1.89 9.87 4.9 12.36 10.09a32.66 32.66 0 0 1 2.7 16.84 9.94 9.94 0 0 1-1.45 5c-1.26 1.76-3.55 2.79-3.59 5.32a3.5 3.5 0 0 1-1 2.48c-1.61 1.53-3.37-.09-4.14-1.66-1.63-3.35-1.62-7.23-1.57-11a24.3 24.3 0 0 1 1-7.84c.48-1.36 1.21-2.63 1.61-4a5 5 0 0 0-.35-4.17 5.6 5.6 0 0 0-.63-.72 8.66 8.66 0 0 0-8.48-2.12c-4.75 1.39-12.86 3.4-14.85 1.7-2.86-2.45-3.49-4-3.49-4Zm5 39.44c0 .14.28.45 1 .66a4.77 4.77 0 0 0 2.77-.06 4.85 4.85 0 0 0 2.29-1.54c.44-.57.54-1 .41-1.1s-1.29 1-3 1.55-3.34.19-3.47.49" style="fill:#263238"/><path d="M494.17 426.78c-.24-6.58 1.11-7.65 1.85-8.86s1.28-1.87 1.3-3.3.3-7.64.36-9.63.71-5 .47-6a2 2 0 0 1 0-.19 3.53 3.53 0 0 1 2.52-.6c.19 0 .36.07.52.11a2.45 2.45 0 0 0 1.32.07l.58-.17a3.1 3.1 0 0 1 1.21-.21 2.4 2.4 0 0 1 .75.19c0 .17-.06.39-.11.65-.2 1 .6 4 .73 5.95s.71 8.18.78 9.6.67 2.08 1.45 3.24 2.18 2.18 2.23 8.77.28 21.24.28 21.24v2.12a6.9 6.9 0 0 1-1.18 4 3.4 3.4 0 0 1-2.56 1l-3.89.1-3.88.07a3.55 3.55 0 0 1-2.46-.76c-1.66-1.55-1.53-4.2-1.58-6.27-.03.1-.45-14.53-.69-21.12" style="fill:#455a64"/><path d="m497.25 418.63.27-.43a6.25 6.25 0 0 0 1.23-3.56c0-.75.1-2.91.18-5v-.05c.07-1.78.14-3.63.17-4.57 0-.31 0-.66.07-1l5-.11c0 .36.09.71.12 1 .06.93.22 2.77.37 4.55v.05c.18 2.09.36 4.25.4 5a6.24 6.24 0 0 0 1.44 3.49c.1.13.19.27.29.41s.22.31.34.47c.68.92 1.62 2.18 1.66 7.55 0 2.37 0 4.75.07 7.12.06 4.17.08 8.35.19 12.52 0 1.7.15 3.33-.79 4.84s-3 1.33-4.34 1.38a37 37 0 0 1-4.61-.06 3.9 3.9 0 0 1-2.19-.79c-1-.91-.86-3.38-.89-4.61-.1-3.11-.18-6.23-.28-9.34-.11-3.59-.22-7.18-.35-10.77-.19-5.36.69-6.66 1.33-7.61.12-.11.22-.32.32-.48" style="fill:#455a64"/><path d="m505.52 442.2 4.93-.12-.35-14.79-4.94.12a7.4 7.4 0 0 0-7.22 7.57 7.4 7.4 0 0 0 7.58 7.22" style="fill:#263238"/><path d="m498.79 399.8 6-.14a1.05 1.05 0 0 0 1-1.08 1.05 1.05 0 0 0-1.07-1l-6.05.14a1.05 1.05 0 0 0-1 1.08 1 1 0 0 0 1.12 1" style="fill:#455a64"/><path transform="rotate(-179.23 357.188 402.908)" style="fill:#455a64" d="M350.96 368.61h12.46v68.59h-12.46z"/><path transform="rotate(-89.23 383.695 400.005)" style="fill:#455a64" d="M377.47 369.06h12.46v61.89h-12.46z"/><path transform="rotate(-179.23 408.376 402.944)" style="fill:#455a64" d="M402.15 369.3h12.46v67.29h-12.46z"/><path transform="rotate(-179.23 384.604 364.047)" style="fill:#455a64" d="M340.87 355.92h87.47v16.24h-87.47z"/><path d="M281.5 255.55s-1.87-4-5.27-5.64-8.25-.68-9.6-2.37-6.55-3.75-7.65-2.07-.73 4.09 2.79 5.22a42.6 42.6 0 0 1 6.64 2.86s-22 7.09-23.33 8.12-2.68 2.05-2 3.3 4.74-.47 4.74-.47l9 1.12a31.3 31.3 0 0 0 8.17 2.69c3.94.57 8.73-1.24 8.73-1.24l9.31.79s4.09-8.62-1.53-12.31" style="fill:#c17560"/><path d="M248.22 264.46c.05 0 .05-.22.16-.55a2.38 2.38 0 0 1 .9-1.16 8.15 8.15 0 0 1 4.89-1 21.8 21.8 0 0 1 5.05 1.09 10.3 10.3 0 0 0 2.1.58 8 8 0 0 0-2-1 17.1 17.1 0 0 0-5.14-1.27 7.82 7.82 0 0 0-5.18 1.21 2.45 2.45 0 0 0-.86 1.42c-.03.47.05.68.08.68m7.19-3.46a22.9 22.9 0 0 0 6.86-1.92 22.7 22.7 0 0 0-6.86 1.92m10.9-4.5a5.27 5.27 0 0 0-2.86 5.85 18.6 18.6 0 0 1 .93-3.17 18.3 18.3 0 0 1 1.93-2.68" style="fill:#7c4236"/><path style="fill:#3cf" d="m405.63 209.78 17.38 4.93.87 37.72-1.01 74.48-73.21-3.85 5-91.26 7.59-15.93 14.75-3.92z"/><path d="M446.31 270.5s-4.73-39.28-8.11-44.44c-5-7.61-15.19-11.35-15.19-11.35l-1 41.35s3.5 42.87 4.5 46.32 7.81 8 13.14 7.77 11-2.86 11.24-6.37a36 36 0 0 1 1.67-7.69Zm-160.87-16.39 21.75 3.36a15.7 15.7 0 0 1 8.19 2c3.69 2.29 11.3-.82 11.3-.82l12.41-11.37s9.3-25.1 14.31-27.89c6-3.36 9.77-3.77 9.77-3.77l-6.25 54.51-15.38 15.28s-13.1 2.69-17 1.35S279.8 270 279.8 270Z" style="fill:#3cf"/><path d="M353.32 231.05a3.5 3.5 0 0 0-.07.69q0 .75-.09 1.95c-.07 1.77-.16 4.21-.26 7.2l-.85 23.74c-.33 9.24-.57 17.68-.68 23.76-.06 3-.08 5.5-.08 7.2v2a3.4 3.4 0 0 0 0 .69 3.4 3.4 0 0 0 .07-.68c0-.51.06-1.16.1-2 .06-1.77.15-4.21.26-7.2.22-6.14.51-14.5.84-23.75s.58-17.67.68-23.75c.06-3 .09-5.5.09-7.2v-2a2.7 2.7 0 0 0-.01-.65m-28.43 28.5c-.07.07.78.87 2 2.3a28 28 0 0 1 3.86 6.1 28.5 28.5 0 0 1 2.16 6.89c.32 1.83.38 3 .48 3a2.2 2.2 0 0 0 .06-.82 16 16 0 0 0-.14-2.23 24.3 24.3 0 0 0-6.12-13.2 16.5 16.5 0 0 0-1.6-1.55c-.44-.35-.68-.52-.7-.49m101.29-17.77a3 3 0 0 1 0 .67c0 .49-.09 1.13-.16 1.92-.16 1.72-.38 4.11-.64 7-.53 5.94-1.16 14.16-1.6 23.25s-.6 17.33-.65 23.29v8.98a3.4 3.4 0 0 1 0 .68 3 3 0 0 1-.06-.67c0-.5-.05-1.13-.08-1.92-.06-1.67-.1-4.09-.12-7.07-.05-6 .06-14.22.49-23.32s1.13-17.32 1.75-23.25c.31-3 .59-5.37.81-7 .1-.78.19-1.41.26-1.9a3 3 0 0 1 0-.66" style="fill:#263238"/><path d="M410.43 279.49a10.4 10.4 0 0 1-.72-1.39 18 18 0 0 1-1.27-4.32 18.4 18.4 0 0 1 .25-7.11c.31-1.37.87-2.75 1.32-4.25a8.6 8.6 0 0 0 .41-4.79 4 4 0 0 0-1.39-2.09 4.7 4.7 0 0 0-2.48-.91 6.36 6.36 0 0 0-5.16 2.06 11.46 11.46 0 0 0-2.5 5.63c-.41 2.13-.44 4.38-.65 6.68a15.46 15.46 0 0 1-1.95 6.87 9 9 0 0 1-2.62 2.67 6.12 6.12 0 0 1-3.67 1.06 5.45 5.45 0 0 1-3.55-1.6 8.1 8.1 0 0 1-2-3.39 10.4 10.4 0 0 1-.46-4 20 20 0 0 1 .8-3.93 64 64 0 0 0 2.21-7.53 8.7 8.7 0 0 0-.22-3.71 3.72 3.72 0 0 0-2.31-2.53 4.3 4.3 0 0 0-3.39.45 6.63 6.63 0 0 0-2.43 2.5 18.3 18.3 0 0 0-1.44 3.23c-.4 1.11-.77 2.21-1.09 3.31a58 58 0 0 0-1.55 6.53c-.38 2.13-.65 4.33-1.78 6.15a6.2 6.2 0 0 1-2.22 2.17 4.2 4.2 0 0 1-3 .46 5.2 5.2 0 0 1-2.48-1.45 9 9 0 0 1-1.57-2.22 17.25 17.25 0 0 1-1.52-9.24 18.6 18.6 0 0 1 2.05-6.81 17 17 0 0 1 2.58-3.68c.35-.39.65-.64.84-.83a1.6 1.6 0 0 1 .3-.26l-.27.3c-.17.2-.46.46-.79.86a18 18 0 0 0-2.48 3.7 18.8 18.8 0 0 0-1.94 6.75 17.1 17.1 0 0 0 1.57 9.07 8.7 8.7 0 0 0 1.53 2.12 4.65 4.65 0 0 0 2.29 1.32 3.76 3.76 0 0 0 2.67-.43 5.7 5.7 0 0 0 2.05-2c1.06-1.71 1.32-3.85 1.69-6a59 59 0 0 1 1.55-6.58c.32-1.12.69-2.23 1.09-3.35a19 19 0 0 1 1.47-3.31 7.16 7.16 0 0 1 2.61-2.69 4.8 4.8 0 0 1 3.8-.49 4.25 4.25 0 0 1 2.64 2.86 9 9 0 0 1 .24 3.93 61 61 0 0 1-2.22 7.6 19 19 0 0 0-.78 3.83 10 10 0 0 0 .43 3.77 7.7 7.7 0 0 0 1.87 3.19 5 5 0 0 0 3.22 1.45 5.63 5.63 0 0 0 3.37-1 8.3 8.3 0 0 0 2.47-2.51 14.86 14.86 0 0 0 1.89-6.64c.22-2.28.25-4.55.68-6.73a11.85 11.85 0 0 1 2.63-5.83 6.8 6.8 0 0 1 5.51-2.17 5.14 5.14 0 0 1 2.69 1 4.36 4.36 0 0 1 1.5 2.3 9 9 0 0 1-.44 5c-.47 1.51-1 2.88-1.36 4.22a18.2 18.2 0 0 0-.33 7 18.6 18.6 0 0 0 1.17 4.31c.4.93.67 1.41.64 1.42" style="fill:#fff"/><path d="m329.49 400.2.66 36.49-45.4 1.06c.17-4.35 23.45-13.6 23.45-13.6l-1.38-23.36Z" style="fill:#3cf"/><g style="opacity:.6000000000000001"><path d="M322.2 421.86a1.86 1.86 0 0 1 1.33 2.09 1.78 1.78 0 0 1-2.06 1.33 2 2 0 0 1-1.4-2.21 1.86 1.86 0 0 1 2.3-1.16" style="fill:#fff"/></g><g style="opacity:.6000000000000001"><path d="m330.15 436.69-.21-3.67-43.45 2.38s-2 .93-1.74 2.35Z" style="fill:#fff"/></g><path d="M307.46 423.94c0 .22 1.13.29 2.23 1s1.71 1.61 1.91 1.51-.15-1.36-1.51-2.17-2.68-.54-2.63-.34m-4.71 2.06c-.05.21.92.57 1.69 1.49s1 1.91 1.24 1.89.33-1.27-.65-2.4-2.28-1.17-2.28-.98m-2.58 5.78c.21 0 .49-1.07-.11-2.27s-1.64-1.66-1.73-1.48.56.82 1 1.82.67 1.91.84 1.93m7.57-13.2c.1.2 1.11-.13 2.36-.08s2.24.43 2.35.24-.84-1-2.32-1-2.5.67-2.39.84m.95-5.41a4.4 4.4 0 0 0 2.28-.07 10.5 10.5 0 0 0 2.36-.78 12 12 0 0 0 1.29-.73 2.7 2.7 0 0 0 .67-.55 1 1 0 0 0 .08-1.18 1.23 1.23 0 0 0-1-.48 3 3 0 0 0-.85.13 9 9 0 0 0-1.4.52 7.9 7.9 0 0 0-2.06 1.43c-1 1-1.37 1.83-1.3 1.87s.6-.63 1.66-1.46a9 9 0 0 1 2-1.19 8 8 0 0 1 1.29-.43c.48-.14.89-.15 1 .06s.05.11-.05.25a2.1 2.1 0 0 1-.49.4 12 12 0 0 1-1.19.72 12 12 0 0 1-2.18.89 17 17 0 0 0-2.11.6" style="fill:#263238"/><path d="M309 413.48a3.66 3.66 0 0 0 .55-2.21 7.34 7.34 0 0 0-1-3.85 1.89 1.89 0 0 0-1.48-1.12 1.07 1.07 0 0 0-.93.66 3.3 3.3 0 0 0-.22.84 5.2 5.2 0 0 0 0 1.53 5.3 5.3 0 0 0 1 2.33c.92 1.15 1.85 1.4 1.87 1.32s-.72-.52-1.42-1.64a5.3 5.3 0 0 1-.77-2.12 4.8 4.8 0 0 1 0-1.31c.06-.49.23-.88.42-.84s.61.35.81.73a7.6 7.6 0 0 1 .59 1.22 8 8 0 0 1 .49 2.26c.18 1.33-.04 2.17.09 2.2" style="fill:#263238"/><path d="m397.73 400.2-13.61 33.86 42.05 17.15c1.39-4.11-17.08-21-17.08-21l9.61-21.34Z" style="fill:#3cf"/><g style="opacity:.6000000000000001"><path d="M396.83 423a1.86 1.86 0 0 0-2 1.48 1.77 1.77 0 0 0 1.44 2 2 2 0 0 0 2.1-1.57c0-.91-.83-2-1.73-1.9" style="fill:#fff"/></g><g style="opacity:.6000000000000001"><path d="m384.12 434.06 1.5-3.36 39.75 17.7s1.54 1.58.8 2.81Z" style="fill:#fff"/></g><path d="M409.86 430.22c-.09.21-1.15-.12-2.43.13s-2.17.89-2.33.73.63-1.22 2.19-1.49 2.71.46 2.57.63m3.67 3.63c0 .21-1.07.2-2.12.78s-1.63 1.43-1.83 1.33.14-1.3 1.47-2 2.55-.31 2.48-.11m.35 6.3c-.2 0-.07-1.18.91-2.09s2.13-1 2.15-.76-.82.57-1.62 1.33-1.23 1.58-1.44 1.52m-2.37-15.03c-.16.15-1-.52-2.18-.91s-2.25-.4-2.28-.62 1.13-.6 2.53-.11 2.1 1.52 1.93 1.64m1.04-5.4a4.35 4.35 0 0 1-2.11-.87 10.3 10.3 0 0 1-1.92-1.58 10 10 0 0 1-.95-1.13 3.1 3.1 0 0 1-.44-.76 1 1 0 0 1 .36-1.13 1.22 1.22 0 0 1 1.09-.1 3 3 0 0 1 .74.43 8.4 8.4 0 0 1 1.13 1 8 8 0 0 1 1.42 2.06 3.74 3.74 0 0 1 .54 2.22c-.12 0-.33-.81-1-2a9 9 0 0 0-1.45-1.82 7.6 7.6 0 0 0-1.05-.87c-.4-.3-.78-.46-1-.31s-.09.09-.05.26a2 2 0 0 0 .32.55 11 11 0 0 0 .85 1.09 12 12 0 0 0 1.72 1.61 18 18 0 0 1 1.8 1.35" style="fill:#263238"/><path d="M412.16 419.9a3.53 3.53 0 0 1 .27-2.26 7.7 7.7 0 0 1 1.23-2.19 7.5 7.5 0 0 1 1.06-1.05 1.86 1.86 0 0 1 1.77-.52 1 1 0 0 1 .64.95 2.9 2.9 0 0 1-.09.86 5.1 5.1 0 0 1-.58 1.41 5.16 5.16 0 0 1-1.79 1.81 3 3 0 0 1-2.21.58 20 20 0 0 0 1.91-1 5.2 5.2 0 0 0 1.47-1.71 4.7 4.7 0 0 0 .46-1.23c.11-.47.09-.9-.09-.92a1.3 1.3 0 0 0-1 .39 7.3 7.3 0 0 0-1 .92 8.5 8.5 0 0 0-1.26 1.94c-.57 1.18-.67 2.04-.79 2.02" style="fill:#263238"/><path d="M409 319.23s17.06-14.72 24.45-14.5 31.68-1.06 21.06 32.43c-10.72 33.76-29.79 85.34-30.26 83.48l-31.43-14.33 13.5-48s-43.1-.1-51.41-1.3-23.72-12.37-23.72-12.37l1.65 61-33-2.29S296.21 330 295.07 315c-1-13.11 13.93-27.61 28.89-24.09 9.78 2.29 44.48 27.5 44.48 27.5Z" style="fill:#263238"/><path d="M330.52 312.19a9 9 0 0 0 0 1.6c.05 1.12.1 2.58.17 4.34.12 3.66.17 8.73.18 14.32s.05 10.68.2 14.35c.06 1.84.15 3.32.24 4.34a10 10 0 0 0 .18 1.59 8.3 8.3 0 0 0 0-1.6c0-1.12 0-2.58-.06-4.34v-14.34c0-5.55-.13-10.67-.35-14.34-.11-1.84-.23-3.32-.34-4.34a8.3 8.3 0 0 0-.22-1.58" style="fill:#455a64"/><path d="M331.47 340.73A6.3 6.3 0 0 0 333 339a19.7 19.7 0 0 0 2.44-5 19.4 19.4 0 0 0 .95-5.43 6.4 6.4 0 0 0-.17-2.28 26.76 26.76 0 0 1-4.7 14.4Zm44.79 12.95c.06 0 .14-.83.41-2.31a30 30 0 0 1 1.82-6.11 31.3 31.3 0 0 1 4.88-8.05 30.2 30.2 0 0 1 8.94-7.22c7.23-4.06 13.59-8 18-11.17 2.22-1.55 4-2.89 5.13-3.87.59-.48 1-.89 1.31-1.16s.44-.42.43-.44-.67.51-1.88 1.43-3 2.21-5.21 3.72c-4.49 3-10.87 6.95-18.08 11a31.7 31.7 0 0 0-5.05 3.37 32.3 32.3 0 0 0-4 4 30.7 30.7 0 0 0-4.86 8.23 27.3 27.3 0 0 0-1.66 6.22 16 16 0 0 0-.18 1.74 2.6 2.6 0 0 0 0 .62m-11.18-35.85a9 9 0 0 0 .53 1.42c.39.89.9 2.2 1.49 3.83a68.5 68.5 0 0 1 4 26.62c-.08 1.73-.19 3.13-.29 4.1a8 8 0 0 0-.09 1.51 7 7 0 0 0 .3-1.48c.17-1 .34-2.37.47-4.11a61.55 61.55 0 0 0-4-26.77c-.64-1.63-1.22-2.92-1.66-3.79a7.3 7.3 0 0 0-.75-1.33m63.44-3.53a4 4 0 0 0-.46.29l-1.28.91-.92.66c-.32.25-.65.57-1 .89a24 24 0 0 0-2.38 2.26l-1.3 1.41c-.42.52-.83 1.07-1.27 1.64l-.67.86c-.22.31-.41.63-.62.95-.41.64-.86 1.29-1.27 2a62 62 0 0 0-4.37 9.51c-1.29 3.49-2.28 6.89-3.17 10s-1.64 5.87-2.3 8.22-1.22 4.22-1.63 5.51l-.44 1.5a2.2 2.2 0 0 0-.13.53 3 3 0 0 0 .2-.5c.13-.38.3-.87.52-1.48.45-1.28 1-3.16 1.74-5.48s1.49-5.12 2.39-8.2 1.9-6.46 3.19-9.93a62 62 0 0 1 4.32-9.46c.4-.69.84-1.34 1.24-2 .2-.32.39-.64.6-.94l.66-.87c.43-.56.83-1.12 1.24-1.64l1.27-1.41a26 26 0 0 1 2.32-2.29c.36-.32.67-.64 1-.9l.9-.69 1.23-1a2.3 2.3 0 0 0 .39-.35" style="fill:#455a64"/><path d="M409.38 318.93c-6.07 3.89-12.7 4.74-19.8 6-4.1.73-8.38 1.38-12.35.15-8.51-2.64-16.65-12.48-22.09-16l17.09-5.08Z" style="fill:#3cf"/><path d="M390.8 143h-1.2a23.25 23.25 0 0 0-22.93 21.65c-.78 11.24-1.5 23.67-1.35 29.69.29 12.47 12.79 14.27 12.79 14.27l-.09 5.09a15.15 15.15 0 0 0 15 15.43 15.15 15.15 0 0 0 15.35-14.75l1.18-46.38c.97-13-5.76-24.36-18.75-25" style="fill:#c17560"/><path d="M378 208.63a30.24 30.24 0 0 0 16.29-5s-3.74 9-16.2 8Z" style="fill:#7c4236"/><path d="M370.51 175.55a1.77 1.77 0 0 0 1.73 1.78 1.7 1.7 0 0 0 1.82-1.63 1.77 1.77 0 0 0-1.73-1.78 1.7 1.7 0 0 0-1.82 1.63m-1.09-4.79c.22.23 1.56-.79 3.48-.8s3.33.92 3.54.68-.13-.52-.75-1a5 5 0 0 0-2.84-.84 4.72 4.72 0 0 0-2.76.93c-.59.5-.78.92-.67 1.03m18.1 4.68a1.78 1.78 0 0 0 1.73 1.78 1.71 1.71 0 0 0 1.82-1.63 1.78 1.78 0 0 0-1.73-1.78 1.7 1.7 0 0 0-1.82 1.63m.75-4.54c.22.23 1.56-.78 3.48-.8s3.33.93 3.53.69-.12-.52-.74-1a4.86 4.86 0 0 0-2.84-.84 4.66 4.66 0 0 0-2.76.93c-.59.49-.78.92-.67 1.02m-6.8 14.3a12.3 12.3 0 0 0-3.12-.53c-.49 0-1-.14-1-.47a2.5 2.5 0 0 1 .31-1.46c.45-1.18.91-2.43 1.41-3.74 2-5.33 3.35-9.71 3.14-9.79s-2 4.19-3.92 9.52l-1.35 3.76a2.83 2.83 0 0 0-.23 1.93 1.22 1.22 0 0 0 .81.7 3.4 3.4 0 0 0 .83.11 12.7 12.7 0 0 0 3.12-.03m6.22-21.81c.19.52 2.1.25 4.35.5s4.08.84 4.38.37c.13-.23-.2-.72-.93-1.21a7.6 7.6 0 0 0-6.65-.66c-.84.34-1.24.76-1.15 1m-17.63 1.81c.34.43 1.66 0 3.25-.07s2.93.25 3.24-.2c.13-.23-.09-.66-.68-1.07a4.73 4.73 0 0 0-5.23.22c-.55.46-.73.92-.58 1.12" style="fill:#263238"/><path d="M367.8 159s3.2-7.85 6.95-9.72c4.54-2.26 6.56 2.73 10.89 1.46s8.66-3.43 13.14-.12c4.9 3.62 2.66 6.23 3 11.76 1.47 22.43 5.64 28.73 6.69 18.14.11-1.16 3.32-2.11 3.74-7 .54-6.35.7-14.06-.77-18.55-1.24-3.78-3.43-6.38-7.34-9.22-6.18-4.5-14.59-4.5-20.3-3.86s-16.63 7.28-16 17.11" style="fill:#263238"/><path d="M407.69 180.14a3.38 3.38 0 0 1 3.62-3.3c2.33.19 4.93 1.49 4.83 6.29-.17 8.54-8.7 6.6-8.71 6.36s.15-5.78.26-9.35" style="fill:#c17560"/><path d="M409.35 186.31s.15.11.39.23a1.53 1.53 0 0 0 1.12.05c.9-.32 1.69-1.73 1.76-3.27a4.74 4.74 0 0 0-.37-2.13 1.73 1.73 0 0 0-1.09-1.17.77.77 0 0 0-.89.39c-.12.24-.07.41-.11.42s-.18-.14-.11-.5a1 1 0 0 1 .35-.52 1.14 1.14 0 0 1 .83-.2 2.09 2.09 0 0 1 1.52 1.35 5 5 0 0 1 .47 2.39c-.09 1.72-1 3.31-2.25 3.64a1.62 1.62 0 0 1-1.35-.25c-.26-.22-.3-.41-.27-.43" style="fill:#7c4236"/><path d="M366.51 157.26c2.61 1.34 6.12-.07 7.46-2.67a4.18 4.18 0 0 0 6.28-1.83c1.43 1.49 3.88 1.36 5.77.54s3.5-2.18 5.4-3a9.72 9.72 0 0 1 6-.38c-1.26 2.22.67 5.2 2.57 8.4 1.09 1.85 2.48 3.76 3.41 5.7s3.27 3.36 5.25 2.54c1.63-.68 2.4-2.5 3-4.15 1.12-3 2.25-6.43 1.11-9.47-.77-2-2.36-4.86-4.16-6.09-2.84-1.94-3.69-1.43-3.69-1.43s-.4-3.42-3.05-5a6.48 6.48 0 0 0-6.49-.16s-2.08-4.05-7.67-3.65c-4.31.31-5.26 2.53-8.07 3-1.74.3-3.64-.36-5.24.39-2.7 1.27-2.52 5.39-4.75 7.36-1.23 1.08-3 1.35-4.25 2.42-2.24 2.02-1.49 6.14 1.12 7.48" style="fill:#263238"/><path d="M412.34 160.39a11 11 0 0 0-.85 2 4.1 4.1 0 0 1-1.28 1.81 3.67 3.67 0 0 1-2.61.48 6.3 6.3 0 0 1-2.62-.9 10 10 0 0 1-1.77-1.48 13.6 13.6 0 0 0-1.53-1.56 7.3 7.3 0 0 0 1.27 1.8 9 9 0 0 0 1.78 1.64 6.5 6.5 0 0 0 2.81 1 4 4 0 0 0 2.95-.62 4.23 4.23 0 0 0 1.34-2.06 8.4 8.4 0 0 0 .51-2.11" style="fill:#455a64"/><path d="M412.48 167a7.3 7.3 0 0 1-1.62 1.05 4.75 4.75 0 0 1-2 .31 5.8 5.8 0 0 1-2.4-.73 11.7 11.7 0 0 1-3.43-3.14 9.4 9.4 0 0 0-1.26-1.53 6.4 6.4 0 0 0 1 1.74 10.34 10.34 0 0 0 3.48 3.38 5.9 5.9 0 0 0 2.61.75 4.8 4.8 0 0 0 2.19-.46 2.7 2.7 0 0 0 1.43-1.37m.02 4.86a7.4 7.4 0 0 1-1.61.81 5.17 5.17 0 0 1-4.13-.64 11.9 11.9 0 0 1-3.18-3 8 8 0 0 0-1.2-1.43 6.1 6.1 0 0 0 .91 1.64 10.5 10.5 0 0 0 3.21 3.22 6 6 0 0 0 2.43.82A4.6 4.6 0 0 0 411 173c1.14-.43 1.55-1.12 1.5-1.14" style="fill:#455a64"/><path d="M387.11 188a10.8 10.8 0 0 1 .68 2.82 3.28 3.28 0 0 1-.76 2.57 3.56 3.56 0 0 1-2.66 1.46 4 4 0 0 1-4.15-3.1l-.48-2.09c1.93-.72 7.26-1.57 7.37-1.66" style="fill:#7c4236"/><path d="M382.3 194.33h.68a5.6 5.6 0 0 0 1.8-.11 3.47 3.47 0 0 0 2.09-1.42 4.59 4.59 0 0 0 .08-4.74l.28.12c-1.89.42-3.55.76-4.73 1a8.6 8.6 0 0 1-1.92.27 7.7 7.7 0 0 1 1.84-.59c1.17-.32 2.81-.72 4.69-1.17h.18l.09.15a4.6 4.6 0 0 1 .66 1.9 4.67 4.67 0 0 1-.78 3.39 3.76 3.76 0 0 1-2.41 1.5 5 5 0 0 1-1.9 0c-.43-.17-.66-.27-.65-.3" style="fill:#263238"/><path d="M437.22 280a6.6 6.6 0 0 0-2.86-.68 2.24 2.24 0 0 0-2.12 1.73 3.29 3.29 0 0 0 1.4 2.52l4.06 3.84Z" style="fill:#c17560"/><path d="M436.26 281.85c0-6.59 1.4-7.61 2.18-8.78s1.35-1.83 1.42-3.25.59-7.63.72-9.62.9-4.92.69-5.95v-.19a3.5 3.5 0 0 1 2.54-.5 3.6 3.6 0 0 1 .52.13 2.46 2.46 0 0 0 1.31.12c.2 0 .4-.1.59-.15a3.1 3.1 0 0 1 1.22-.16 2.7 2.7 0 0 1 .74.21c0 .17-.07.39-.14.65-.23 1 .45 4 .52 6s.39 8.2.42 9.63.58 2.09 1.32 3.29 2.1 2.26 1.9 8.85-.51 21.23-.51 21.23c0 .68 0 1.42-.07 2.12a6.88 6.88 0 0 1-1.33 4 3.36 3.36 0 0 1-2.6.93h-3.89l-3.88-.08a3.53 3.53 0 0 1-2.42-.84c-1.61-1.62-1.37-4.26-1.36-6.33-.03-.07.11-14.72.11-21.31" style="fill:#455a64"/><path d="M439.64 273.82c.1-.15.19-.29.29-.42a6.26 6.26 0 0 0 1.36-3.52c0-.74.21-2.9.37-5 .14-1.78.28-3.62.34-4.56 0-.31.06-.66.11-1l5 .08c0 .36.07.71.08 1 0 .94.11 2.78.2 4.57.1 2.1.2 4.26.22 5a6.26 6.26 0 0 0 1.25 3.56l.27.43c.1.16.21.31.32.48.65.94 1.54 2.24 1.38 7.61-.07 2.37-.14 4.74-.19 7.11-.1 4.17-.23 8.35-.28 12.52 0 1.7 0 3.34-1 4.81s-3 1.22-4.39 1.21a37 37 0 0 1-4.6-.22 4 4 0 0 1-2.16-.88c-1-.94-.73-3.41-.72-4.64 0-3.11.05-6.23.07-9.35q0-5.39.06-10.77c0-5.37.93-6.63 1.61-7.56.2-.15.31-.28.41-.46" style="fill:#455a64"/><path d="m447 297.68 4.94.07.2-14.8-4.94-.07a7.4 7.4 0 0 0-7.49 7.3 7.39 7.39 0 0 0 7.29 7.5" style="fill:#263238"/><path d="m441.89 255.06 6 .08a1.06 1.06 0 0 0 1.07-1 1.06 1.06 0 0 0-1-1.07l-6-.08a1.07 1.07 0 0 0-1.07 1 1.06 1.06 0 0 0 1 1.07" style="fill:#455a64"/><path d="M447.4 279.19s2.36-3.44 3.33-3.61 4.9-.58 5.32-.27 2.26 1.78 1.59 3.37a44 44 0 0 1-2.09 4 5.6 5.6 0 0 0 .57 1.93c.36.39 2.66 1.89 2.53 3.25a6.7 6.7 0 0 1-1.08 2.69s1.68 1.94 1.38 3.11a7.1 7.1 0 0 1-1.31 2.36 12.1 12.1 0 0 1-.41 4c-.54 1.17-6.14 4.14-6.14 4.14l-6.82-1.26s-1.91-1.73-.47-2.61 7.41-.77 7.41-.77l2.07-1.87s-10.35 1.33-11.25 1-2.55-.95-2-2.26 1.29-2.36 5.07-2.49 8.73-2.46 8.73-2.46v-.68s-8.81 2.07-10.1 2-2.8-.74-2.52-1.9.2-2.58 2.21-2.88a72 72 0 0 0 8.15-2.66l.07-3.83a3.84 3.84 0 0 1-2.81.47c-1.25-.48-1.83-2.16-1.43-2.77" style="fill:#c17560"/><path d="m209.3 331.13 9.18 21.46 29.26-9.95 2.15 13.95S220.24 375.4 215 375.2s-14.54-13-14.54-13Z" style="fill:#ffbe9d"/><path d="M242.68 346.21s10.74-8.65 11.64-9.12 4.93-1.95 6.62-1.92 12 1.43 12.62 2.77 1.81 3.45.91 4.59a19 19 0 0 1-1.34 1.58s1.25 2.27.38 3.95a7.4 7.4 0 0 1-2.21 2.54 6 6 0 0 1-3.13 1.95s.63 2.09-1.09 2.79-7-.57-7-.57a26.5 26.5 0 0 0-4.75 1.56c-2.85 1.2-8.06.59-8.06.59Z" style="fill:#ffbe9d"/><path d="M273.87 322.85c.39-9.62 0-12.21 0-12.21s-9.72-5.89-19.48-.17c0 0-3.76 20.21 8.54 22.84l.34 21.23s-6.65 2.62-6.38 3.73l15 .06c-.4-1.67-6.37-3.67-6.37-3.67l.14-21.63s7.83-.55 8.21-10.18" style="fill:#fff"/><path d="M273.87 322.85a.8.8 0 0 1 0 .25c0 .17 0 .41-.05.72a7.3 7.3 0 0 1-.14 1.17 11 11 0 0 1-.38 1.59 9.14 9.14 0 0 1-2.25 3.89 9.26 9.26 0 0 1-5.39 2.68l.11-.12c0 5.77 0 13.14-.09 21.63l-.12-.17a34 34 0 0 1 3.42 1.39 13 13 0 0 1 1.68.93 3.2 3.2 0 0 1 1.4 1.48l.08.23h-15.42v-.15a.69.69 0 0 1 .18-.58 2.4 2.4 0 0 1 .35-.36 6 6 0 0 1 .77-.54c.53-.34 1.09-.63 1.66-.92 1.14-.56 2.32-1.08 3.53-1.56l-.12.19c0-2.34-.08-4.82-.12-7.33-.08-4.76-.15-9.42-.22-13.9l.15.19a10.8 10.8 0 0 1-3.42-1.41 9.9 9.9 0 0 1-2.63-2.49 16.3 16.3 0 0 1-2.62-6.43 31 31 0 0 1-.53-6.57 41 41 0 0 1 .54-6.17v-.08h.06a20.7 20.7 0 0 1 5.49-2.11 20.3 20.3 0 0 1 5.39-.31 21 21 0 0 1 4.78 1 20.5 20.5 0 0 1 4 1.69v.05a48 48 0 0 1 .17 5.19c0 1.51-.05 2.79-.08 3.84s-.08 1.82-.11 2.38v.61a.6.6 0 0 1 0 .21V322c0-.56 0-1.36.05-2.39s0-2.33 0-3.83a51 51 0 0 0-.22-5.16v.08a20 20 0 0 0-3.93-1.64 21.5 21.5 0 0 0-4.72-.91 18 18 0 0 0-10.69 2.43l.08-.11a41.4 41.4 0 0 0-.52 6.11 31.4 31.4 0 0 0 .54 6.5 15.9 15.9 0 0 0 2.57 6.27 9.7 9.7 0 0 0 5.83 3.74h.15v.16c.08 4.49.15 9.14.23 13.9 0 2.51.08 5 .12 7.33v.14l-.13.05c-1.2.48-2.38 1-3.5 1.55a18 18 0 0 0-1.63.89 7 7 0 0 0-.73.51c-.21.17-.43.45-.4.54l-.19-.15 15 .08-.18.23a3 3 0 0 0-1.24-1.27 13 13 0 0 0-1.64-.91 33 33 0 0 0-3.37-1.38h-.11v-.12c.07-8.49.14-15.86.19-21.63v-.11h.11a9 9 0 0 0 7.54-6.37 10 10 0 0 0 .4-1.56 8 8 0 0 0 .17-1.17c0-.3.06-.54.08-.72a2 2 0 0 1 .07-.23" style="fill:#263238"/><path d="M273.89 310.42a4.4 4.4 0 0 1-.72.33c-.24.1-.53.22-.87.33s-.74.27-1.18.38a23.5 23.5 0 0 1-3.15.7 28 28 0 0 1-3.93.31 26.6 26.6 0 0 1-3.94-.3 23.5 23.5 0 0 1-3.15-.7c-.44-.11-.83-.26-1.18-.38s-.63-.23-.87-.33a3.6 3.6 0 0 1-.72-.33 3.8 3.8 0 0 1 .76.23l.88.28c.35.1.74.23 1.19.33a28 28 0 0 0 3.13.64 29 29 0 0 0 3.9.27 31 31 0 0 0 3.89-.28 28 28 0 0 0 3.13-.64c.45-.1.84-.23 1.19-.33s.64-.2.88-.29a4 4 0 0 1 .76-.22" style="fill:#263238"/><path d="M255.05 319.17a24 24 0 0 0 2 7.28 8.54 8.54 0 0 0 5.67 4.65 7.73 7.73 0 0 0 7.54-3.56 13.46 13.46 0 0 0 2.23-8.79.62.62 0 0 0-.51-.61 3.9 3.9 0 0 0-1.85-.25 7.5 7.5 0 0 0-1.45.71c-2.13 1.09-4.7.64-7.05.18s-4.16-1.21-6.62.39" style="fill:#3cf"/><path d="m250 340.37 19.75-3.18s2.11 1.29.16 3.53-8.06 3.55-8.06 3.55 1.07 5-5.8 9.13-11.82-3.4-11.82-3.4Z" style="fill:#ffbe9d"/><path d="M252.17 354.66a6 6 0 0 1 1.12-.29l.6-.14.7-.25a8 8 0 0 0 .8-.29l.87-.43a9.84 9.84 0 0 0 3.51-3.23 11.8 11.8 0 0 0 1.84-5.76v-.19l.17-.05c1.17-.35 2.4-.76 3.64-1.24a18.7 18.7 0 0 0 3.66-1.77 3.9 3.9 0 0 0 .88-.77 1.5 1.5 0 0 0 .25-.45 3.5 3.5 0 0 0 .13-.56 1.75 1.75 0 0 0-.71-1.82h.16l-13.19 2-3.88.54a8.6 8.6 0 0 1-1.42.14 9 9 0 0 1 1.39-.31l3.86-.7 13.15-2.21h.16c1.69 1.05 1.12 3.73-.48 4.49a20 20 0 0 1-3.77 1.82c-1.26.49-2.5.89-3.7 1.23l.18-.23a12 12 0 0 1-2 6 9.86 9.86 0 0 1-3.71 3.27l-.91.41c-.28.12-.57.18-.83.27l-.72.21-.62.11a7.5 7.5 0 0 1-1.13.2" style="fill:#eb996e"/><path d="M273.13 344.11a7.4 7.4 0 0 1-1.46 1.07c-.46.31-1 .68-1.65 1.07a7.4 7.4 0 0 1-2.24 1 2 2 0 0 1-1.38-.23 2.07 2.07 0 0 1-.81-1 2.54 2.54 0 0 1 .14-2.07c.57-1 1.23-1.38 1.26-1.34a13 13 0 0 0-.92 1.5 2.2 2.2 0 0 0 0 1.73 1.43 1.43 0 0 0 1.65.91 8.2 8.2 0 0 0 2.09-.95l1.7-1a5.3 5.3 0 0 1 1.62-.69" style="fill:#eb996e"/><path d="M268.27 352.17c.05 0-.35.37-1.06.19a1.85 1.85 0 0 1-1-.69 2.27 2.27 0 0 1-.42-1.44 3.65 3.65 0 0 1 1.08-2.33c.45-.47.78-.7.83-.65s-.19.37-.54.88a4 4 0 0 0-.85 2.12 1.75 1.75 0 0 0 1 1.76c.55.24.93.08.96.16" style="fill:#eb996e"/><path d="M154.89 432.87s-39.67 13.06-41.12 13.65c-2.19.89-1.85 8 1.6 7.7 1.63-.14 32.06-.44 35.42-.81s13.52-4.08 13.52-4.08Z" style="fill:#455a64"/><path d="M140.19 447.66a6.72 6.72 0 0 0-1.29-4.22c-1.35-2.13-3.24-3.08-3.29-2.93s1.51 1.27 2.76 3.27 1.63 3.92 1.82 3.88m3.81-1.92c.16 0 0-1.89-1.17-3.87a7 7 0 0 0-2.71-3c-.12.14 1.12 1.42 2.17 3.31s1.48 3.6 1.71 3.56m3.51-1.14c.15 0 .5-1.93-.48-4.11s-2.67-3.24-2.74-3.1 1.29 1.34 2.17 3.35.86 3.86 1.05 3.86" style="fill:#263238"/><path d="M146.63 439.87c.1 0-.12-1.06-.09-2.73a15 15 0 0 1 .36-2.91 14 14 0 0 1 .48-1.65 1.6 1.6 0 0 1 .37-.66.36.36 0 0 1 .49 0c.35.25.37 1 .41 1.53a8.6 8.6 0 0 1-.09 1.69 12 12 0 0 1-.84 2.79c-.67 1.54-1.24 2.42-1.16 2.48a7.1 7.1 0 0 0 1.55-2.3 11 11 0 0 0 1-2.87 8.3 8.3 0 0 0 .14-1.82 8 8 0 0 0-.09-1 1.65 1.65 0 0 0-.55-1 1 1 0 0 0-1.26 0 1.94 1.94 0 0 0-.55.93 12 12 0 0 0-.47 1.74 12.8 12.8 0 0 0-.23 3 6.65 6.65 0 0 0 .53 2.78" style="fill:#263238"/><path d="M146.66 439.49c0 .1.92-.09 2.37-.06a12.2 12.2 0 0 1 2.5.32 5.2 5.2 0 0 1 1.36.46.94.94 0 0 1 .6 1 1.25 1.25 0 0 1-.86.92 2.84 2.84 0 0 1-1.36.08 6.4 6.4 0 0 1-2.31-.87 16 16 0 0 0-2-1.24 6.4 6.4 0 0 0 1.8 1.61 6.2 6.2 0 0 0 2.45 1.06 3.34 3.34 0 0 0 1.65-.07 1.84 1.84 0 0 0 1.27-1.38 1.57 1.57 0 0 0-.91-1.64 5.8 5.8 0 0 0-1.54-.49A11 11 0 0 0 149 439a5.24 5.24 0 0 0-2.34.49M120 454.13c0 .07.66-.19 1.17-1.08a5.14 5.14 0 0 0 .35-3.84 13 13 0 0 0-.68-2 6.4 6.4 0 0 0-.81-1.54 2.1 2.1 0 0 0-1-.74c-.28-.09-.44-.06-.45 0s.59.21 1 1a8 8 0 0 1 .64 1.49c.21.6.44 1.24.61 1.93a5.36 5.36 0 0 1-.14 3.49c-.26.85-.75 1.21-.69 1.29m14.54-5.81c.15.06.56-1.67-.32-3.55s-2.45-2.69-2.51-2.54 1.17 1.09 1.94 2.8.7 3.28.89 3.29" style="fill:#263238"/><path d="M160.35 448.81a13 13 0 0 0-1.75.62 43 43 0 0 1-4.85 1.44 56 56 0 0 1-7.39 1.17c-2.81.27-5.92.4-9.19.47-6.54.12-12.46.25-16.75.38l-5.07.19a12 12 0 0 0-1.86.15 11.4 11.4 0 0 0 1.86.09h5.08c4.29 0 10.21-.08 16.76-.2 3.27-.07 6.39-.22 9.22-.52a52 52 0 0 0 7.45-1.32 35 35 0 0 0 4.83-1.63 9.3 9.3 0 0 0 1.66-.84" style="fill:#263238"/><path d="M161.48 449.6a9.6 9.6 0 0 0-2.65-1.52 12.25 12.25 0 0 0-7.33-1 8.8 8.8 0 0 0-3.73 1.8 15 15 0 0 0-2.34 2.4 11.7 11.7 0 0 0-1.69 2.55 20.6 20.6 0 0 0 2-2.27c1.23-1.35 3.11-3.31 5.87-3.87a12.87 12.87 0 0 1 7 .83c1.79.63 2.83 1.17 2.87 1.08" style="fill:#263238"/><path d="M89.46 448.66a24.57 24.57 0 0 1-14.79-14.9 17 17 0 0 1-1-5.84c.19-6.63 4.28-16 14.59-21.72a23.2 23.2 0 0 1 7.26-2.53c4.74-.81 13.84-2.38 15.67-2.84 0 0 4-5.63 3.75-6.88s.23-1.88 0-4.59 4.37-10.42 4.37-10.42H182s4.38 6.88 3.75 9.17l3.13 7.92s67.22 8.36 72.33 23.56c3.58 10.63-6 19.48-11.27 23.36a13.85 13.85 0 0 1-6.22 2.57l-25.57 3.81-6.78-.35s4.19-14.18.85-19.39-13.13-3.54-13.13-3.54-40.63 15.84-45.22 17.95-6.9 2.87-6.9 2.87-43.33 4.43-49.17 4a33.5 33.5 0 0 1-8.34-2.21" style="fill:#263238"/><path d="m159.58 441.88 4.56 7.18 47.24-.08s8-9.86 5.8-15.18-12.53-10.45-12.53-10.45l-19.19 6Z" style="fill:#ffbe9d"/><path d="m157.43 416.13.8 26.39 40.87-16.47v-2.2a8.7 8.7 0 0 0-4.59-7.64 8.7 8.7 0 0 0-4.33-1Z" style="fill:#ffbe9d"/><path d="M124 412.26a4.5 4.5 0 0 1-1-.11c-.65-.1-1.6-.21-2.76-.33a50.6 50.6 0 0 0-9.17-.07 51 51 0 0 0-9 1.6c-1.13.31-2 .58-2.67.79a6 6 0 0 1-1 .28 4.5 4.5 0 0 1 .94-.41c.61-.25 1.51-.57 2.64-.91a44.8 44.8 0 0 1 18.28-1.53c1.17.14 2.12.3 2.76.44a6.6 6.6 0 0 1 .98.25" style="fill:#455a64"/><path d="M148.47 413.82a1.7 1.7 0 0 1-.4-.07l-1.13-.26c-1-.23-2.39-.57-4.15-.95a53 53 0 0 0-6.21-1 42 42 0 0 0-7.69 0 24.7 24.7 0 0 0-12.89 4.79 18 18 0 0 0-3 3c-.62.79-.93 1.25-1 1.23s0-.13.19-.35.34-.57.65-1a17 17 0 0 1 3-3.08 24.26 24.26 0 0 1 13-5 40 40 0 0 1 7.75.07 50 50 0 0 1 6.24 1.09c1.75.41 3.15.8 4.12 1.07l1.11.32a2 2 0 0 1 .41.14" style="fill:#455a64"/><path d="M161.1 422.83c.05-2.7-.11-4.52-1.32-6.36s-3.35-4.35-5.51-5.18c-3-1.16-6.26-.25-9.22 1.07l2.78 1.34c2.69 0 4 2 4.89 4.56a16.8 16.8 0 0 1 .34 8 71.6 71.6 0 0 1-6.06 20.58 26.3 26.3 0 0 0 12.81-.88c2.41-6.07 1.19-16.59 1.29-23.13" style="fill:#263238"/><path d="M123.65 412.17a4.4 4.4 0 0 1-.87-.41c-.27-.14-.61-.31-1-.49s-.84-.4-1.36-.59a36 36 0 0 0-3.62-1.29c-1.39-.4-2.94-.78-4.58-1.08a60 60 0 0 0-8.52-.87c-1.1 0-2-.06-2.61-.06a4.5 4.5 0 0 1-1-.05 5 5 0 0 1 1-.09c.62 0 1.51-.07 2.61-.06a51.4 51.4 0 0 1 8.58.77 45 45 0 0 1 4.62 1.12 32 32 0 0 1 3.63 1.37c.5.22 1 .45 1.34.65s.72.39 1 .55a5 5 0 0 1 .78.53m51.71-12.5a1.7 1.7 0 0 1-.34.17l-1 .4c-.43.18-1 .39-1.59.59s-1.34.47-2.15.69-1.68.48-2.64.69-2 .43-3.07.63a56 56 0 0 1-7.15.73 57 57 0 0 1-7.19-.25c-1.1-.14-2.14-.25-3.11-.43s-1.87-.34-2.68-.52-1.55-.37-2.19-.54-1.19-.33-1.63-.48l-1-.34a2 2 0 0 1-.35-.14s.13 0 .37.07l1 .27c.45.13 1 .28 1.64.42s1.37.35 2.19.49 1.71.34 2.68.47 2 .27 3.09.39a61 61 0 0 0 7.14.23 60 60 0 0 0 7.11-.7c1.08-.19 2.11-.36 3.06-.59s1.84-.43 2.64-.65 1.52-.44 2.16-.63 1.17-.37 1.61-.53l1-.34a1.4 1.4 0 0 1 .4-.1" style="fill:#455a64"/><path d="M159.73 380.19a1.2 1.2 0 0 1 0 .34v1c0 .9 0 2.11.06 3.57 0 3.07.08 7.21.13 11.78 0 2.3 0 4.5-.1 6.5a28.6 28.6 0 0 1-.82 5.25 22 22 0 0 1-1.1 3.37q-.26.51-.42.87c-.11.2-.16.3-.18.29a1.7 1.7 0 0 1 .11-.32l.36-.9a27 27 0 0 0 1.06-3.39 31.6 31.6 0 0 0 .74-5.21c.12-2 .11-4.17.07-6.47-.08-4.61 0-8.77 0-11.79v-4.57a2 2 0 0 1 .09-.32m3.56 4.29c0 .06-.44.13-.7.71a1.18 1.18 0 0 0 0 1 1 1 0 0 0 1.05.44 1 1 0 0 0 .86-.75 1.18 1.18 0 0 0-.31-.94 1.62 1.62 0 0 0-.89-.45s.1-.08.3-.07a1.2 1.2 0 0 1 .77.34 1.39 1.39 0 0 1 .46 1.18 1.39 1.39 0 0 1-2.53.41 1.37 1.37 0 0 1 .06-1.26 1.25 1.25 0 0 1 .62-.57c.2-.08.31-.06.31-.04m21.14 2.24s-.14.16-.45.36a5.8 5.8 0 0 1-1.43.67 7.12 7.12 0 0 1-8.79-3.77 6.2 6.2 0 0 1-.49-1.49 1.8 1.8 0 0 1-.05-.58 17 17 0 0 0 .77 2 7.2 7.2 0 0 0 8.49 3.64 19 19 0 0 0 1.95-.83m-69.51 3.47c0-.06 1 .07 2.52.15a32.5 32.5 0 0 0 6.07-.26c1.17-.16 2.28-.38 3.28-.62a7.4 7.4 0 0 0 2.51-.94 3 3 0 0 0 1.13-1.35c.15-.4.15-.65.18-.65a1.16 1.16 0 0 1-.05.69 2.87 2.87 0 0 1-1.11 1.52 7.3 7.3 0 0 1-2.57 1 27 27 0 0 1-3.32.66 27 27 0 0 1-6.13.15c-.79-.07-1.42-.16-1.85-.24a2.8 2.8 0 0 1-.66-.11m32.94 19.25a7.6 7.6 0 0 1-.73-.91 20 20 0 0 0-2.18-2.3 24.8 24.8 0 0 0-9.1-5 54 54 0 0 0-10.3-2l-3.18-.33a8 8 0 0 1-1.16-.16 6 6 0 0 1 1.18 0c.75 0 1.84.1 3.18.21a49.2 49.2 0 0 1 10.43 1.93 24 24 0 0 1 9.16 5.16 15.2 15.2 0 0 1 2.12 2.41c.23.3.37.56.48.72a1.2 1.2 0 0 1 .1.27m45.5-11.15a9 9 0 0 1-1.19.16c-.39 0-.86.09-1.4.18s-1.16.16-1.83.31a41 41 0 0 0-4.69 1.17 45.5 45.5 0 0 0-5.5 2.19 44 44 0 0 0-5.11 3 40 40 0 0 0-3.82 3c-.53.44-1 .88-1.37 1.25s-.74.71-1 1a10 10 0 0 1-.86.84 7 7 0 0 1 .76-.94c.25-.29.57-.64 1-1s.82-.85 1.35-1.3a36 36 0 0 1 3.8-3.05 42 42 0 0 1 5.14-3 40 40 0 0 1 5.56-2.18 35 35 0 0 1 4.74-1.11c.69-.13 1.31-.19 1.86-.26s1-.1 1.41-.12a6.5 6.5 0 0 1 1.15-.14m16.53 3.58a1.3 1.3 0 0 1-.34.05l-1 .06c-.42 0-.94 0-1.54.11s-1.28.09-2 .19c-1.5.16-3.28.43-5.25.81a64 64 0 0 0-6.29 1.61 64 64 0 0 0-6.07 2.3c-1.83.81-3.44 1.61-4.76 2.35-.67.35-1.25.71-1.77 1s-1 .57-1.32.8l-.84.51a1.1 1.1 0 0 1-.3.15s.08-.08.26-.22l.8-.56c.35-.25.78-.54 1.29-.85s1.09-.7 1.75-1.06c1.31-.77 2.92-1.6 4.75-2.44a58 58 0 0 1 6.1-2.33 60 60 0 0 1 6.34-1.6 51 51 0 0 1 5.3-.75c.75-.09 1.44-.11 2-.14s1.12-.05 1.55-.05h1a1.2 1.2 0 0 1 .34.06m31.4 14.65-.44.1c-.3.06-.73.14-1.29.22a44 44 0 0 1-4.78.38c-2 .06-4.43 0-7.1-.08s-5.6-.21-8.68-.09a36 36 0 0 0-8.53 1.27 23 23 0 0 0-6.38 2.93 17.4 17.4 0 0 0-3.56 3.14c-.74.85-1.07 1.38-1.1 1.36a2 2 0 0 1 .23-.39 10 10 0 0 1 .76-1.06 16.7 16.7 0 0 1 3.52-3.26 22.8 22.8 0 0 1 6.44-3 35.7 35.7 0 0 1 8.61-1.31c3.09-.12 6 0 8.7.11s5.07.19 7.09.16 3.64-.14 4.76-.26l1.29-.15a1.8 1.8 0 0 1 .46-.07" style="fill:#455a64"/><path d="M199.1 426.05a2 2 0 0 1-.37.19l-1.11.47-4.1 1.66-13.52 5.4c-5.28 2.14-10 4.15-13.44 5.67l-4 1.8-1.1.49a1.7 1.7 0 0 1-.4.15 2 2 0 0 1 .37-.22l1.07-.54c.93-.48 2.29-1.13 4-1.92 3.38-1.57 8.12-3.63 13.4-5.76s10.1-4 13.59-5.31l4.14-1.56 1.13-.4a2 2 0 0 1 .34-.12" style="fill:#eb996e"/><path d="M190.47 415.15h8.11a7.31 7.31 0 0 1 6.11 3.33l1 1.59a22 22 0 0 0-6.62 5.95l-2.65.24Z" style="fill:#ffbe9d"/><path d="M197.41 426.74c4.13-.62 8.74-.93 12.18 1.44a10.33 10.33 0 0 1 4.34 7.87 38.8 38.8 0 0 1-.74 9.72c-.15 1-.26 2.79.59 3.34a3.36 3.36 0 0 0 2.09.11c1.77-.26 4.07-.13 5-1.65.6-1 .17-3.18.15-4.31 0-2.59-.14-5.17-.31-7.75-.21-3.08-.57-6.28-2.23-8.87a11.63 11.63 0 0 0-4.5-4c-5.5-2.82-15.64-.43-16.57 4.09" style="fill:#263238"/><path d="M246.8 417.27s-.15-.23-.47-.57a4.16 4.16 0 0 0-1.66-1 11.4 11.4 0 0 0-2.91-.53c-1.13-.09-2.37-.16-3.67-.17a50 50 0 0 0-6.64.4c-1.7.2-2.74.4-2.75.34a3.7 3.7 0 0 1 .72-.21c.46-.11 1.14-.25 2-.39a40 40 0 0 1 6.69-.5c1.31 0 2.56.09 3.69.2a10.6 10.6 0 0 1 3 .62 4 4 0 0 1 1.68 1.18 2.2 2.2 0 0 1 .3.47c.01.09.03.15.02.16M205.63 420a12 12 0 0 0-.64-1.64 7.14 7.14 0 0 0-3-2.83 16 16 0 0 0-4.06-1.28 10 10 0 0 1-1.74-.39 7.5 7.5 0 0 1 1.79.14 13.4 13.4 0 0 1 4.18 1.21 6.9 6.9 0 0 1 3.1 3 4.6 4.6 0 0 1 .4 1.27 1.15 1.15 0 0 1-.03.52m-57.16-6.18s.08.09.2.29l.53.87a11 11 0 0 1 .76 1.41 18 18 0 0 1 .88 1.95l.45 1.16c.15.4.26.84.4 1.28.29.89.48 1.86.71 2.89a30.6 30.6 0 0 1-.49 13.5A27 27 0 0 1 151 440c-.3.88-.66 1.67-1 2.39s-.68 1.34-1 1.9a14 14 0 0 1-.83 1.38l-.56.85c-.13.19-.2.29-.21.28s0-.12.15-.32l.5-.88a15 15 0 0 0 .77-1.41c.27-.56.63-1.17.91-1.91a25 25 0 0 0 .94-2.38c.33-.86.57-1.82.85-2.82a34.3 34.3 0 0 0 .95-6.66 33.2 33.2 0 0 0-.47-6.7 29 29 0 0 0-.67-2.87c-.13-.44-.23-.87-.38-1.27s-.29-.79-.42-1.16a19 19 0 0 0-.82-1.95 15 15 0 0 0-.7-1.44l-.47-.9a1 1 0 0 1-.07-.31" style="fill:#455a64"/><path d="M161.1 422.83v-1.05a10.3 10.3 0 0 0-.43-2.79 11.3 11.3 0 0 0-1.85-3.73 10.36 10.36 0 0 0-3.94-3.17 11.15 11.15 0 0 0-5.56-.91 11 11 0 0 0-4.19 1.28v-.2l2 1a5.5 5.5 0 0 1 .7.41 4 4 0 0 1-.76-.29l-2.07-1-.2-.09.19-.11a10.7 10.7 0 0 1 4.28-1.4 11.2 11.2 0 0 1 5.74.9 10.56 10.56 0 0 1 4.06 3.3 11.3 11.3 0 0 1 1.83 3.86 9.6 9.6 0 0 1 .32 2.86 6 6 0 0 1-.06.78 1 1 0 0 1-.06.35m44.24-1.02h1.43a26 26 0 0 1 3.87.37 12.6 12.6 0 0 1 5.34 2.18 13.65 13.65 0 0 1 4.34 5.56 19.7 19.7 0 0 1 1.6 6.89 35 35 0 0 1-.18 5.77c-.17 1.63-.38 2.94-.52 3.84-.08.42-.14.76-.19 1a1.5 1.5 0 0 1-.08.36s0-.13 0-.37.07-.63.12-1.05c.1-.91.27-2.22.41-3.85a37.6 37.6 0 0 0 .1-5.72 19.8 19.8 0 0 0-1.6-6.76 13.55 13.55 0 0 0-4.21-5.44 12.6 12.6 0 0 0-5.19-2.2 32 32 0 0 0-3.83-.48l-1-.07a1.6 1.6 0 0 1-.41-.03m-9.87-127a23.4 23.4 0 0 0-9.93-4.47c-6.35-1.34-32.19-.51-32.19-.51l-15.1 1.95a25.48 25.48 0 0 0-21.46 18.32c-.11.38-.2.78-.3 1.18-3.33 14.45 1.16 58.42 1.16 58.42a22.6 22.6 0 0 1 1.41 6.12 1 1 0 0 0 0 .18 11.2 11.2 0 0 0 .17 2.94h2.34a63 63 0 0 0 9.56 5.53s.64-2.3 1.92-5.53H182s5 2.73 7.32-4.62 9.29-10.18 10.86-23.13-4.71-56.38-4.71-56.38" style="fill:#455a64"/><path d="M132.19 378.87a6 6 0 0 1 .24-1c.09-.32.2-.71.37-1.15s.32-1 .56-1.49a31 31 0 0 1 1.83-3.72 34 34 0 0 1 2.89-4.19 33.6 33.6 0 0 1 3.51-3.67 31 31 0 0 1 3.28-2.55c.48-.35.95-.61 1.35-.85s.75-.44 1.05-.59a5 5 0 0 1 .92-.44 5 5 0 0 1-.85.56c-.29.17-.63.37-1 .64s-.84.53-1.31.89a35 35 0 0 0-3.2 2.58 36 36 0 0 0-3.46 3.66 38 38 0 0 0-2.88 4.12 34 34 0 0 0-1.88 3.66c-.26.53-.43 1-.61 1.46s-.32.81-.42 1.12a5.6 5.6 0 0 1-.39.96" style="fill:#263238"/><path d="M195.47 294.81a42.8 42.8 0 0 1 5.42 11.49c2.05 6.83 19.47 42.36 19.47 42.36l-22.27 20.39-6.11-5Z" style="fill:#455a64"/><path d="M141.53 356.53a1.94 1.94 0 0 1 1-.59 3.65 3.65 0 0 1 4.63 2.49 2 2 0 0 1 .07 1.18c-.06 0-.07-.45-.32-1.1a3.66 3.66 0 0 0-4.32-2.32c-.65.15-1.03.39-1.06.34m-.53-7.87a2.84 2.84 0 0 1 1.19.48 6.31 6.31 0 0 1 3 5.17 2.55 2.55 0 0 1-.17 1.26c-.06 0 0-.48-.08-1.24a7.2 7.2 0 0 0-.92-2.8 7.15 7.15 0 0 0-2-2.18 13 13 0 0 1-1.02-.69m-1.75-43.74a2.5 2.5 0 0 1 .23.4l.58 1.17a15 15 0 0 1 .77 1.93c.14.38.28.79.44 1.22s.24.91.37 1.4a46.5 46.5 0 0 1 1.2 7c.26 2.68.35 5.64.36 8.74 0 6.2-.36 11.81-.43 15.86v6.12a1.6 1.6 0 0 1 0 .45 2.2 2.2 0 0 1-.05-.45c0-.34-.05-.77-.09-1.31s0-1.26-.07-2.07 0-1.72 0-2.74c0-4.06.29-9.67.32-15.86 0-3.1-.09-6-.33-8.71a47 47 0 0 0-1.11-7l-.34-1.41c-.15-.43-.28-.83-.41-1.22a16 16 0 0 0-.71-1.93c-.21-.49-.38-.89-.52-1.2a2.5 2.5 0 0 1-.21-.39m1.52 53.28a4.7 4.7 0 0 1-.78.47c-.51.27-1.23.69-2.11 1.24a34 34 0 0 0-3 2.09 37 37 0 0 0-3.31 2.95 37 37 0 0 0-2.9 3.37c-.81 1.09-1.5 2.11-2 3s-.94 1.62-1.2 2.14a3.7 3.7 0 0 1-.46.78 5 5 0 0 1 .33-.85 23 23 0 0 1 1.11-2.2 29 29 0 0 1 2-3.07 35 35 0 0 1 2.91-3.42 35 35 0 0 1 3.36-3 31 31 0 0 1 3-2c.9-.52 1.65-.91 2.18-1.15a4.6 4.6 0 0 1 .87-.35m50.87 12.09s0-.06.06-.15l.23-.43c.21-.38.52-.94.93-1.64.8-1.42 2-3.44 3.57-5.91a17 17 0 0 0 2-4.28 46 46 0 0 0 1.25-5.31 55 55 0 0 0 .7-6c.1-2.08.12-4.26.09-6.48a114 114 0 0 0-2.64-22.56c-.63-2.84-1.25-5.12-1.68-6.69l-.52-1.8q-.08-.29-.12-.48a2 2 0 0 1 0-.16s0 .05.07.15l.16.46.58 1.79c.47 1.56 1.13 3.83 1.8 6.67a108.5 108.5 0 0 1 2.75 22.62c0 2.23 0 4.39-.1 6.5a55 55 0 0 1-.72 6 44 44 0 0 1-1.3 5.34 16.8 16.8 0 0 1-2 4.32c-1.57 2.46-2.83 4.46-3.67 5.85l-1 1.6-.26.41Z" style="fill:#263238"/><path d="M149.8 382.26c14.47-8.2 37.58-26.59 37.58-26.59l-6.3-12.75L150 358.46a32.1 32.1 0 0 0-15.33 16.45l-3.69 8.9a22.56 22.56 0 0 0 18.82-1.55" style="fill:#ffbe9d"/><path d="m181.08 342.94 11.66-10.73 13.31-5.6a3.07 3.07 0 0 1-.77 3.59c-1.76 1.83-5.2 3.92-6.48 4.9s-2.33 1.84-1.64 3.78c.32.9 1.69 1.77 4.89 2.12s10.4 0 10.85 1.94-1.83 2.4-1.83 2.4l-9.48.57s-1.94-.57-1.48.91a8 8 0 0 0 1.48 2.63s12.11 5.82 12.91 7.88.46 3 0 2.85-11.1-4.33-11.1-4.33 12.7 7.42 12.47 8.56-.68 1.6-2.05 1.49-10.64-5.41-10.64-5.41 7.21 5.41 7.32 6.2-.8 1.26-1.71.92-10.31-5.83-10.31-5.83l-13.6-6.62Z" style="fill:#ffbe9d"/><path d="M186.85 356s.21.08.6.27l1.75.84 6.65 3.27 2.27 1.13c.81.39 1.59.89 2.44 1.36l5.47 3.11 1.5.83a9 9 0 0 0 1.55.74c.51.14 1.17-.07 1.24-.57a.38.38 0 0 0-.06-.31l-.28-.33c-.21-.22-.44-.44-.67-.65-1.89-1.67-4-3.3-6.25-5l.23-.36q2.86 1.63 6 3.29c1.05.55 2.12 1.1 3.23 1.6.27.11.55.24.83.34a2.1 2.1 0 0 0 .83.15 1.18 1.18 0 0 0 1.29-.73c.09-.24.23-.63.11-.68a4 4 0 0 0-.62-.63c-.47-.41-1-.79-1.51-1.16-1-.75-2.14-1.47-3.25-2.18-2.23-1.43-4.55-2.84-6.93-4.23l.22-.46 10.29 4 .66.25.14.05a.4.4 0 0 0 .09-.16 2.84 2.84 0 0 0-.07-1.28c0-.22-.12-.44-.19-.66a2 2 0 0 0-.28-.6 4.7 4.7 0 0 0-1-1 40 40 0 0 0-4.93-3.1c-2.23-1.24-4.49-2.4-6.74-3.5a8.1 8.1 0 0 1-1.42-2.38 3 3 0 0 1-.19-.72.81.81 0 0 1 .37-.81 2.1 2.1 0 0 1 1.51 0h-.09l9.48-.56a2 2 0 0 0 1.65-1.4 1.24 1.24 0 0 0-.19-1 2.5 2.5 0 0 0-1-.55 21.3 21.3 0 0 0-4.9-.65c-1.64-.1-3.26-.1-4.87-.29a13.5 13.5 0 0 1-2.37-.49 4.36 4.36 0 0 1-2.11-1.22 2.46 2.46 0 0 1-.47-1.16 2.6 2.6 0 0 1 0-1.24 3.8 3.8 0 0 1 1.44-1.85c1.19-.94 2.44-1.7 3.59-2.53a24 24 0 0 0 3.23-2.6 3.56 3.56 0 0 0 1-1.63 2.7 2.7 0 0 0-.17-1.78l.25.09-13.33 5.55-8.64 7.86-2.31 2.07-.6.52a1 1 0 0 1-.21.17 2 2 0 0 1 .18-.2l.58-.55 2.25-2.13c2-1.86 4.9-4.56 8.55-8l13.33-5.73.17-.08.08.16a3.08 3.08 0 0 1 .22 2.07 3.87 3.87 0 0 1-1.06 1.81 24.3 24.3 0 0 1-3.28 2.67c-1.16.84-2.41 1.61-3.56 2.52a3.47 3.47 0 0 0-1.29 1.64 2.2 2.2 0 0 0 0 1 2 2 0 0 0 .38 1 3.9 3.9 0 0 0 1.89 1.07 13 13 0 0 0 2.28.46c1.57.18 3.2.18 4.85.27a22 22 0 0 1 5 .67 2.8 2.8 0 0 1 1.21.69 1.14 1.14 0 0 1 .31.7 1.9 1.9 0 0 1 0 .72 2 2 0 0 1-.78 1.22 3.3 3.3 0 0 1-1.28.58l-9.48.58h-.09a1.7 1.7 0 0 0-1.09 0c-.21.09-.13.5 0 .91a8 8 0 0 0 1.33 2.22l-.08-.06c2.25 1.1 4.52 2.26 6.77 3.51a40.4 40.4 0 0 1 5 3.15 5 5 0 0 1 1.09 1.07 2.8 2.8 0 0 1 .33.71c.07.23.15.47.2.71a3 3 0 0 1 .06 1.56.74.74 0 0 1-.3.43.58.58 0 0 1-.54 0l-.66-.26-10.35-4.05.22-.45c2.38 1.41 4.7 2.82 6.93 4.26 1.12.71 2.22 1.44 3.27 2.2.53.38 1.05.76 1.54 1.19a4.5 4.5 0 0 1 .71.73.8.8 0 0 1 .12.34 1 1 0 0 1 0 .3 4 4 0 0 1-.15.48 1.55 1.55 0 0 1-.72.82 2.14 2.14 0 0 1-1 .19 2.5 2.5 0 0 1-1-.18c-.31-.1-.59-.23-.87-.35-1.13-.51-2.19-1.07-3.24-1.62-2.1-1.11-4.1-2.23-6-3.32l.23-.35c2.23 1.7 4.35 3.34 6.26 5l.69.67a3 3 0 0 1 .31.39.82.82 0 0 1 .12.57 1.08 1.08 0 0 1-.69.81 1.8 1.8 0 0 1-1 .06 9.6 9.6 0 0 1-1.64-.79l-1.5-.84-5.45-3.16c-.84-.47-1.63-1-2.41-1.38l-2.26-1.15-6.59-3.37-1.73-.89Z" style="fill:#eb996e"/><path d="m143.38 239.94-.43-4.26 25.24-7c7.83-1.48 17 5.74 18.18 13.63 1.28 8.77 2.5 19.53 2 26.19-1 13.4-11 15.91-11 15.91l.79 8.48A13.87 13.87 0 0 1 165.64 308a13.87 13.87 0 0 1-15.08-12Z" style="fill:#ffbe9d"/><path d="M183.74 253.09a1.69 1.69 0 0 1-1.49 1.84 1.62 1.62 0 0 1-1.87-1.38 1.7 1.7 0 0 1 1.49-1.85 1.62 1.62 0 0 1 1.87 1.39m.26-4.92c-.19.24-1.56-.61-3.38-.45s-3.09 1.17-3.3 1 .07-.51.62-1a4.67 4.67 0 0 1 2.62-1.05 4.46 4.46 0 0 1 2.71.63c.64.38.86.76.73.87m-17.63 6.55a1.69 1.69 0 0 1-1.49 1.84 1.63 1.63 0 0 1-1.88-1.38 1.72 1.72 0 0 1 1.5-1.85 1.62 1.62 0 0 1 1.87 1.39m-.24-4.72c-.2.24-1.56-.6-3.38-.45s-3.09 1.18-3.31 1 .08-.51.63-1a4.67 4.67 0 0 1 2.62-1.05 4.4 4.4 0 0 1 2.71.64c.6.35.82.74.73.86m7.73 13a12 12 0 0 1 2.92-.77c.46-.09.9-.22.95-.54a2.4 2.4 0 0 0-.42-1.36c-.54-1.09-1.09-2.24-1.67-3.43-2.33-4.9-4.06-8.94-3.86-9s2.24 3.8 4.57 8.69c.57 1.21 1.1 2.36 1.62 3.47a2.7 2.7 0 0 1 .39 1.8 1.2 1.2 0 0 1-.71.75 3.2 3.2 0 0 1-.78.17 11.6 11.6 0 0 1-3.01.22" style="fill:#263238"/><path d="M177.35 284.46a35.2 35.2 0 0 1-18.55-3.26s5.22 8.89 18.81 6.56Z" style="fill:#eb996e"/><path d="M165.71 243.16c-.14.51-2 .42-4.1.86s-3.8 1.16-4.13.74c-.14-.21.12-.7.78-1.24a7.05 7.05 0 0 1 3-1.33 7 7 0 0 1 3.28.12c.8.25 1.23.61 1.17.85m17.76-1.24c-.29.44-1.58.11-3.09.21s-2.77.51-3.1.1c-.15-.2 0-.63.55-1.07a4.49 4.49 0 0 1 5-.25c.55.38.76.79.64 1.01" style="fill:#263238"/><path d="M189.72 229.77a3.26 3.26 0 0 1 .4-2.82 9.1 9.1 0 0 0 .94-7.34 9.6 9.6 0 0 0-6.93-6.4 10.17 10.17 0 0 0-6.49.74 3.39 3.39 0 0 1-3.69-.67 3.9 3.9 0 0 0-1.67-.89 6.18 6.18 0 0 0-4.28.81 11.4 11.4 0 0 0-3.39 2.84 3.36 3.36 0 0 1-4.22.88 6.78 6.78 0 0 0-4.17-.85 7.14 7.14 0 0 0-5.67 4.63 26 26 0 0 1-1 2.93 3.44 3.44 0 0 1-2.8 1.61 9 9 0 0 0-4.53 2.17 12.42 12.42 0 0 0-4.28 9.74c.56 9.34 3.6 14 4.31 23a3.3 3.3 0 0 0 .46 1.7c.89 1.23 2.79.5 3.86-.55 2.61-2.56 3.82-6.33 4.32-10s.39-7.48.85-11.19v-.31a3.31 3.31 0 0 1 4.67-2.49l.23.1a10.23 10.23 0 0 0 10.46-1.82 3.34 3.34 0 0 1 3.72-.41 15.1 15.1 0 0 0 8 1.6c3.56-.29 7-1.28 9.56-3.89a5.2 5.2 0 0 0 1.36-2.45 1 1 0 0 0-.02-.67" style="fill:#263238"/><path d="M146.93 256.91c-.18-.08-7.32-2.14-7.06 5.14s7.51 5.51 7.52 5.31-.46-10.45-.46-10.45" style="fill:#ffbe9d"/><path d="M145.06 264.68s-.12.09-.33.2a1.3 1.3 0 0 1-.95.05 3.13 3.13 0 0 1-1.55-2.76 4.3 4.3 0 0 1 .29-1.83 1.47 1.47 0 0 1 .92-1 .65.65 0 0 1 .76.32c.11.2.06.35.1.36s.16-.13.09-.43a.82.82 0 0 0-.31-.44.92.92 0 0 0-.7-.16 1.79 1.79 0 0 0-1.29 1.17 4.4 4.4 0 0 0-.37 2.05c.1 1.46.9 2.81 2 3.08a1.38 1.38 0 0 0 1.15-.24c.19-.2.22-.36.19-.37m24.55 1.1a9.6 9.6 0 0 0-.67 2.51 2.9 2.9 0 0 0 .61 2.32 3.22 3.22 0 0 0 2.35 1.39 3.55 3.55 0 0 0 3.78-2.68l.48-1.85c-1.7-.68-6.43-1.56-6.55-1.69" style="fill:#eb996e"/><path d="M173.76 271.61s-.2.12-.59.19a4.3 4.3 0 0 1-1.71 0 3.37 3.37 0 0 1-2.13-1.41 4.28 4.28 0 0 1-.63-3.07 4.4 4.4 0 0 1 .64-1.69l.1-.16h.18a42 42 0 0 1 5.8 1.75 40.6 40.6 0 0 1-5.93-1.26l.28-.1a3.8 3.8 0 0 0-.55 1.49 3.92 3.92 0 0 0 .5 2.72 3.14 3.14 0 0 0 1.83 1.32 11.4 11.4 0 0 0 2.21.22m-32.11-4.46s-.31.28-.77.86a5.7 5.7 0 0 0-1.15 2.84 4.93 4.93 0 0 0 1.38 4.15 5.12 5.12 0 0 0 8.72-2.38 5 5 0 0 0-.92-4.28 5.7 5.7 0 0 0-2.44-1.85c-.69-.27-1.11-.31-1.1-.36s.11 0 .31 0a3.3 3.3 0 0 1 .86.17 5.69 5.69 0 0 1 3.71 3.82 5.1 5.1 0 0 1 0 2.61 5.55 5.55 0 0 1-9.52 2.6 5.16 5.16 0 0 1-1.3-2.26 5.7 5.7 0 0 1-.11-2.27 5.6 5.6 0 0 1 1.37-2.92 3.7 3.7 0 0 1 .65-.58c.21-.11.3-.17.31-.15" style="fill:#263238"/><path d="M328.42 464.31a1.7 1.7 0 0 0 .07 1.79c2.11 3.13 9.25 13.59 10.34 13.79 1.28.23 48.57-.37 48.57-.37s1.41-.79 1.52-1.5S379 464.46 378.45 464s-.82-.38-2.1-.5-39.76 0-46.46 0a1.7 1.7 0 0 0-1.47.81" style="fill:#455a64"/><path d="M345.19 470.78a2.07 2.07 0 0 1-2.64 1.12c-1.23-.29-2.05-1.28-1.83-2.2a2.07 2.07 0 0 1 2.63-1.13c1.24.3 2.06 1.29 1.84 2.21" style="fill:#ebebeb"/><path d="M328.72 463.92s.1.09.24.28l.64.85 2.33 3.25 3.54 5c.68 1 1.4 2 2.16 3.08l.57.83a2.15 2.15 0 0 0 .68.63 4.9 4.9 0 0 0 1.91.57l13.91-.13 23.64-.1h9.1a2.7 2.7 0 0 1 .68.05 5 5 0 0 1-.68.05l-1.94.07-7.16.13-23.64.26-13.91.08a5.1 5.1 0 0 1-2.11-.65 2.6 2.6 0 0 1-.81-.76l-.56-.82c-.75-1.09-1.46-2.13-2.12-3.11l-3.47-5.11-2.22-3.33-.57-.89a1.4 1.4 0 0 1-.21-.23m19.77-22.67c-.1-.24-2.14.9-4.66 1.41a9.1 9.1 0 0 1-3.1.18 7 7 0 0 1-1-.22c-.07-.16-.13-.24-.18-.22-.25.1-.17 2.69.06 5.89a24 24 0 0 0 .55 3.63 2.3 2.3 0 0 0-.67-.23 3.67 3.67 0 0 0-3.67 2.18 2 2 0 0 0 1.41 3 3.67 3.67 0 0 0 3.67-2.17 2.35 2.35 0 0 0 .08-1.88c-.05-1-.25-2.79-.4-4.83-.08-1-.17-1.91-.28-2.71a7 7 0 0 0 4.08 0 10.1 10.1 0 0 0 4-1.93c0 1 .11 2.33.21 3.77a22.4 22.4 0 0 0 .55 3.63 2.4 2.4 0 0 0-.67-.22 3.67 3.67 0 0 0-3.68 2.17 2 2 0 0 0 1.41 3 3.68 3.68 0 0 0 3.68-2.18 2.43 2.43 0 0 0 .08-1.88c-.06-1-.26-2.79-.41-4.83-.26-3.16-.78-5.67-1.06-5.56m-4.12 3.16a27 27 0 0 1-4.12.55c-.11-.7-.22-1.29-.33-1.73a3 3 0 0 0 .47.23 6.27 6.27 0 0 0 3.4.09 10.4 10.4 0 0 0 4.63-2.16 7 7 0 0 0-.07 1.58 26 26 0 0 1-3.98 1.44m-53.95-38.75c-.09-.23-2.14.9-4.66 1.42a9.1 9.1 0 0 1-3.1.18 8 8 0 0 1-1-.22c-.06-.16-.13-.24-.18-.22-.25.1-.16 2.69.06 5.88a23.6 23.6 0 0 0 .55 3.63 2.3 2.3 0 0 0-.67-.22 3.66 3.66 0 0 0-3.67 2.17 2 2 0 0 0 1.41 3 3.66 3.66 0 0 0 3.67-2.17 2.42 2.42 0 0 0 .09-1.89c-.06-1-.26-2.79-.41-4.83-.07-1-.17-1.9-.28-2.7a7.15 7.15 0 0 0 4.08 0 10.3 10.3 0 0 0 4-1.93c0 1 .1 2.33.2 3.77a24 24 0 0 0 .55 3.63 2.3 2.3 0 0 0-.67-.23 3.68 3.68 0 0 0-3.68 2.18 2 2 0 0 0 1.41 3 3.67 3.67 0 0 0 3.68-2.17 2.35 2.35 0 0 0 .08-1.88c-.05-1-.26-2.79-.41-4.83-.25-3.16-.77-5.67-1.05-5.57m-4.12 3.17a26.5 26.5 0 0 1-4.13.54 17 17 0 0 0-.33-1.72 2.7 2.7 0 0 0 .48.23 6.23 6.23 0 0 0 3.39.09 10.4 10.4 0 0 0 4.63-2.17 8.5 8.5 0 0 0-.07 1.59 26 26 0 0 1-3.97 1.44m69.77-17.14c-.05-.25-2.28.44-4.86.43a9 9 0 0 1-3.07-.46 9 9 0 0 1-.93-.42c0-.17-.08-.26-.14-.25-.26 0-.71 2.59-1.14 5.77a23 23 0 0 0-.21 3.67 1.9 1.9 0 0 0-.61-.36 3.68 3.68 0 0 0-4 1.37 2 2 0 0 0 .76 3.23 3.65 3.65 0 0 0 4-1.37 2.35 2.35 0 0 0 .47-1.82c.16-1 .32-2.79.59-4.81.14-1 .23-1.9.29-2.71a7.06 7.06 0 0 0 4 .85 10.2 10.2 0 0 0 4.29-1.08c-.19 1-.38 2.31-.58 3.74a24 24 0 0 0-.21 3.66 2.1 2.1 0 0 0-.61-.36 3.68 3.68 0 0 0-4 1.38 2 2 0 0 0 .77 3.23 3.68 3.68 0 0 0 4-1.37 2.4 2.4 0 0 0 .47-1.83c.15-1 .32-2.79.59-4.81.42-3.16.42-5.72.13-5.68m-4.68 2.31a27 27 0 0 1-4.15-.32c0-.7.05-1.3 0-1.75a4 4 0 0 0 .41.32 6.27 6.27 0 0 0 3.35.75 10.4 10.4 0 0 0 5-1.16 8.5 8.5 0 0 0-.39 1.53 25.7 25.7 0 0 1-4.22.63m22.98 32.52a2.77 2.77 0 1 1-3.49-1.76 2.77 2.77 0 0 1 3.49 1.76" style="fill:#263238"/><path d="M373.7 425.77c-.09.14-2.52-1.48-5.09-4a44.4 44.4 0 0 1-4.5-4.6c.12-.14 2.37 1.69 4.92 4.16s4.77 4.3 4.67 4.44" style="fill:#263238"/><path d="M368 412.71c.16 0 .06 1.56-1.11 3a4 4 0 0 1-2.69 1.73c-.08-.17 1.17-.8 2.21-2.11s1.42-2.66 1.59-2.62m2 2.11c.17 0 .12 1.54-1.12 2.85s-2.77 1.49-2.77 1.32 1.26-.56 2.33-1.73a18.5 18.5 0 0 0 1.56-2.44m-85.72-35.77a2.77 2.77 0 1 1-.1-3.92 2.77 2.77 0 0 1 .1 3.92" style="fill:#263238"/><path d="M284.63 378.1c-.17 0 .1-2.92 1.06-6.36a46 46 0 0 1 1.92-6.14c.19 0-.36 2.89-1.33 6.3s-1.49 6.22-1.65 6.2" style="fill:#263238"/><path d="M293.42 366.89c.08.14-1.35.79-3.16.44a4 4 0 0 1-2.79-1.55c.11-.15 1.26.66 2.9 1s3-.06 3.05.11m-.92 2.73c.09.13-1.3.83-3.05.36s-2.62-1.73-2.47-1.81a16.6 16.6 0 0 0 2.63 1.22c1.53.42 2.84.05 2.89.23" style="fill:#263238"/><circle cx="535.42" cy="219.97" r="24.97" transform="rotate(-56.78 535.449 219.97)" style="fill:#fff"/><path d="M560.9 239.4a6 6 0 0 0-.73.18 3.3 3.3 0 0 0-1.57 1.22 3 3 0 0 0-.53 1.27 2.7 2.7 0 0 0 .19 1.54 3 3 0 0 0 5.61-.05A2.7 2.7 0 0 0 564 242a3.1 3.1 0 0 0-.55-1.26 3.35 3.35 0 0 0-1.6-1.19c-.45-.15-.73-.15-.73-.18h.2a1 1 0 0 1 .24 0 3 3 0 0 1 .32.07 3.36 3.36 0 0 1 2.31 2.5 2.9 2.9 0 0 1-.16 1.66 3.47 3.47 0 0 1-1.12 1.47 3 3 0 0 1-3.74 0 3.4 3.4 0 0 1-1.15-1.45 2.93 2.93 0 0 1-.19-1.66 3.4 3.4 0 0 1 .59-1.33 3.25 3.25 0 0 1 1.68-1.2l.32-.08h.24a.6.6 0 0 1 .24.05m-.49-16.19v-.4c0-.27.05-.68.08-1.2 0-.26 0-.55.06-.88s0-.67 0-1.06v-1.24a5 5 0 0 0 0-.68c0-.23-.06-.47-.1-.72a24 24 0 0 0-1.89-7 25 25 0 0 0-5.41-7.87l-1-.94c-.35-.3-.71-.58-1.08-.87l-.54-.44a5 5 0 0 0-.58-.42l-1.21-.79-.61-.4-.66-.34-1.33-.69c-.46-.22-.94-.38-1.41-.58l-.72-.29-.37-.14-.37-.11a24 24 0 0 0-3.1-.77c-.53-.09-1.06-.21-1.61-.27l-1.65-.13c-.28 0-.56-.05-.84-.05h-2.55a27 27 0 0 0-3.44.54l-.87.2-.43.1-.42.14-1.71.56c-.56.22-1.1.49-1.66.73-.28.13-.57.23-.83.38l-.81.45a30 30 0 0 0-3.12 2l-1.45 1.23-.36.31-.42.43-.67.69-.67.69-.61.75-.6.76-.31.37-.27.41c-.35.55-.71 1.09-1.07 1.64l-.91 1.76a24.7 24.7 0 0 0-2 15.67c.14.64.29 1.28.43 1.92s.41 1.25.62 1.86l.15.47.2.44.39.89.4.88.47.84.47.83.24.42.27.39 1.08 1.55a28 28 0 0 0 2.51 2.76l.66.65c.22.21.47.39.7.58.48.38.94.77 1.43 1.13l1.5 1 .38.24.39.21.78.41a27 27 0 0 0 3.19 1.4c.54.19 1.1.33 1.64.49l.81.23c.27.08.55.11.82.17l1.64.29c.54.08 1.09.1 1.62.15a23 23 0 0 0 3.19 0h.4a3 3 0 0 0 .38 0l.77-.09c.51-.07 1-.11 1.52-.21l1.46-.32.72-.17.7-.22 1.37-.45a5 5 0 0 0 .66-.27l.64-.28 1.27-.56 1.17-.67a24.9 24.9 0 0 0 7.24-6.24l.65-.81.55-.84.53-.81c.09-.14.18-.26.26-.4l.21-.41.81-1.54c.24-.49.41-1 .61-1.45l.27-.68a6 6 0 0 0 .23-.64c.12-.43.24-.82.35-1.19s.21-.71.29-1 .11-.61.16-.87c.1-.51.17-.9.22-1.18l.09-.4-.06.41c-.05.27-.12.66-.2 1.18 0 .26-.1.55-.16.87s-.18.65-.28 1l-.34 1.19a4 4 0 0 1-.22.65l-.27.68c-.19.46-.36 1-.6 1.47s-.52 1-.8 1.55l-.22.41a4 4 0 0 1-.25.4l-.53.81-.55.85c-.2.28-.43.55-.65.83a25 25 0 0 1-7.25 6.3l-1.19.67c-.41.2-.84.38-1.27.57l-.64.29c-.22.09-.44.19-.67.26l-1.38.46-.7.23-.73.16-1.47.34c-.5.1-1 .13-1.53.21l-.77.09h-.79a25 25 0 0 1-3.21 0c-.54 0-1.09-.07-1.64-.15l-1.65-.29c-.27-.06-.55-.09-.83-.17l-.82-.23c-.54-.16-1.1-.3-1.65-.49a25 25 0 0 1-3.21-1.41l-.8-.41-.39-.21-.38-.25-1.52-1c-.49-.35-1-.75-1.44-1.13-.23-.2-.49-.37-.71-.59l-.67-.64a28 28 0 0 1-2.53-2.79c-.36-.52-.73-1-1.09-1.57l-.28-.39-.24-.42-.47-.84-.48-.85-.4-.89-.39-.89-.2-.45-.16-.47c-.21-.62-.41-1.25-.62-1.87l-.44-1.95a25 25 0 0 1 2.06-15.77l.92-1.76c.37-.56.73-1.11 1.08-1.66.1-.14.18-.28.28-.41l.3-.38.62-.77.61-.76.67-.69.68-.7.34-.34.36-.31L520 200a29 29 0 0 1 3.16-2l.81-.46c.26-.15.56-.25.83-.38.57-.25 1.12-.51 1.69-.73l1.72-.57.42-.14.44-.1.87-.2a26 26 0 0 1 3.47-.54c.58 0 1.15 0 1.72-.05h.85c.29 0 .57 0 .85.05l1.66.14c.55.06 1.09.19 1.63.28a25 25 0 0 1 3.12.78l.37.11.37.14.73.29c.47.2 1 .37 1.42.59l1.34.7.66.35.62.4 1.22.79a6 6 0 0 1 .57.43l.55.44c.37.3.74.58 1.08.88l1 1a25.1 25.1 0 0 1 5.43 7.8 23.8 23.8 0 0 1 1.86 7l.09.72a4 4 0 0 1 .05.69v2.31c0 .33 0 .61-.07.88 0 .52-.08.91-.11 1.19s-.01.42-.01.42" style="fill:#263238"/><path d="M542.49 214.68c0-.26-2.27.48-4.84.53a9 9 0 0 1-3.08-.41 6.5 6.5 0 0 1-.94-.4c0-.16-.08-.25-.14-.24-.26.05-.66 2.61-1 5.79a24 24 0 0 0-.13 3.67 2 2 0 0 0-.62-.34 3.66 3.66 0 0 0-4 1.45 2 2 0 0 0 .83 3.22 3.66 3.66 0 0 0 4-1.46 2.34 2.34 0 0 0 .43-1.83c.14-1 .27-2.79.5-4.82.11-1 .18-1.91.22-2.71a7.1 7.1 0 0 0 4 .76 10.3 10.3 0 0 0 4.27-1.16c-.17 1-.34 2.31-.5 3.74a23 23 0 0 0-.13 3.67 2 2 0 0 0-.62-.34 3.65 3.65 0 0 0-4 1.45 2 2 0 0 0 .83 3.22 3.68 3.68 0 0 0 4-1.46 2.4 2.4 0 0 0 .43-1.83c.13-1 .26-2.8.49-4.83.35-3.17.3-5.73 0-5.67m-4.63 2.32a27 27 0 0 1-4.15-.23v-1.76a2.6 2.6 0 0 0 .42.32 6.34 6.34 0 0 0 3.33.71 10.3 10.3 0 0 0 4.94-1.27 8.6 8.6 0 0 0-.36 1.54 26 26 0 0 1-4.18.69" style="fill:#263238"/><path d="m194.3 264 5.35-9.42a25.21 25.21 0 1 1 6 6.72Z" style="fill:#fafafa"/><path d="m194.3 264 11.41-2.61h.12l-.07-.09-.11.11a26 26 0 0 0 5.18 3.13 25.6 25.6 0 0 0 6.91 2 22.7 22.7 0 0 0 4 .2c.68 0 1.38-.06 2.08-.11l2.13-.33a25.38 25.38 0 0 0 15.74-10.1 24.9 24.9 0 0 0 4.26-9.73 25.6 25.6 0 0 0-.3-11.21 24.9 24.9 0 0 0-5.39-10.36l-1-1.13c-.34-.38-.74-.7-1.11-1a13 13 0 0 0-1.14-1l-1.21-.9a10 10 0 0 0-1.25-.83l-1.28-.78-1.34-.65a12 12 0 0 0-1.35-.6 25.74 25.74 0 0 0-11.29-1.73 24.8 24.8 0 0 0-10.37 3.06 25.5 25.5 0 0 0-12 14.71 27.2 27.2 0 0 0-1.1 8.2 25.2 25.2 0 0 0 3.76 12.49v-.08zl5.41-9.38a25 25 0 0 1-2.48-5.4 24.8 24.8 0 0 1-1.19-7 27 27 0 0 1 1.11-8.12A25.35 25.35 0 0 1 209 219.42a24.7 24.7 0 0 1 10.25-3 25.4 25.4 0 0 1 11.15 1.73 11 11 0 0 1 1.34.59l1.32.64 1.26.77a10 10 0 0 1 1.24.82l1.19.89c.41.29.75.66 1.13 1s.76.65 1.09 1l1 1.11a24.7 24.7 0 0 1 5.34 10.24 25.6 25.6 0 0 1 .3 11.07 24.8 24.8 0 0 1-4.2 9.62 25.2 25.2 0 0 1-15.55 10l-2.11.33c-.7.06-1.39.08-2.07.12a22.3 22.3 0 0 1-4-.19 24.9 24.9 0 0 1-6.86-1.93 25.2 25.2 0 0 1-5.16-3.07l-.47-.36.36.47.05-.12Z" style="fill:#263238"/><path d="M227.9 240.29a2.46 2.46 0 1 0 2.46-2.46 2.46 2.46 0 0 0-2.46 2.46m-9.85 0a2.46 2.46 0 1 0 2.46-2.46 2.46 2.46 0 0 0-2.46 2.46m-9.82-1.23a2.46 2.46 0 1 0 3.36-.9 2.46 2.46 0 0 0-3.36.9" style="fill:#263238"/><path d="m352.05 190.68-7.31-10.52a29.81 29.81 0 1 0-6.39 8.57Z" style="fill:#fafafa"/><path d="m352.05 190.68-13.72-1.85h-.15l.08-.12.14.12a30.4 30.4 0 0 1-5.77 4.23 29.8 29.8 0 0 1-7.93 3.07 27 27 0 0 1-4.67.67c-.82 0-1.64.08-2.48.09l-2.54-.15a30.06 30.06 0 0 1-19.64-10.21 29.7 29.7 0 0 1-6.07-11 30.3 30.3 0 0 1-.85-13.24 29.4 29.4 0 0 1 5.24-12.79l1.09-1.45c.36-.48.8-.9 1.2-1.35a15 15 0 0 1 1.24-1.29l1.32-1.2a13.5 13.5 0 0 1 1.39-1.11l1.42-1.05 1.51-.91a15 15 0 0 1 1.53-.86 30.56 30.56 0 0 1 13.13-3.28 29.5 29.5 0 0 1 12.54 2.5 30 30 0 0 1 9.74 6.89 30.5 30.5 0 0 1 5.94 9.16 32.5 32.5 0 0 1 2.17 9.54 29.9 29.9 0 0 1-.69 8.47 30.4 30.4 0 0 1-2.4 6.66v-.09l7.23 10.57-7.38-10.47a30 30 0 0 0 2.34-6.63 29.1 29.1 0 0 0 .65-8.41 32 32 0 0 0-2.18-9.44 29.93 29.93 0 0 0-15.54-15.85 29.1 29.1 0 0 0-12.41-2.45 30.05 30.05 0 0 0-13 3.23 13 13 0 0 0-1.51.84l-1.48.9-1.41 1a13 13 0 0 0-1.37 1.1l-1.31 1.18c-.45.38-.81.86-1.22 1.28s-.83.85-1.18 1.33l-1.05 1.36a29.1 29.1 0 0 0-5.18 12.63 30.1 30.1 0 0 0 .83 13.08 29.5 29.5 0 0 0 6 10.89 29.84 29.84 0 0 0 19.42 10.15l2.51.16c.83 0 1.65-.06 2.46-.09a26.6 26.6 0 0 0 4.64-.64 29.6 29.6 0 0 0 13.62-7.19l.52-.47-.38.59-.07-.14Z" style="fill:#263238"/><path d="M308.15 167.83a2.91 2.91 0 1 1-5.8.53 2.91 2.91 0 0 1 5.8-.53m11.6-1.06a2.91 2.91 0 1 1-3.16-2.64 2.91 2.91 0 0 1 3.16 2.64m11.45-2.51a2.91 2.91 0 1 1-4.06-.7 2.92 2.92 0 0 1 4.06.7" style="fill:#263238"/></svg>