<svg xmlns="http://www.w3.org/2000/svg" viewBox="0 0 750 500"><path d="M136.23 48.3s-7.95-8.12-15.31-1.83L119 39.31s14.93-6 19.22 4.7Zm220.52 32.33s-7.95-8.12-15.3-1.83l-1.93-7.16s14.93-6 19.22 4.7ZM56.73 359.32s-2.62-11.06-12.16-9.47l2-7.13s15.87 2.58 14 13.95Zm652.54-43.25s-10.41-4.55-14.87 4l-4.48-5.91s11.61-11.13 19.59-2.84ZM263.42 90.19s-14.1 2.9-12.44 15l-9-2.85s3.87-20 18.19-17.25ZM56 170.21s-11.3 1.26-10.87 10.92l-6.84-2.89s4.5-15.44 15.55-12.24Zm122.64 101.73s-1.91 11.2 7.49 13.47l-4.66 5.76s-13.6-8.58-7.47-18.32ZM270.35 455s-.45-11.36-10.12-11.62l3.37-6.61s15.08 5.57 11.11 16.38ZM129.86 248.58s-.45-11.36-10.12-11.62l3.36-6.61s15.09 5.58 11.11 16.38Zm175.61 8.5s-.45-11.36-10.12-11.63l3.37-6.6s15.08 5.57 11.1 16.37ZM677 427.75s-.45-11.35-10.12-11.62l3.37-6.61s15.08 5.58 11.1 16.38Zm14-384.22s-4.44 10.47 4.19 14.84l-5.88 4.53s-11.24-11.49-3-19.56ZM495.44 49s10.62 4 14.65-4.76l4.77 5.76s-11 11.7-19.42 3.81ZM50.14 74.76a3 3 0 1 1-3-3 3 3 0 0 1 3 3m258.97 52.64a3 3 0 1 1-3-3 3 3 0 0 1 3 3m-16.28-80.01a3 3 0 1 1-3-3 3 3 0 0 1 3 3M59 257.44a3 3 0 1 1-3-3 3 3 0 0 1 3 3m1.79 164.78a5.53 5.53 0 1 1-5.53-5.53 5.52 5.52 0 0 1 5.53 5.53m385.04-193.73a3 3 0 1 1-3-3 3 3 0 0 1 3 3m25.76 187.4a3 3 0 1 1-3-3 3 3 0 0 1 3 3m231.12-43.23a3 3 0 1 1-3-3 3 3 0 0 1 3 3m0-242.27a3 3 0 1 1-3-3 3 3 0 0 1 3 3M163.79 427.75a3 3 0 1 1-3-3 3 3 0 0 1 3 3m438.74-228.14a3 3 0 1 1-3-3 3 3 0 0 1 3 3m-3-152.1a3 3 0 1 1-3-3 3 3 0 0 1 3 3M381.67 409.62a3 3 0 1 1-3-3 3 3 0 0 1 3 3" style="fill:#e0e0e0"/><path d="M23 470.05c0-.14 153.8-.26 343.46-.26s343.5.12 343.5.26-153.76.26-343.5.26S23 470.2 23 470.05" style="fill:#263238"/><path d="M568 138.83c7.68-9.29 11.58-23.22 13.19-35.16S579.7 78.88 571.56 70s-21.67-13-32.92-8.68c-12 4.64-19.33 18-19.06 30.94s10 26 20.64 33.29c12.06 8.19 15.64 11 27.73 13.28" style="fill:#455a64"/><path d="M564.54 142.65a12.1 12.1 0 0 0 1.08-6.33l1.51.69c1.68.64 4 3.38 5 4.88.28.44.52 1 .2 1.44s-1 .28-1.51 0a3.8 3.8 0 0 0-1.4-.85 3.9 3.9 0 0 1 .44 1.66 1.19 1.19 0 0 1-2.33.45 4 4 0 0 1-.22-1.73 4 4 0 0 1-.95 1.92 1.38 1.38 0 0 1-1.93.05c-.51-.62-.19-1.49.11-2.18" style="fill:#455a64"/><path d="M565.21 138.27c-.12.21.74.83 1.93.6s1.77-1.11 1.57-1.25-.84.23-1.74.38-1.65 0-1.76.27" style="fill:#263238"/><path d="M527.15 102.9a6.7 6.7 0 0 0 .75 1.66 48 48 0 0 0 2.54 4.26 65.6 65.6 0 0 0 24.1 21.82 47 47 0 0 0 4.49 2.11 7 7 0 0 0 1.73.59c.06-.14-2.31-1.18-5.92-3.25a76 76 0 0 1-13.13-9.5A77 77 0 0 1 531 108.47c-2.45-3.39-3.72-5.65-3.85-5.57m-3.49-13.31c-.24 0-.11 1.81.29 4s.92 3.83 1.16 3.78.11-1.81-.29-3.95-.92-3.88-1.16-3.83" style="fill:#f5f5f5"/><path d="M592.25 277.37s0-.15.17-.43l.54-1.25c.47-1.1 1.18-2.72 2-4.83a100.6 100.6 0 0 0 5.62-18.37 63 63 0 0 0 1.19-13.19 50 50 0 0 0-2.47-14.94 40.7 40.7 0 0 0-3.33-7.49 45 45 0 0 0-5-6.94c-3.79-4.44-8.33-8.48-12.36-13.24a38.1 38.1 0 0 1-6.85-11.41 20 20 0 0 1-.69-12.6 15.44 15.44 0 0 1 7.8-8.85 12.5 12.5 0 0 1 5.51-1.36 9.76 9.76 0 0 1 5.22 1.51l.15.09-.06.17a7.2 7.2 0 0 1-3 3.52 9.6 9.6 0 0 1-4.18 1.29 13 13 0 0 1-7.74-1.9 12.64 12.64 0 0 1-4.56-5.31 21.5 21.5 0 0 1-1.81-5.67 45.7 45.7 0 0 1-.63-8.3v-2.93 2.93a48 48 0 0 0 .73 8.25 21.6 21.6 0 0 0 1.85 5.58 12.26 12.26 0 0 0 4.47 5.15 11.7 11.7 0 0 0 3.51 1.47 11.8 11.8 0 0 0 4 .34 9.24 9.24 0 0 0 4-1.26 6.75 6.75 0 0 0 2.76-3.32l.08.26a9.3 9.3 0 0 0-5-1.41 12 12 0 0 0-5.31 1.32 15.06 15.06 0 0 0-7.53 8.58 19.5 19.5 0 0 0 .7 12.27 37.9 37.9 0 0 0 6.97 11.25c4 4.72 8.55 8.77 12.36 13.25a46 46 0 0 1 5 7 41.6 41.6 0 0 1 3.36 7.58 50.4 50.4 0 0 1 2.44 15.09 62.3 62.3 0 0 1-1.16 13.29 97.5 97.5 0 0 1-5.79 18.37c-.88 2.1-1.61 3.71-2.11 4.8-.26.52-.45.93-.59 1.23s-.26.41-.26.41" style="fill:#263238"/><path d="M183 154.85c-12.26-5.55-23-17.61-30.5-28.8s-10.72-25.58-6.9-38.48 15.35-23.68 28.76-24.86c14.36-1.26 28.25 8.61 34.31 21.69s2.78 31-4.37 43.53c-8.08 14.13-10.27 18.76-21.3 26.92" style="fill:#3cf"/><path d="M188.26 157a13.54 13.54 0 0 1-4.19-5.82l-1.18 1.43c-1.37 1.47-2.33 5.35-2.58 7.34-.08.57 0 1.29.5 1.54s1.19-.23 1.49-.77a4.4 4.4 0 0 1 1-1.54 4.3 4.3 0 0 0 .38 1.88 1.33 1.33 0 0 0 2.56-.69 4.44 4.44 0 0 0-.63-1.84 4.47 4.47 0 0 0 1.89 1.46 1.56 1.56 0 0 0 2-.9c.15-.81-.6-1.53-1.24-2.09" style="fill:#3cf"/><path d="M185.44 153c.17.1-.41 1.08-1.67 1.43s-2.26-.19-2.17-.37 1-.06 2-.35 1.67-.9 1.84-.71" style="fill:#263238"/><g style="opacity:.30000000000000004"><path d="M163.5 71.35c-13.2 8.58-17 23-12.52 38 1.44 4.81 4 9.5 8.7 11.82a10.45 10.45 0 0 0 4 1.08c7 .45 10.4-5.61 11-11.32.42-4.23-.38-8.47-.48-12.72s.63-8.81 3.53-11.91 7.75-4.57 8-9.39a7.47 7.47 0 0 0-2.83-6 12.3 12.3 0 0 0-4.72-2.39 17.46 17.46 0 0 0-13 1.89Z" style="fill:#fff"/></g><path d="M206.27 98.78a11 11 0 0 1 0 2c0 1.31-.19 3.2-.49 5.52a72 72 0 0 1-1.55 8.08 80 80 0 0 1-3.1 9.59 81 81 0 0 1-4.36 9.09 73 73 0 0 1-4.44 6.92c-1.38 1.89-2.57 3.37-3.45 4.34a11.3 11.3 0 0 1-1.4 1.46 10.7 10.7 0 0 1 1.17-1.65c.81-1 1.93-2.54 3.24-4.46a81 81 0 0 0 4.28-6.95 90 90 0 0 0 4.27-9 89 89 0 0 0 3.12-9.48 81 81 0 0 0 1.69-8c.37-2.29.61-4.16.73-5.46a10.6 10.6 0 0 1 .29-2m-3.04-15.06c.2-.06.89 1.79 1.53 4.13s1 4.28.81 4.34-.88-1.8-1.53-4.14-1.04-4.28-.81-4.33" style="fill:#fff"/><path d="M141.51 333.4s-.06-.18-.16-.54-.24-.93-.41-1.63l-.66-2.65c-.24-1.05-.43-2.28-.69-3.66a93.5 93.5 0 0 1-1-23.67 101.5 101.5 0 0 1 2.8-16.15 93 93 0 0 1 6.61-17.63A94 94 0 0 1 159.17 250c4.54-5.61 9.76-11 14.37-17a57.3 57.3 0 0 0 7.05-11.78 34.6 34.6 0 0 0 3-12.77 24.4 24.4 0 0 0-.63-6.29 13.8 13.8 0 0 0-2.62-5.46 8.9 8.9 0 0 0-4.88-3.07 6.94 6.94 0 0 0-5.4.83l.09-.1a3.75 3.75 0 0 0 0 3 5.75 5.75 0 0 0 2 2.32 7.22 7.22 0 0 0 5.7 1.23 8.8 8.8 0 0 0 4.54-3.33 17 17 0 0 0 2.43-4.91 36 36 0 0 0 1.19-5.05c.29-1.65.5-3.26.65-4.81a65 65 0 0 0 .29-8.54 67 67 0 0 0-1.46-11.93c-.3-1.35-.55-2.39-.73-3.09l-.2-.79a1 1 0 0 1-.06-.27s.49 1.41 1.13 4.12a64.7 64.7 0 0 1 1.59 11.95 65 65 0 0 1-.23 8.59c-.14 1.55-.35 3.17-.63 4.83a37 37 0 0 1-1.18 5.11 17.5 17.5 0 0 1-2.47 5 9.17 9.17 0 0 1-4.76 3.5 7.57 7.57 0 0 1-6.05-1.28 6.1 6.1 0 0 1-2.13-2.5 4.18 4.18 0 0 1 0-3.36v-.07a7.36 7.36 0 0 1 5.77-.91 9.4 9.4 0 0 1 5.15 3.22 14.2 14.2 0 0 1 2.72 5.65 25 25 0 0 1 .66 6.42 35 35 0 0 1-3 13 57.2 57.2 0 0 1-7.11 11.9c-4.63 6.11-9.86 11.46-14.39 17a94.2 94.2 0 0 0-11.17 17.4 93 93 0 0 0-6.58 17.52 102 102 0 0 0-2.82 16 95.5 95.5 0 0 0 .84 23.61c.24 1.37.42 2.6.64 3.66s.44 1.93.61 2.65.28 1.25.36 1.64.06.56.06.56m287.97-96.28.09-.4c.08-.28.18-.66.31-1.15a25 25 0 0 0 .66-4.5 30.8 30.8 0 0 0-.48-7.16 42.7 42.7 0 0 0-2.83-9.08 73 73 0 0 0-5.53-10.16c-2.21-3.52-4.75-7.19-7.22-11.19a59.5 59.5 0 0 1-6.43-13.26 31.35 31.35 0 0 1-1.27-15.71 19.7 19.7 0 0 1 3.06-7.46 10.5 10.5 0 0 1 2.87-2.78 7.2 7.2 0 0 1 3.76-1.2 6.7 6.7 0 0 1 3.77.94 5.2 5.2 0 0 1 1.45 1.3 4.2 4.2 0 0 1 .49.84c.07.15.14.3.2.45l.13.47a5.3 5.3 0 0 1-.56 3.69 7.74 7.74 0 0 1-2.42 2.72 6.93 6.93 0 0 1-3.33 1.25 8.35 8.35 0 0 1-3.42-.51 12.47 12.47 0 0 1-5.21-3.89 18 18 0 0 1-1.75-2.57c-.26-.44-.47-.9-.68-1.35a12 12 0 0 1-.58-1.36 23.6 23.6 0 0 1-1.38-5.42 25.7 25.7 0 0 1 .61-9.56 24.2 24.2 0 0 1 2.82-6.67 23 23 0 0 1 2.78-3.63l.85-.83a3 3 0 0 1 .3-.27 1.8 1.8 0 0 1-.26.31l-.81.86a24.3 24.3 0 0 0-5.4 10.3 25.6 25.6 0 0 0-.53 9.44 23.5 23.5 0 0 0 1.39 5.33 14 14 0 0 0 .59 1.33c.2.44.41.89.66 1.32a18 18 0 0 0 1.72 2.49 12 12 0 0 0 5 3.74 7.8 7.8 0 0 0 3.22.47 6.44 6.44 0 0 0 3.09-1.17 7.3 7.3 0 0 0 2.26-2.55 4.74 4.74 0 0 0 .51-3.35l-.11-.43-.18-.39a3.4 3.4 0 0 0-.44-.76 4.7 4.7 0 0 0-1.31-1.17 6.2 6.2 0 0 0-3.49-.86 8.2 8.2 0 0 0-6.23 3.77 19.3 19.3 0 0 0-3 7.27 30.9 30.9 0 0 0 1.25 15.44 59.2 59.2 0 0 0 6.34 13.17c2.45 4 5 7.67 7.19 11.21a74 74 0 0 1 5.5 10.24 42 42 0 0 1 2.77 9.18 29.8 29.8 0 0 1 .4 7.23 22.7 22.7 0 0 1-.76 4.51l-.36 1.14a2 2 0 0 1-.07.38" style="fill:#263238"/><path d="M407.62 127.79c-10.53-11.61-16.42-29.47-19.22-44.89s.4-32.28 10.46-44.3 27.37-18.17 42.24-13.21c15.9 5.31 26.18 22.28 26.58 39.06s-11.4 34.41-24.83 44.46c-15.18 11.35-19.67 15.28-35.23 18.88" style="fill:#3cf"/><path d="M412.27 132.55a15.73 15.73 0 0 1-1.78-8.15l-1.92 1c-2.14.93-5 4.63-6.16 6.64-.34.58-.62 1.37-.18 1.88s1.38.31 1.95-.13a5.1 5.1 0 0 1 1.77-1.19 5.2 5.2 0 0 0-.47 2.18 1.75 1.75 0 0 0 1.3 1.64 1.77 1.77 0 0 0 1.76-1.18 5.25 5.25 0 0 0 .18-2.27 5.3 5.3 0 0 0 1.34 2.44 1.8 1.8 0 0 0 2.52 0c.59-.86.12-1.97-.31-2.86" style="fill:#3cf"/><path d="M411.14 126.91c.17.26-.91 1.11-2.47.89s-2.36-1.34-2.12-1.54 1.12.25 2.28.4 2.17-.04 2.31.25" style="fill:#263238"/><path d="M458.49 78.71a10 10 0 0 1-.88 2.2 63 63 0 0 1-3.05 5.69 85.4 85.4 0 0 1-30 29.77 61 61 0 0 1-5.72 3 9.3 9.3 0 0 1-2.21.87c-.09-.18 2.93-1.67 7.5-4.57a96.6 96.6 0 0 0 29.74-29.5c2.93-4.55 4.44-7.55 4.62-7.46m3.74-17.5c.31 0 .25 2.35-.14 5.15s-1 5-1.29 5-.25-2.35.15-5.15.97-5.04 1.28-5" style="fill:#f5f5f5"/><path style="fill:#ffbf9d" d="m516.26 203.75 72.46-73.36.15 2.11 17.1 18.05-66.93 93.21z"/><path d="M587.89 131.58s-.38-17.86 0-19.61c.85-4 4.48-9.61 5.18-12.91s1.44-8.39 1.44-8.39a3.81 3.81 0 0 1 4.19 2.23c2 4.16-.39 15.86-.39 15.86s24.11-26.29 25.84-27.68 5.38-1.39 5.56 2.08-15.1 22.22-14.58 24.82 2.43.87 2.43.87 18.05-18.22 21.52-18.57 3.64 1.74 2.77 4.51-18.91 18.74-18.91 18.74 4.86 1.74 2.6 6.25c0 0 4 .87 3.82 4.69a8.17 8.17 0 0 1-3.2 5.92s-17.1 19.12-18.14 20.13-6.95 1.54-6.95 1.54Z" style="fill:#ffbf9d"/><path d="M625.21 119.88a1 1 0 0 1-.19.31c-.14.19-.36.47-.65.81a25 25 0 0 1-2.72 2.69 26 26 0 0 1-4.69 3.18c-.47.25-1 .5-1.48.73a8 8 0 0 1-1.64.6 2.58 2.58 0 0 1-1.89-.27 2.73 2.73 0 0 1-1.12-1.61 3.55 3.55 0 0 1 0-1.94 5.1 5.1 0 0 1 .89-1.62 17 17 0 0 1 2.49-2.28l4.4-3.53 3-2.35a8 8 0 0 1 1.14-.81 7.6 7.6 0 0 1-1 1l-2.89 2.47-4.32 3.62a17 17 0 0 0-2.4 2.23 3.46 3.46 0 0 0-.81 3.1 2.25 2.25 0 0 0 .9 1.31 2.06 2.06 0 0 0 1.51.21 7.5 7.5 0 0 0 1.54-.56c.5-.22 1-.45 1.46-.69a28.5 28.5 0 0 0 4.68-3 30 30 0 0 0 2.8-2.54 9 9 0 0 1 .99-1.06" style="fill:#ff9a6c"/><path d="M629.05 125.11a6 6 0 0 1-.81 1.08 24 24 0 0 1-2.6 2.6 27 27 0 0 1-4.49 3.12 20.6 20.6 0 0 1-2.95 1.38 3.16 3.16 0 0 1-1.81.13 2.36 2.36 0 0 1-1.47-1.22 3.57 3.57 0 0 1 .2-3.54 9.3 9.3 0 0 1 2.25-2.38l4.21-3.43 2.87-2.29a6.5 6.5 0 0 1 1.09-.78 6.6 6.6 0 0 1-1 .94c-.72.64-1.65 1.44-2.76 2.41l-4.13 3.52a9.2 9.2 0 0 0-2.13 2.27 3.11 3.11 0 0 0-.17 3 1.83 1.83 0 0 0 1.14 1 2.74 2.74 0 0 0 1.52-.12 21 21 0 0 0 2.88-1.31 28.3 28.3 0 0 0 4.48-3 31 31 0 0 0 2.69-2.46 7 7 0 0 1 .99-.92" style="fill:#ff9a6c"/><path d="M111.22 139.78S96 144.7 94.83 146.63s-1.79 6-1.79 6-3.13 5.52-2.83 10l-1 12.66s3.28 2.68 4.62-.89l.44-3.28a11 11 0 0 0 1.86-5.21c0-.32.07-.66.08-1 0 0 1.79.11 2.83-3.32s.6-9.23.6-9.23l7.89-2.24 21.11 3.16s-10.87-12.9-17.42-13.5m30.66 25.07s52.61 56.12 52.61 57S252.72 263 252.72 263l-27.5 30.87-64.64-60S127.1 180 127.1 179.9s14.78-15.05 14.78-15.05" style="fill:#ffbf9d"/><path d="M93.32 151.58c.43-12.27 3.08-14.09 4.6-16.23s2.64-3.32 2.86-6 1.58-14.17 1.94-17.87 2-9.12 1.67-11q0-.2-.06-.36a6.6 6.6 0 0 1 4.77-.78c.35.08.66.18 1 .28a4.6 4.6 0 0 0 2.44.3c.38-.06.74-.15 1.1-.23a5.7 5.7 0 0 1 2.28-.24 4.6 4.6 0 0 1 1.36.45c-.06.32-.15.71-.28 1.19-.5 1.88.58 7.44.58 11.16s.22 15.32.18 18 1 3.94 2.26 6.22 3.77 4.34 3 16.6-2.29 39.53-2.29 39.53c0 1.27-.12 2.65-.27 3.94-.28 2.5-.91 5.47-2.73 7.38a6.27 6.27 0 0 1-4.89 1.56c-1.85-.06-4.52-.18-7.24-.31s-5.39-.28-7.23-.4a6.53 6.53 0 0 1-4.52-1.77c-2.89-3.11-2.28-8-2.12-11.87 0 .01 1.16-27.27 1.59-39.55" style="fill:#455a64"/><path d="m100.12 136.84.56-.77a11.63 11.63 0 0 0 2.76-6.47c.12-1.38.57-5.39 1-9.27v-.09c.38-3.31.76-6.73.93-8.47.05-.58.15-1.22.26-1.89l9.39.46c0 .68.08 1.33.08 1.91 0 1.75 0 5.19.09 8.52v.09c.06 3.9.11 7.94.09 9.33a11.6 11.6 0 0 0 2.12 6.7c.16.26.32.53.48.82s.36.6.56.91c1.15 1.8 2.73 4.27 2.1 14.26-.28 4.41-.56 8.83-.81 13.24-.45 7.77-1 15.55-1.31 23.32-.14 3.16-.15 6.21-2.1 8.89-1.76 2.43-5.7 2.09-8.26 2a68 68 0 0 1-8.56-.7 7.3 7.3 0 0 1-4-1.77c-1.81-1.82-1.15-6.39-1.06-8.68.23-5.81.49-11.61.72-17.42.27-6.68.55-13.37.78-20.06.35-10 2.16-12.31 3.48-14 .28-.3.5-.58.7-.86" style="opacity:.30000000000000004"/><path d="m112.35 182.06 8.88.42 1.61-27.55-9.19-.43a13.8 13.8 0 0 0-14.43 13.13 13.8 13.8 0 0 0 13.13 14.43" style="fill:#f5f5f5"/><path d="m104.8 102 11.55.55a2 2 0 0 0 2.11-1.87 2 2 0 0 0-1.92-2.06L105 98.05a2 2 0 0 0-2.1 1.87 2 2 0 0 0 1.9 2.08" style="fill:#455a64"/><path d="M116.69 102.49a37 37 0 0 1-6.31-.06 37 37 0 0 1-6.28-.58 40 40 0 0 1 6.31.06 39 39 0 0 1 6.28.58" style="fill:#263238"/><path d="M103.79 130.7c-.14 0 .26-5.69.91-12.67s1.28-12.64 1.43-12.62-.27 5.68-.91 12.67-1.29 12.63-1.43 12.62m-7.51 18.19a13.6 13.6 0 0 1 .34-5.08 13.9 13.9 0 0 1 1.73-4.81c.15.06-.65 2.18-1.22 4.9s-.69 4.99-.85 4.99M93.79 196a6.2 6.2 0 0 1 0-1.33c0-.95.1-2.15.16-3.59.14-3 .26-7.23.39-11.87s.3-8.84.53-11.88c.12-1.51.23-2.74.34-3.58a6 6 0 0 1 .21-1.31 7 7 0 0 1 0 1.32c0 1-.1 2.16-.17 3.6-.14 3-.25 7.23-.38 11.87s-.31 8.83-.54 11.87c-.11 1.52-.23 2.74-.33 3.59a7 7 0 0 1-.21 1.31" style="fill:#fff"/><path d="m141.49 164.54-13.57-12.84-12.66-5.5-13.57 3.3s-2.2 2.94 3.48 4.22a84.4 84.4 0 0 0 11.93 1.65l5.87 7.34-1.59 20 10.62 4.58L144.85 168Z" style="fill:#ffbf9d"/><path d="M352.05 145.27A10 10 0 0 1 362.3 140a13.6 13.6 0 0 1 16.77 0 12.1 12.1 0 0 1 18.47 9.52 10.12 10.12 0 0 1 9.19 16.87 9.73 9.73 0 0 1-3.7 19l-48.93-28.78a10 10 0 0 1-2.05-11.34" style="fill:#263238"/><path d="M404.47 186.7a41.27 41.27 0 0 0-41.92-37.1h-2.14c-23 1.82-34.32 22.39-31.87 45.34l4.92 76.67 3.36 9.58 32.55 68L400 299.4l-13.37-34s22.08-3.9 21.9-26.06c-.07-10.72-2.04-32.74-4.06-52.64" style="fill:#ffbf9d"/><path d="M386.62 265.41s-13.91 1.07-29-8c0 0 7.11 15.85 29 13.46Z" style="fill:#ff9a6c"/><path d="M395.67 208.55a3.17 3.17 0 0 1-3 3.25 3 3 0 0 1-3.32-2.78 3.18 3.18 0 0 1 3-3.26 3 3 0 0 1 3.32 2.79m4.53-9.8c-.38.42-2.81-1.3-6.22-1.22s-5.86 1.83-6.24 1.42c-.18-.18.2-.93 1.27-1.75a8.76 8.76 0 0 1 5-1.65 8.4 8.4 0 0 1 5 1.49c.99.79 1.38 1.52 1.19 1.71m-34.02 10.65a3.17 3.17 0 0 1-3 3.25 3 3 0 0 1-3.32-2.78 3.18 3.18 0 0 1 3-3.26 3 3 0 0 1 3.32 2.79m1.45-10.4c-.38.42-2.82-1.3-6.22-1.22s-5.86 1.83-6.24 1.42c-.19-.18.2-.93 1.27-1.75a8.73 8.73 0 0 1 5-1.65 8.35 8.35 0 0 1 5 1.49c1.01.71 1.38 1.47 1.19 1.71m11.73 24.94c0-.19 2.09-.6 5.51-1.11.87-.1 1.68-.29 1.82-.89a4.5 4.5 0 0 0-.63-2.57q-1.31-3.12-2.71-6.56c-3.77-9.35-6.51-17-6.13-17.19s3.73 7.31 7.5 16.66q1.35 3.45 2.6 6.6a5 5 0 0 1 .52 3.41 2.22 2.22 0 0 1-1.4 1.3 5.8 5.8 0 0 1-1.48.23c-3.44.26-5.58.32-5.6.12m-11.89-34.71c-.38.89-3.33.16-6.89.29s-6.51.93-6.9.06c-.17-.42.41-1.23 1.65-2a10.53 10.53 0 0 1 5.25-1.5 10.1 10.1 0 0 1 5.25 1.23c1.24.69 1.81 1.49 1.64 1.92m31.77.2c-.52.84-2.93.28-5.74.53s-5.13 1-5.76.3c-.28-.36 0-1.17 1-2a8.33 8.33 0 0 1 9.26-.66c1.05.67 1.46 1.4 1.24 1.83" style="fill:#263238"/><path d="M402.13 176.58s-6.13-13.74-12.88-16.84c-8.18-3.76-11.48 5.2-19.24 3.21s-15.57-5.6-23.33.52c-8.5 6.71-4.36 11.21-4.69 21.05-1.34 39.88-8.39 51.3-10.84 32.58-.27-2-6-3.57-7-12.24-1.33-11.24-2-24.91.31-33 2-6.78 5.72-11.51 12.51-16.79 10.7-8.32 25.64-8.8 35.8-8s29.93 12.13 29.36 29.51" style="fill:#263238"/><path d="M332.54 216.46a6 6 0 0 0-6.61-5.66c-4.12.48-8.67 2.92-8.22 11.45.8 15.14 15.83 11.21 15.83 10.78s-.61-10.24-1-16.57" style="fill:#ffbf9d"/><path d="M330 227.51c-.07 0-.26.2-.69.43a2.67 2.67 0 0 1-2 .14c-1.63-.5-3.11-3-3.33-5.69a8.8 8.8 0 0 1 .54-3.82 3 3 0 0 1 1.88-2.12 1.33 1.33 0 0 1 1.59.64c.23.41.15.72.23.74s.31-.27.16-.89a1.7 1.7 0 0 0-.65-.92 2 2 0 0 0-1.48-.31 3.74 3.74 0 0 0-2.63 2.49 9.14 9.14 0 0 0-.69 4.27c.26 3 2 5.82 4.19 6.33a2.84 2.84 0 0 0 2.39-.52c.43-.4.49-.75.49-.77" style="fill:#ff9a6c"/><path d="M332.24 187.12c2 1.3 4.1 2.64 6.47 2.83s5.06-1.23 5.41-3.59c.16-1.05-.13-2.27.55-3.1.81-1 2.34-.72 3.61-.61a9.67 9.67 0 0 0 9.89-7.13c1.16 1.65 3.78 1.53 5.45.4s2.74-2.95 4-4.5 3.14-2.95 5.15-2.71c1.12.14 2.18.78 3.31.66 2-.22 2.9-2.57 3.16-4.54s.45-4.29 2.11-5.4 3.58-.49 5.41-.26 4.19-.25 4.63-2a3.62 3.62 0 0 0-.74-2.73 9.8 9.8 0 0 0-11.65-3.52 13.3 13.3 0 0 0-24.48-2.08 13.49 13.49 0 0 0-21.46 5.37 9.78 9.78 0 0 0-10.73 14.45c-2.69 1.61-5 4.36-5 7.5s3.13 6.19 6.14 5.3a5.41 5.41 0 0 0 9.47 5.21" style="fill:#263238"/><path d="M322.43 181.45c-.06 0-.26 1.28 1 2.89a4.8 4.8 0 0 0 3.07 1.75 5.25 5.25 0 0 0 4.29-1.34l-.64-.09a15.2 15.2 0 0 0 3.1 3.72 8.8 8.8 0 0 0 2.8 1.66 6.72 6.72 0 0 0 7.37-2.38 8.9 8.9 0 0 0 1.16-3.17 3 3 0 0 0 .09-1.23c-.07 0-.19.41-.42 1.14a10.1 10.1 0 0 1-1.34 2.91c-1.39 2.2-6.05 3.41-9.1.4a15.2 15.2 0 0 1-2.95-3.48l-.28-.44-.36.36a4.6 4.6 0 0 1-3.63 1.24 4.48 4.48 0 0 1-2.77-1.39 7.1 7.1 0 0 1-1.39-2.55m27.9-35.17c0 .05.39.1 1.07.37a5.26 5.26 0 0 1 2.4 1.95l.18.29.21-.29a18.86 18.86 0 0 1 7.2-6.08 14.75 14.75 0 0 1 5.93-1.43 12.33 12.33 0 0 1 6.45 1.7 12.6 12.6 0 0 1 3.9 3.54 10.24 10.24 0 0 1 1.75 4.53l.06.48.46-.13a8.5 8.5 0 0 1 6.31.63 8.4 8.4 0 0 1 3.52 3.62 11.3 11.3 0 0 1 1 4.47 3.1 3.1 0 0 0 .16-1.25 8.5 8.5 0 0 0-.75-3.43 8.62 8.62 0 0 0-3.64-4 9.12 9.12 0 0 0-6.86-.82l.51.35a11 11 0 0 0-1.85-4.93 13.1 13.1 0 0 0-4.16-3.81 13 13 0 0 0-6.91-1.79 15.1 15.1 0 0 0-6.24 1.59 18.33 18.33 0 0 0-7.26 6.5h.39a5.22 5.22 0 0 0-2.7-1.93 2.4 2.4 0 0 0-1.13-.13" style="fill:#455a64"/><path d="M370.38 229.27s-4.36 9.13 5 11.32a4.5 4.5 0 0 0 2.46-.14 4.52 4.52 0 0 0 2.93-3.16l1.29-5c-.45.16-11.68-3.02-11.68-3.02" style="fill:#ff9a6c"/><path d="M380.16 239.25s-.05.09-.19.25a4 4 0 0 1-.71.58 5.9 5.9 0 0 1-3.22.86 6.08 6.08 0 0 1-4.51-2 8.7 8.7 0 0 1-2.07-5.68 9.8 9.8 0 0 1 .5-3.14 2.2 2.2 0 0 1 .38-.74 1.2 1.2 0 0 1 .79-.43 3.5 3.5 0 0 1 1.48.31l4.63 1.6 3.1 1.13a4.8 4.8 0 0 1 1.12.48 5.7 5.7 0 0 1-1.18-.29l-3.16-1-4.66-1.5c-2.12-1.33-2.43 1.68-2.48 3.54a8.36 8.36 0 0 0 1.91 5.38 5.78 5.78 0 0 0 4.16 1.93 6 6 0 0 0 3.11-.67c.67-.33.97-.65 1-.61" style="fill:#263238"/><path d="m515.46 197.6-14.56 5.23v13.06l-31.73 22.77-44.81 15.61a17.5 17.5 0 0 0-6.72 4.25l-9.07 12.72-18.64-3.93-1.62 31.78-21 33.22-15.52-31.91-10.26-22.32-8.11-13.89-5.35 10.09-2.3 1h-19.72l-28.37-1.86-22.77-10.83L228.79 248l-25.39 43.3 9.34 11.57 14.18 1.13 38.46 19.67 18.15 16.21 17.3 87.68 11.62 42.51H469.6s-9.92-37.36-11-49.3-3.63-80.91-3.63-80.91l1.6-22.25L527 257.33l5.6 3 11.94-11.57Z" style="fill:#fff"/><path d="m515.46 197.6 29.21 51.08v.08l-.06.06-11.9 11.58-.06.07-.08-.05-5.6-3h.14l-70.46 60.31.06-.12c-.49 6.85-1 14.45-1.59 22.24.75 19.64 1.55 40.5 2.58 62.45.28 5.48.53 11 .94 16.65a73 73 0 0 0 1.13 8.38c.51 2.8 1.09 5.6 1.7 8.41 2.46 11.25 5.31 22.67 8.36 34.27l.07.3H312.26l-.06-.19c-3.67-13.44-7.62-27.89-11.62-42.52-4-20.15-8.18-41.49-12.45-63.11q-2.43-12.35-4.85-24.57l.09.15-18.15-16.21h.06l-38.48-19.65h.1l-14.18-1.12h-.11l-.07-.09q-4.69-5.81-9.33-11.57l-.12-.13.09-.16 25.39-43.29.12-.21.22.12 24.38 13.58c2 1.19 4.1 2.06 6.14 3.07l6.16 2.93 12.2 5.8h-.09l24.39 1.61c4 .38 8 .23 11.93.26h11.75-.09l2.3-1-.12.11c1.85-3.48 3.61-6.8 5.35-10.1l.2-.36.2.35 8.11 13.9 6.53 14.21 3.19 7c1.06 2.3 2.19 4.55 3.27 6.81q6.55 13.48 12.74 26.25h-.36l21-33.22v.1c.58-11.31 1.12-21.77 1.64-31.78v-.2h.2l18.63 3.94-.16.06c3.36-4.72 6.26-8.77 9.07-12.71a17.6 17.6 0 0 1 6.71-4.26l7.22-2.51 13.61-4.73 24.06-8.36 31.75-22.74v.06-13.06l14.58-5.17-14.54 5.28v13.06l-31.7 22.81-24 8.4-13.6 4.75-7.22 2.52a17.3 17.3 0 0 0-6.58 4.19l-9.06 12.72-.07.09h-.1l-18.65-3.92.22-.16c-.51 10-1 20.47-1.61 31.78q-10.05 15.87-21 33.23l-.2.31-.16-.33q-6.21-12.76-12.75-26.25c-1.08-2.25-2.22-4.5-3.28-6.8s-2.12-4.63-3.2-7l-6.54-14.21-8.11-13.9h.4l-5.35 10.1v.07h-.07l-2.3.95H314c-3.95 0-7.93.12-11.93-.26l-24.41-1.6h-.05l-12.2-5.8-6.17-2.93c-2-1-4.17-1.88-6.15-3.06l-24.4-13.59.34-.09-25.38 43.3v-.29l9.33 11.57-.17-.09 14.18 1.12h.01l38.46 19.67 18.14 16.21.07.06v.08q2.42 12.22 4.85 24.57c4.27 21.62 8.48 43 12.45 63.11 4 14.62 7.94 29.08 11.62 42.52l-.25-.19h157.15l-.22.29c-3-11.61-5.89-23-8.35-34.29-.61-2.82-1.18-5.62-1.69-8.43a71 71 0 0 1-1.03-8.17c-.4-5.62-.65-11.17-.93-16.66-1-21.95-1.81-42.82-2.53-62.45.56-7.8 1.11-15.4 1.6-22.25v-.08l.06-.05 70.53-60.22.07-.06h.08l5.6 3h-.15l12-11.56v.14c-18.76-33.01-28.68-50.51-29.07-51.21" style="fill:#263238"/><path d="M365.87 332a5 5 0 0 1-.4-.63l-1.1-1.88-4-7-13.68-24.26.39.07a29.5 29.5 0 0 0-4.1 5 75 75 0 0 0-3.54 5.87 48 48 0 0 0-3.83 8.55l-.37 1.21-.13-1.25c-.65-6.05-1.73-11.68-2.68-16.75s-1.86-9.58-2.52-13.35-1.13-6.82-1.37-8.92c-.14-1-.2-1.86-.26-2.41 0-.25 0-.46-.05-.63s0-.21 0-.21a.5.5 0 0 1 .05.21c0 .17.06.37.09.62.09.55.18 1.36.35 2.4.3 2.09.81 5.11 1.52 8.88s1.63 8.27 2.63 13.33 2.08 10.7 2.75 16.78l-.5-.05a48 48 0 0 1 3.88-8.68 69 69 0 0 1 3.58-5.9 28.6 28.6 0 0 1 4.19-5.1l.23-.21.15.28 13.52 24.34 3.89 7.11c.43.81.78 1.45 1 1.91a4 4 0 0 1 .31.67m22.44 139a1.5 1.5 0 0 1-.08-.36q-.06-.39-.18-1.05l-.63-4.05c-.28-1.76-.62-3.92-1.06-6.41a66 66 0 0 0-2-8.35c-1-3-2.13-6.32-3.23-9.91s-2.22-7.43-3.37-11.49c-2.3-8.08-4.92-17.06-5.74-26.8s-1.16-19-1.45-27.4-.55-16-1-22.37-.95-11.48-1.5-15c-.22-1.77-.51-3.13-.65-4l-.17-1.06a2.5 2.5 0 0 1 0-.36 2 2 0 0 1 .09.35l.22 1c.18.92.5 2.27.75 4 .61 3.51 1.18 8.65 1.66 15s.8 13.95 1.09 22.37.58 17.69 1.49 27.36 3.41 18.63 5.68 26.73c1.14 4.06 2.22 7.92 3.32 11.5s2.23 6.87 3.18 9.93a64 64 0 0 1 1.89 8.4c.42 2.5.73 4.66 1 6.43s.41 3.11.54 4.07l.12 1.06a1.6 1.6 0 0 1 .03.41" style="fill:#263238"/><path d="M399.56 307.59s-27.48 40.66-33.26 39-26.6-38.5-26.6-38.5l5.05-7.44s23 43.79 22.93 43.87L394 302.41Z" style="fill:#455a64"/><path style="fill:#455a64" d="m373.99 345.3-1.89-6.74h-6.45l-4.53 6.74 3.14 8.79 6.75-1.1zM371 353l-6.75 1.1s-15.13 115.13-15.13 116h38.3Z"/><path d="M270.16 303.46a1.8 1.8 0 0 1 .25.45c.16.36.36.81.61 1.35.52 1.16 1.24 2.87 2.12 5 1.75 4.23 4.06 10.12 6.42 16.69s4.33 12.59 5.68 17c.67 2.19 1.19 4 1.54 5.2l.38 1.42a2 2 0 0 1 .1.51 2.3 2.3 0 0 1-.2-.48l-.48-1.39c-.42-1.29-1-3-1.7-5.15-1.43-4.34-3.45-10.33-5.81-16.89s-4.61-12.47-6.27-16.73c-.81-2.08-1.48-3.78-2-5.05l-.52-1.38a2.5 2.5 0 0 1-.12-.55M464.45 270a4.3 4.3 0 0 1-.13.77c-.13.54-.29 1.26-.5 2.17-.44 1.88-1.06 4.6-1.79 8-1.47 6.74-3.31 16.1-4.84 26.52s-2.46 19.92-3 26.8c-.27 3.44-.46 6.23-.58 8.15-.06.93-.11 1.66-.15 2.22a4 4 0 0 1-.09.77 4.5 4.5 0 0 1 0-.77c0-.56 0-1.3.06-2.23.05-1.93.19-4.72.41-8.17.43-6.89 1.31-16.41 2.84-26.84s3.43-19.8 5-26.53c.78-3.36 1.45-6.08 2-7.94.24-.9.44-1.61.58-2.15a6 6 0 0 1 .19-.77M369 331.1a6 6 0 0 1 .41-.65l1.24-1.8 4.68-6.67 16-22.54.21-.3.21.3a44.7 44.7 0 0 0 6.32 6.47 38 38 0 0 1 5.75 6l-.46.08c2.43-11 4-20.79 5.05-27.79.53-3.51.93-6.32 1.19-8.26l.3-2.22a6 6 0 0 1 .13-.77 3.5 3.5 0 0 1 0 .78c0 .51-.1 1.26-.21 2.23-.2 1.95-.55 4.77-1 8.29-1 7-2.46 16.83-4.88 27.86l-.13.57-.34-.49a38.6 38.6 0 0 0-5.67-5.87 44.5 44.5 0 0 1-6.39-6.57h.42l-16.18 22.44-4.81 6.58-1.31 1.76a4 4 0 0 1-.53.57" style="fill:#263238"/><path style="opacity:.30000000000000004" d="m369.63 330.23 22.48-24.81 12.07 12.4 3.37-26.64-3.9 20.85-12.07-12.45zm72.88 139.69a1557.4 1557.4 0 0 1-116.74-194.68h-2.89l38.24 93.56 41.78 63.91 31.21 37.36Z"/><path d="M322.88 275.24c30.15 76.9 64.6 125.9 113.57 194.81h-51.54s-30.59-40.16-58.24-97.84C305.42 327.87 287.26 274 287.26 274c13.52-2.59 25.98-3.25 35.62 1.24" style="fill:#3cf"/><path d="m333.17 338 1 2.27-5.17 2.31a8 8 0 0 1-2.25-1.79 10 10 0 0 1-1.63-2.55 8 8 0 0 1-.71-3.94 7 7 0 0 1 1.27-3.54 7.59 7.59 0 0 1 6.84-3 7 7 0 0 1 3.48 1.44 8.1 8.1 0 0 1 2.45 3.21 8.9 8.9 0 0 1 .77 3.19 6.44 6.44 0 0 1-.59 2.93l-2.14-.86a5.34 5.34 0 0 0-.1-4.22 5.5 5.5 0 0 0-1.64-2.17 4.65 4.65 0 0 0-2.34-1 5.1 5.1 0 0 0-2.63.45 5 5 0 0 0-2.06 1.62 4.66 4.66 0 0 0-.9 2.38 5.3 5.3 0 0 0 .48 2.67 5.65 5.65 0 0 0 1.83 2.37Zm-.33 16.71 2.54-4.36a5 5 0 0 1-.24-.48L333.8 347l-3.74 1.73-1.1-2.39 12.83-5.92 2.44 5.28a8 8 0 0 1 .79 3.16 4.7 4.7 0 0 1-.7 2.62 5.27 5.27 0 0 1-4.95 2.23 4.57 4.57 0 0 1-2.5-1.3l-2.87 4.86Zm9.75-5.55a4 4 0 0 0-.43-2.67l-1.28-2.78-5.12 2.36 1.29 2.78a4 4 0 0 0 1.76 2.06 2.56 2.56 0 0 0 2.27-.07 2.53 2.53 0 0 0 1.51-1.68M337 361.77a6.9 6.9 0 0 1 1.15-3.59 7.48 7.48 0 0 1 6.7-3.25 6.8 6.8 0 0 1 3.53 1.31 8.58 8.58 0 0 1 3.41 7 6.94 6.94 0 0 1-1.15 3.58 7 7 0 0 1-2.93 2.52 7 7 0 0 1-7.31-.57 8.53 8.53 0 0 1-3.4-7m4.61 4.92a4.66 4.66 0 0 0 2.37.82 5.07 5.07 0 0 0 2.58-.54 5 5 0 0 0 2-1.69 4.64 4.64 0 0 0 .83-2.37 5.14 5.14 0 0 0-.54-2.57 5 5 0 0 0-1.68-2 4.6 4.6 0 0 0-2.38-.82 5.33 5.33 0 0 0-4.59 2.23 4.54 4.54 0 0 0-.82 2.37 5 5 0 0 0 .53 2.57 5.2 5.2 0 0 0 1.69 2Zm2.85 10.24a6.9 6.9 0 0 1 1.07-3.61 7.1 7.1 0 0 1 2.86-2.59 7.2 7.2 0 0 1 3.76-.83 6.9 6.9 0 0 1 3.56 1.24 8.54 8.54 0 0 1 3.57 6.92 7 7 0 0 1-1.06 3.61 7.55 7.55 0 0 1-6.64 3.42 7 7 0 0 1-3.55-1.23 8.1 8.1 0 0 1-2.62-3 8 8 0 0 1-.95-3.93m4.73 4.81a4.6 4.6 0 0 0 2.39.77 5.42 5.42 0 0 0 4.54-2.34 4.57 4.57 0 0 0 .76-2.4 4.93 4.93 0 0 0-.6-2.55 5.1 5.1 0 0 0-1.73-2 4.57 4.57 0 0 0-2.39-.76 5 5 0 0 0-2.56.59 5.1 5.1 0 0 0-2 1.74 4.6 4.6 0 0 0-.76 2.4 4.93 4.93 0 0 0 .6 2.55 5 5 0 0 0 1.75 2m7.44 19.49 8.18-4.56-9-.3-.57-1 4.42-7.76-8.08 4.49-1.22-2.19 12.33-6.91 1.05 1.89-5.47 9.44 10.86.28 1.05 1.89-12.35 6.87Zm17.56 6.3-2.46-4 1.89-1.17 6.29 10.21-1.91 1.18-2.46-4-10.11 6.25-1.38-2.24ZM371 423.44a7 7 0 0 1 .63-3.72 7.52 7.52 0 0 1 6.17-4.17 6.9 6.9 0 0 1 3.68.8 7.9 7.9 0 0 1 3 2.7 8 8 0 0 1 1.41 3.75 7 7 0 0 1-.62 3.71 7.58 7.58 0 0 1-6.19 4.19 7 7 0 0 1-3.67-.81 7.85 7.85 0 0 1-3-2.7 8 8 0 0 1-1.41-3.75m5.26 4.21a4.6 4.6 0 0 0 2.47.48 5.37 5.37 0 0 0 4.23-2.87 4.57 4.57 0 0 0 .48-2.46 5.3 5.3 0 0 0-.9-2.46 5 5 0 0 0-2-1.75 4.54 4.54 0 0 0-2.46-.48 5.39 5.39 0 0 0-4.23 2.86 4.63 4.63 0 0 0-.48 2.47 5.41 5.41 0 0 0 2.85 4.21ZM394.65 446a3.58 3.58 0 0 1-1.28 1.95 3.24 3.24 0 0 1-3.08.73 7.1 7.1 0 0 1-3.4-2.52l-4.5-5.4 10.86-9 4.24 5.09a6.43 6.43 0 0 1 1.71 3.59 3.12 3.12 0 0 1-1.2 2.76 3.47 3.47 0 0 1-1.74.81 3.26 3.26 0 0 1-1.82-.22 3.66 3.66 0 0 1 .21 2.21m-2.77-.25q1.58-1.31-.38-3.64l-2.71-3.26-3.14 2.61 2.71 3.25c1.3 1.57 2.48 1.91 3.52 1.04m1.47-10.7-3 2.49 2.37 2.86a3.75 3.75 0 0 0 1.73 1.3 1.63 1.63 0 0 0 1.58-.35 1.66 1.66 0 0 0 .65-1.51 3.8 3.8 0 0 0-1-1.93Zm8.86 23.84-1.52 1.59-7.69-7.33 9.77-10.21 7.46 7.13-1.53 1.59-5.55-5.31-2.51 2.65 4.93 4.72-1.5 1.56-4.93-4.72-2.69 2.82Z" style="fill:#fff"/><path d="M332.59 350.88a4.4 4.4 0 0 1-.41-.74c-.26-.53-.61-1.25-1.06-2.15s-1-2.1-1.61-3.45-1.31-2.89-2-4.61c-3-6.85-6.7-16.47-10.33-27.27s-6.48-20.72-8.32-28c-.94-3.61-1.62-6.55-2.07-8.59-.21-1-.37-1.77-.5-2.35a6 6 0 0 1-.14-.83 5 5 0 0 1 .25.8c.14.58.34 1.36.59 2.33.5 2 1.24 4.95 2.22 8.55 1.94 7.2 4.85 17.09 8.46 27.88s7.3 20.42 10.18 27.3c.7 1.73 1.36 3.28 2 4.63s1.09 2.54 1.53 3.48.74 1.65 1 2.2a5.5 5.5 0 0 1 .21.82M327 326.29a2 2 0 0 1-.29-.46l-.72-1.36c-.62-1.18-1.48-2.91-2.5-5.07-2.05-4.31-4.68-10.38-7.17-17.23S312 289 310.77 284.36c-.6-2.32-1-4.19-1.33-5.5l-.32-1.51a2 2 0 0 1-.07-.53 3.3 3.3 0 0 1 .17.51c.11.4.25.88.41 1.48.34 1.29.85 3.15 1.49 5.45 1.29 4.59 3.21 10.89 5.69 17.73s5.05 12.91 7 17.26c1 2.17 1.78 3.92 2.35 5.13l.64 1.4a2.4 2.4 0 0 1 .2.51m92.7 138.45a2 2 0 0 1-.54-.17l-1.5-.6-2.36-1-3.08-1.38c-2.28-1-5-2.36-7.86-4a72.4 72.4 0 0 1-9-6 91 91 0 0 1-8-7.24l-6.15-6.27-4.12-4.08-1.09-1.19c-.25-.26-.38-.41-.36-.42s.16.1.44.35l1.19 1.08c1 .94 2.5 2.34 4.29 4.09l6.23 6.19a96 96 0 0 0 8 7.17 75 75 0 0 0 8.88 6c2.87 1.62 5.52 3 7.77 4.05l3.05 1.44 2.32 1.05 1.46.68a2.5 2.5 0 0 1 .43.25" style="fill:#263238"/><path d="M331 382.32s10.38-5.38 8.67-8.23-9.73-4.91-9.73-4.91V351l-5.42-9s4.32-9.54 3.45-13.93 1.72-23.67-3.45-31.73S309.81 281 309.81 281l-14.5 12.07s30.31 83 35.69 89.25" style="opacity:.30000000000000004"/><path d="M386.15 265.65c.42 0 3.36-2.37 5.81-.84a6.5 6.5 0 0 1 2.86 4.06s-.69 9.57-2.86 10.45-4.38.84-4.61-2c-.35-3.89-1.2-11.67-1.2-11.67" style="fill:#ae7461"/><path d="M403.64 270.27s.42-4.62-3.78-5.74-5 .84-5 .84-3.78 13-1.12 15.11 4.06 1.4 5.18-2 4.72-8.21 4.72-8.21" style="fill:#ae7461"/><path d="M412.68 265.89s-3.75-2-5.57-1.23a14.2 14.2 0 0 0-3.75 2.66s-5.76 8.43-3 9.69 5 .84 5.88 0 6.44-11.12 6.44-11.12" style="fill:#ae7461"/><path d="M197.62 219.68c-.82-9.59-1.59-19.24-.75-28.83s3.37-19.2 8.68-27.23c.8-1.21 7.1-9.17 8.49-8.7 1 .34-3.56 8.07-3.25 9.07 2.93 9.51 1.91 19.89-1.12 29.37a130 130 0 0 1-12 26.32" style="fill:#263238"/><path d="M232.15 307.73c1.61-6.61 8.87-35.67 8.92-35.66s23.25 3 30-19.18c3.24-10.7 8.14-33.29 12.33-53.78A43.17 43.17 0 0 0 253.11 149l-2.15-.62C227.43 143 209.73 160 205 183.7L185.93 266l11.53 22.73c9.19 18.12 30.66 34.75 35.33 15Z" style="fill:#ae7461"/><path d="M241.07 272.07s-14.26-3.24-26.48-17c0 0 2.37 18.22 25.15 22.66Z" style="fill:#6f4439"/><path d="M271 214.7a3.31 3.31 0 0 1-4 2.32 3.18 3.18 0 0 1-2.45-3.82 3.32 3.32 0 0 1 4-2.32 3.17 3.17 0 0 1 2.45 3.82m5-10.55c-.51.3-2.4-2.18-5.83-3.16s-6.42 0-6.67-.52c-.13-.24.49-.87 1.81-1.35a9.06 9.06 0 0 1 5.49-.09 8.73 8.73 0 0 1 4.49 3c.77 1.14.91 1.97.71 2.12m-33.84 3.94a3.3 3.3 0 0 1-4 2.31 3.17 3.17 0 0 1-2.45-3.81 3.31 3.31 0 0 1 4-2.32 3.16 3.16 0 0 1 2.45 3.82M244 198c-.51.3-2.41-2.18-5.83-3.16s-6.42 0-6.67-.53c-.13-.23.49-.87 1.81-1.34a9.13 9.13 0 0 1 5.49-.1 8.74 8.74 0 0 1 4.49 3c.78 1.13.92 1.98.71 2.13m2.71 30.44c0-.19 2.27.05 5.84.61.9.17 1.78.23 2.1-.32a4.7 4.7 0 0 0 .17-2.76l-.66-7.39c-.84-10.51-1.18-19-.76-19.07s1.45 8.46 2.29 19q.28 3.87.54 7.4c0 1.09.28 2.38-.54 3.56a2.29 2.29 0 0 1-1.81.86 6 6 0 0 1-1.54-.22c-3.52-.86-5.67-1.47-5.63-1.67m.52-42.77c-.73.72-3.73-1.25-7.71-2.61s-7.51-1.82-7.63-2.84c0-.48.88-1.05 2.51-1.29a13.5 13.5 0 0 1 6.33.72 13.75 13.75 0 0 1 5.37 3.42c1.11 1.23 1.47 2.25 1.13 2.6m32.06 8.2c-.83.6-3-.89-5.77-1.75s-5.38-1-5.7-2c-.13-.47.47-1.13 1.74-1.57a8.3 8.3 0 0 1 5.07.1 8.2 8.2 0 0 1 4.16 2.9c.77 1.12.87 2.02.5 2.32" style="fill:#263238"/><path d="M202.06 200.7c-.33-.28-14-9-17.9 6.39s12.3 16.12 12.44 15.69 5.46-22.08 5.46-22.08" style="fill:#ae7461"/><path d="M193.4 215.77c-.06-.07-.32.12-.82.21a2.77 2.77 0 0 1-2-.47c-1.47-1-2.18-3.94-1.55-6.72a9.1 9.1 0 0 1 1.73-3.64 3.21 3.21 0 0 1 2.54-1.54 1.41 1.41 0 0 1 1.39 1.14c.09.48-.08.76 0 .81s.4-.17.43-.84a1.72 1.72 0 0 0-.35-1.11 2.05 2.05 0 0 0-1.38-.77 3.86 3.86 0 0 0-3.4 1.66 9.3 9.3 0 0 0-2 4c-.7 3.12.15 6.42 2.2 7.63a3 3 0 0 0 2.55.22c.53-.22.7-.54.66-.58" style="fill:#6f4439"/><path d="M279.7 171.15c2.83-.76-2.65-10.66-8.09-14.94-8.21-6.47-21.7-12.53-30.82-12.22-11 .39-20.77 3.39-28.22 11.47s-12.08 18.48-14.4 29.22c-.71 3.28-1.21 6.75-.15 9.93 1.31 3.93 4.91 7.09 3.57 11.74a6.66 6.66 0 0 0 .44 5.09c2.08 3.69 6.22 1.72 8.49-.71 4.87-5.19 7-12.29 9-19.12 1.41-4.86 2.85-9.82 2.62-14.88-.12-2.74-.73-5.47-.7-8.22s.84-5.68 3-7.41a10 10 0 0 1 1.56-1 16.56 16.56 0 0 1 16.67.89c7.91 5.2 21.57 13.42 26.16 11.43 6.6-2.86 8.61-5.29 8.61-5.29Z" style="fill:#263238"/><path d="M249.2 236.3a50 50 0 0 0-6.51-2.64 3.34 3.34 0 0 0-2.27-.26 2.77 2.77 0 0 0-1.44 1.83 8 8 0 0 0 2.09 8.61 7.6 7.6 0 0 0 3.53 1.39 4.27 4.27 0 0 0 4.22-2.11 20 20 0 0 0 2.09-5.94" style="fill:#6f4439"/><path d="M247.38 244.62s-.09.07-.28.14a4.4 4.4 0 0 1-.86.23 7.7 7.7 0 0 1-3.27-.16 5.77 5.77 0 0 1-3.85-2.92 9.57 9.57 0 0 1-.56-5.92 11.3 11.3 0 0 1 1.24-3.23l.11-.17.19.06a71 71 0 0 1 7.87 2.91c1 .44 1.7.83 2.2 1.12a4.3 4.3 0 0 1 .74.5c0 .06-1.14-.53-3.07-1.32s-4.68-1.73-7.89-2.73l.29-.11a11 11 0 0 0-1.17 3.08 9.18 9.18 0 0 0 .49 5.61 5.47 5.47 0 0 0 3.51 2.77 8.1 8.1 0 0 0 3.14.31c.79-.08 1.15-.21 1.17-.17" style="fill:#263238"/><path d="m100.51 340.26-6 38s-2.42 38.48-2 44.37 0 47.24 0 47.24h130.25l-2.76-37.3 18.22-56.06 10.1 1.21 44.49 9.09-4.34-29-5.07-18.33-17.75-14.23-13-21.94-11.15-12.66-.5-6.46-2.34-2.88-16.39 16.8s-3.87 29.76-3.87 31.3-6.56-56.53-6.56-56.53l-24.35-27.32-7.26 7.35-5-.31c-22.54 3.75-45.54 15.28-56.65 36.81l-4.07 7.89a141.7 141.7 0 0 0-14 42.96" style="fill:#ebebeb"/><path d="M212.48 314.56a6 6 0 0 1-.14-.75c-.08-.54-.19-1.26-.32-2.19-.3-1.94-.71-4.7-1.23-8.14-1.09-6.93-2.8-16.63-5.29-27.65l.46.09-6.55 9.94c-1.56 2.38-3.1 4.71-4.57 6.94l-.28.43-.18-.48c-4.18-11.44-7.87-21.51-10.52-28.77l-3.06-8.52c-.34-1-.61-1.75-.8-2.31-.08-.24-.15-.44-.2-.6s-.06-.2-.05-.21a.8.8 0 0 1 .09.2c.07.15.15.34.25.58l.88 2.27 3.21 8.47c2.69 7.25 6.44 17.3 10.68 28.71l-.45-.05 4.57-6.94 6.56-9.94.33-.5.13.58c2.46 11 4.11 20.76 5.11 27.71.51 3.48.86 6.26 1.08 8.17.1.93.18 1.66.24 2.2a4 4 0 0 1 .05.76m29.09-23.93a2 2 0 0 1-.1.44c-.09.28-.21.69-.39 1.22-.36 1-.91 2.55-1.62 4.4-1.41 3.71-3.51 8.76-5.72 14.38-.6 1.51-1.16 3-1.69 4.41l-.18.5-.27-.45-6.26-10.53-1.79-3.12a7 7 0 0 1-.59-1.15 8 8 0 0 1 .74 1.06l1.92 3.05c1.65 2.68 3.88 6.31 6.41 10.45l-.45.05c.51-1.43 1.08-2.91 1.67-4.43 2.22-5.63 4.37-10.66 5.87-14.32l1.77-4.35a11.4 11.4 0 0 1 .68-1.61" style="fill:#263238"/><path d="m220.48 423-30.94-14.12a30.2 30.2 0 0 1-7.7-4.49c-4-3.58-5.78-9-7.56-14a249 249 0 0 0-42.83-76.14l-10.6 3.86c-3.74 27.62 11 55 8.57 82.78-.54 6.18-1.86 12.79 1 18.3 2.18 4.21 6.52 7 11.06 8.31s9.36 1.44 14.1 1.53c-.71 7.36 5.63 13.95 12.75 16s14.72.52 21.88-1.31q9.38-2.4 18.52-5.57c3.44-1.19 7-2.53 9.54-5.12s3.91-6.83 2.21-10.03" style="opacity:.2"/><path d="M251.41 321.87c.14 0-3 13.59-7.09 30.28s-7.44 30.2-7.58 30.17 3-13.59 7.08-30.29 7.45-30.2 7.59-30.16" style="fill:#263238"/><path d="m138.43 367.54 15.63 42.7c3 8.21 13.23 24.65 25.23 34.81a23.47 23.47 0 0 0 27.7 1.68l88.32-56.09L273 368l-68.75 27.28-5.95-2.44-8.14-32.89Z" style="fill:#ae7461"/><path d="M126.49 283c-1.37 2-7.63 7.06-5.31 33.69 2.4 27.46 25.53 97.28 25.53 97.28l52.4-27.53s-15.31-90.65-17.28-106.7-9.31-15.73-20.1-15.87S126.49 283 126.49 283" style="fill:#ebebeb"/><path d="M155.46 265.23h.7a19 19 0 0 1 2.06.13 25.3 25.3 0 0 1 7.66 2 26.3 26.3 0 0 1 5 2.88 29 29 0 0 1 2.55 2.09c.42.39.81.83 1.23 1.25l.62.65c.2.23.39.47.59.71a34.7 34.7 0 0 1 4.32 6.6c.59 1.27 1.24 2.56 1.73 4s1 2.83 1.43 4.32.76 3.06 1.14 4.64.66 3.22 1 4.89c.63 3.33 1.28 6.81 1.91 10.42 1.26 7.22 2.54 15 3.84 23.13 2.62 16.34 5.35 34.4 8.13 53.5v.18l-.16.09-9.73 5.11-42.67 22.4-.26.14-.09-.28c-9.09-27.92-16-52.15-20.19-69.5-2.05-8.68-3.49-15.63-4.2-20.43-.1-.6-.19-1.16-.28-1.69l-.18-1.5c-.1-.91-.19-1.69-.26-2.33s-.12-1.09-.15-1.42 0-.48 0-.48a5 5 0 0 1 .08.48c0 .33.11.8.19 1.42s.19 1.4.31 2.32c.06.46.12.95.19 1.49s.2 1.09.3 1.68c.77 4.79 2.24 11.72 4.34 20.39 4.25 17.32 11.24 41.52 20.35 69.42l-.34-.14 42.66-22.43 9.72-5.11-.13.26c-2.78-19.09-5.5-37.16-8.08-53.5-1.28-8.17-2.55-15.91-3.8-23.13-.61-3.61-1.25-7.08-1.87-10.42-.33-1.66-.66-3.29-1-4.88s-.68-3.14-1.12-4.62a48.7 48.7 0 0 0-3.11-8.24 34 34 0 0 0-4.25-6.56l-.57-.71-.62-.64c-.41-.43-.8-.86-1.21-1.25a28 28 0 0 0-2.52-2.09 26.4 26.4 0 0 0-4.91-2.89 25.9 25.9 0 0 0-7.6-2.09c-.89-.15-1.59-.13-2.05-.18Z" style="fill:#263238"/><path d="M193.44 367.35s6.82-1.32 8.19 2.45 4 19.73 1.81 21.19-40.68 31.8-46.93 32.36c-5.15.46-13-6.34-17.42-13.84-4.94-8.4.92-15.68.92-15.68-.94-3.17 53.43-26.48 53.43-26.48" style="fill:#ebebeb"/><path d="m193.44 367.35-.26.13-.77.36-3 1.34-11.29 5.06c-4.83 2.18-10.65 4.82-17.21 7.94-3.27 1.56-6.74 3.23-10.33 5.07-1.79.92-3.62 1.88-5.45 2.92-.91.53-1.83 1.07-2.72 1.65a15 15 0 0 0-1.3.94 5 5 0 0 0-.58.52.9.9 0 0 0-.29.48v.11l-.08.11a14.9 14.9 0 0 0-2.77 7.28 13.35 13.35 0 0 0 1.76 7.87 38.2 38.2 0 0 0 5.1 6.88 30 30 0 0 0 6.8 5.55 11.5 11.5 0 0 0 4.43 1.53 7 7 0 0 0 1.13 0 5.4 5.4 0 0 0 1.09-.32 20 20 0 0 0 2.13-1c2.76-1.48 5.37-3.18 7.91-4.86 5.08-3.39 9.85-6.85 14.38-10.16s8.78-6.53 12.76-9.55l5.75-4.37c.93-.69 1.83-1.37 2.71-2a2.53 2.53 0 0 0 .55-1.39 14 14 0 0 0 .14-1.58 45 45 0 0 0-.32-6c-.21-1.9-.47-3.68-.75-5.34s-.58-3.2-.91-4.6c-.17-.7-.35-1.37-.56-2a3.34 3.34 0 0 0-1-1.46 5.8 5.8 0 0 0-2.86-1.1 13 13 0 0 0-2.3-.11c-.62 0-1.09.07-1.41.1l-.48.05a4 4 0 0 1 .47-.1 13 13 0 0 1 1.42-.15 12.4 12.4 0 0 1 2.32 0 5.85 5.85 0 0 1 3 1.11 3.5 3.5 0 0 1 1.13 1.54c.23.63.41 1.3.59 2 .35 1.4.66 2.94 1 4.61s.57 3.45.79 5.35a43.5 43.5 0 0 1 .35 6.07 13 13 0 0 1-.13 1.63 2.8 2.8 0 0 1-.67 1.61l-2.71 2.07-5.74 4.4c-4 3-8.22 6.25-12.74 9.58s-9.29 6.8-14.37 10.2c-2.55 1.69-5.16 3.4-8 4.9a23 23 0 0 1-2.18 1 5.7 5.7 0 0 1-1.2.34 7.5 7.5 0 0 1-1.25 0 12.1 12.1 0 0 1-4.64-1.59 30.5 30.5 0 0 1-6.93-5.65 38.5 38.5 0 0 1-5.17-7 13.9 13.9 0 0 1-1.81-8.17 15.37 15.37 0 0 1 2.89-7.53v.22a1.1 1.1 0 0 1 .4-.95 7 7 0 0 1 .63-.57 16 16 0 0 1 1.34-1c.9-.59 1.83-1.13 2.75-1.65 1.84-1 3.67-2 5.47-2.92 3.61-1.83 7.08-3.49 10.37-5 6.58-3.09 12.41-5.7 17.26-7.84s8.7-3.81 11.34-4.93l3-1.28.79-.31a1.3 1.3 0 0 1 .23-.04m-73.65-64.45a7.3 7.3 0 0 1 .13-1.47 17 17 0 0 1 .27-1.7c.14-.66.26-1.42.5-2.23a40.5 40.5 0 0 1 1.88-5.66 42.2 42.2 0 0 1 7.79-12.27 41 41 0 0 1 4.32-4.11c.63-.55 1.27-1 1.81-1.39a17 17 0 0 1 1.42-1 8.5 8.5 0 0 1 1.27-.74 8 8 0 0 1-1.15.91c-.39.27-.85.61-1.37 1s-1.13.87-1.75 1.45a45 45 0 0 0-4.19 4.14A44.6 44.6 0 0 0 123 292a46 46 0 0 0-2 5.56c-.25.8-.4 1.55-.56 2.2s-.28 1.21-.36 1.68a9 9 0 0 1-.29 1.46" style="fill:#263238"/><path d="M305.69 338.13c-9.46 1.27-17.94-1.83-23.68-12.07-6.26-11.16-5.13-34.19-5.13-34.19l15.85-5.77 13.54-4.81s15.73 16.81 18.12 29.39-3.08 20.81-12.5 25.95l-.16.06-.27 1.88 12.77 35.88 10.69.25a.42.42 0 0 1 .13.81l-23.64 8.57a.42.42 0 0 1-.41-.72l9.12-7.62-12.75-35.85Z" style="fill:#fff"/><path d="M305.69 338.13s.13.16.41.45l1.24 1.34c1.71 4.88 6.2 17.63 12.63 35.9l.05-.19-8.45 7-.56.47-.14.12a.47.47 0 0 0-.15.21.57.57 0 0 0 0 .51.61.61 0 0 0 .4.33.67.67 0 0 0 .46-.06l.7-.25 2.81-1 5.8-2.1 12.29-4.44 1.59-.57.42-.16a.61.61 0 0 0 .36-.51.67.67 0 0 0-.25-.58.87.87 0 0 0-.54-.13l-3.46-.08-7.07-.17.21.15c-3.94-11.1-8.25-23.22-12.74-35.89v.12c.08-.59.18-1.23.27-1.88l-.16.2.15-.05c4.19-2.29 8.34-5.64 10.78-10.27a22.9 22.9 0 0 0 2.26-13.1 33 33 0 0 0-4-12.37 83 83 0 0 0-6.83-10.61c-2.47-3.31-5-6.45-7.72-9.39l-.11-.11-.14.05-15.25 5.45-14.13 5.16h-.13v.14a121 121 0 0 0 .31 13.78 79 79 0 0 0 1.84 12.22 31.7 31.7 0 0 0 4.09 10 25.1 25.1 0 0 0 6.22 6.73 19.7 19.7 0 0 0 6.66 3.16 22 22 0 0 0 5.39.72h1.95c.56 0 1-.07 1.41-.12l1.15-.15s-.38 0-1.14.09c-.39 0-.86.07-1.42.08a18 18 0 0 1-1.95 0 21.6 21.6 0 0 1-5.35-.77 19.5 19.5 0 0 1-6.56-3.17 24.8 24.8 0 0 1-6.12-6.69 31.9 31.9 0 0 1-4-9.94 79 79 0 0 1-1.79-12.17 123 123 0 0 1-.27-13.69l-.13.18 14.14-5.13 15.26-5.42-.25-.06c2.66 2.92 5.22 6.06 7.67 9.36a82.6 82.6 0 0 1 6.79 10.55 32.3 32.3 0 0 1 4 12.17 22.33 22.33 0 0 1-2.2 12.81 25.4 25.4 0 0 1-10.58 10.07l-.15.05-.14.05v.15c-.09.65-.19 1.29-.27 1.88v.12c4.51 12.66 8.83 24.78 12.78 35.88l.05.15h.16l7.07.16 3.46.07h.28a.22.22 0 0 1 .08.18.17.17 0 0 1-.11.15l-.38.14-1.64.59-12.28 4.47-5.8 2.1-2.8 1-.7.25c-.22.1-.3.05-.39-.08a.25.25 0 0 1 0-.19s.1-.1.2-.19l.55-.46 8.43-7.06.09-.08v-.11l-12.87-35.82-1.28-1.32Z" style="fill:#263238"/><path d="M283.42 323.31c5.75 10.34 14.4 12.87 23.93 10.88l.14-.05.07.19 3.08-1.1c8.54-4.69 13.51-12.26 11.23-23.88 0 0-7.69 3.68-13.31 5.68-8.33 3-14-1.47-19.35.45s-5.79 7.83-5.79 7.83" style="fill:#3cf"/><path d="M276.65 292a7.4 7.4 0 0 0 1.26.39 23 23 0 0 0 3.54.59 26.75 26.75 0 0 0 21.63-7.89 25 25 0 0 0 2.33-2.74 5.4 5.4 0 0 0 .7-1.11c-.08-.06-1.12 1.51-3.28 3.6a27.85 27.85 0 0 1-21.35 7.79c-3-.21-4.8-.74-4.83-.63" style="fill:#263238"/><path d="M286.22 324.12a4.4 4.4 0 0 0 .68 1 17.4 17.4 0 0 0 2.3 2.32 19.3 19.3 0 0 0 20.37 2.92 17.5 17.5 0 0 0 2.86-1.58 5 5 0 0 0 .93-.75 39 39 0 0 1-3.93 2 19.81 19.81 0 0 1-20-2.87 39 39 0 0 1-3.21-3.04" style="fill:#fff"/><path d="M273 368s-.45-14.92 1.81-18a121 121 0 0 1 8.67-9.4l9.33-5.94s3.75 4.4 2.15 6.85a9.8 9.8 0 0 1-4.73 3.43l-3.14 5.06 13.3-6.33s18.19-15.4 21.71-16.51 4.33 1.44 3.12 3.76-14.38 16.57-14.38 16.57-.49 1.87 1.73 1.39 7.56-5.39 9.82-4.38 5.08 2.48 3.53 5.77a27 27 0 0 1-3.27 5.34s3.86-1.42 5 1.65a5.15 5.15 0 0 1-1.33 5.37l-3.23 2.73a4.31 4.31 0 0 1 .45 4.17c-.89 2.64-12 12.39-12 12.39s-10.37 6.7-13.51 7.68-17.59 7.67-17.59 7.67l-15.06-24.33Z" style="fill:#ae7461"/><path d="m201.07 172.25 82.31 26.86a27.1 27.1 0 0 0 1.37-11.82l-80.81-22.18Zm17.25 11.18S192.1 312 197.41 323.28a115 115 0 0 0 13.71 21.3s18.8-32.53 18.82-33.37S225 184.68 225 184.68Z" style="fill:#455a64"/><path style="fill:#455a64" d="m213.29 174.08 4.55-7.92 7.8.78 4.43 7.51-4.35 11.37-8.76-1.63z"/><path d="M213.29 174.08a4.6 4.6 0 0 1 .32.71l.78 2c.68 1.81 1.62 4.29 2.75 7.31l-.14-.1 8.78 1.59-.28.15 3.24-8.5c.37-1 .73-1.93 1.1-2.87v.22c-1.55-2.66-3-5.19-4.4-7.52l.18.12-7.8-.83.18-.1-3.39 5.74-1 1.56a5 5 0 0 1-.37.54 2.7 2.7 0 0 1 .26-.56l.86-1.59 3.26-5.87.06-.1h.12l7.82.73h.12l.06.11 4.44 7.5.06.11v.12l-1.1 2.87c-1.14 3-2.25 5.85-3.26 8.49l-.07.19h-.2l-8.76-1.67h-.12v-.11l-2.59-7.44c-.28-.84-.51-1.51-.68-2a3.7 3.7 0 0 1-.23-.8" style="fill:#263238"/><path d="M226.55 183.43a90 90 0 0 1-4.51-8.54 90 90 0 0 1-4-8.77 90 90 0 0 1 4.51 8.54 90 90 0 0 1 4 8.77m-8.85 17.98a10 10 0 0 1 0-2.47c.1-1.52.31-3.62.63-5.92.6-4.62 1.6-8.29 1.76-8.24a14.5 14.5 0 0 1-.36 2.44c-.25 1.5-.57 3.57-.88 5.87s-.56 4.19-.78 5.89a13.7 13.7 0 0 1-.37 2.43" style="fill:#263238"/><path d="M222.15 174.81a20.3 20.3 0 0 1-3.39 2.38 20 20 0 0 1-3.56 2.1 13.9 13.9 0 0 1 3.28-2.54 14.4 14.4 0 0 1 3.67-1.94" style="fill:#263238"/><path d="m545.07 231.29 13.23 5.81s10.16-5 14.91-8.25c4.29-2.94 13.63-7.71 13.63-7.71s38.35 61.7 37.8 60.53c-1.11-2.33 5.48 71.65 5.48 71.65l2.31 47.8 4.78 68.8-150.4-.13s-1.51-59.18-1.48-60.53c.3-15.36-7.4-69.71-7.4-69.71l-19-43.5 37.24-25.53 6.15-12.7 3.05-1.54Z" style="fill:#e0e0e0"/><path style="opacity:.30000000000000004" d="m542.36 311.21 2.21 4.53v9.17l20.83 122.36-9.62 13.93-5.14-3.48-1.44-7.26-12.8-127.85 4.55-12.68z"/><path d="M514.28 299.59s18.63 22.76 23.55 19.68 12.46-35 12.46-35l-7-5.66s-7 37.51-7 37.57c-1.17 1-19-20.74-23-30.91Z" style="fill:#3cf"/><path d="M549.59 470.05a3 3 0 0 1-.07-.43c0-.32-.09-.74-.16-1.29-.13-1.15-.32-2.81-.56-4.94l-2-18.17c-1.71-15.35-4.22-36.53-7-59.92s-5.25-44.6-6.88-60c-.81-7.68-1.44-13.89-1.85-18.19-.2-2.13-.35-3.79-.46-4.95-.05-.55-.08-1-.11-1.29s0-.44 0-.44a2.3 2.3 0 0 1 .08.43c0 .32.09.74.15 1.29.13 1.15.32 2.81.56 4.94l2 18.17c1.72 15.35 4.22 36.53 7 59.93s5.25 44.59 6.87 59.95c.81 7.68 1.45 13.89 1.85 18.19.2 2.13.36 3.8.46 4.95 0 .55.08 1 .11 1.29a3 3 0 0 1 .01.48" style="fill:#263238"/><path d="M527.86 415.89c-.08-.11 17.34-13.23 38.92-29.28s39.14-29 39.22-28.88S588.67 371 567.09 387s-39.09 29-39.23 28.89m-4.62-114.44s-.1-.08-.27-.27-.44-.45-.74-.83c-.64-.75-1.52-1.88-2.56-3.37a83 83 0 0 1-7.31-13.12l.43-.15c1.36 5.32 1.77 11.73 1.77 18.48v2.55l-.48-.75c-2.81-4.45-5.05-8.9-7.11-12.91s-3.81-7.64-5.34-10.69-2.74-5.48-3.62-7.16l-1-1.92a5 5 0 0 1-.33-.69 3.7 3.7 0 0 1 .42.64c.26.42.64 1.05 1.1 1.88.93 1.64 2.21 4.06 3.76 7.08s3.4 6.64 5.44 10.64 4.34 8.43 7.13 12.84l-.48.14v-1.65c0-6.73-.39-13.1-1.7-18.37l.44-.15a90 90 0 0 0 7.11 13.16c1 1.51 1.85 2.66 2.45 3.43l.68.88c.15.2.22.3.21.31m9.49-3.36a2 2 0 0 1 .15-.38c.12-.29.28-.65.48-1.1.45-1 1.09-2.39 1.89-4.15l6.9-14.81.12-.25.23.18 15.23 12.48-.42.17c.23-1.69.48-3.48.72-5.29.89-6.51 1.67-12.71 2.11-18.37a131 131 0 0 0 .37-15.08c-.17-4.29-.58-7.75-.9-10.13-.18-1.15-.32-2.06-.43-2.73 0-.29-.07-.52-.1-.72a2 2 0 0 1 0-.24.6.6 0 0 1 .07.23c0 .19.09.42.16.71.12.62.32 1.53.52 2.72a92 92 0 0 1 1.06 10.15 125 125 0 0 1-.25 15.12c-.41 5.68-1.18 11.9-2.07 18.41-.25 1.81-.49 3.6-.72 5.29l-.07.46-.35-.3-15.2-12.54.34-.08-7.07 14.73-2 4.1-.54 1.07a1.6 1.6 0 0 1-.23.35" style="fill:#263238"/><path style="fill:#e0e0e0" d="m458.95 296.05-4.05 23.42-1.48 25.27 3.33 41.11 31.57-22.92-9.62-26.56z"/><path d="M464.24 320.35a3.5 3.5 0 0 1 .36.59l.94 1.73c.81 1.52 2 3.72 3.3 6.48a138 138 0 0 1 8.65 22.36 178 178 0 0 1 4.93 23.49l.57 4.1.36 3.11c.09.81.16 1.46.21 2a5 5 0 0 1 0 .69 3 3 0 0 1-.15-.67c-.07-.5-.17-1.15-.3-2s-.27-1.9-.44-3.09-.41-2.58-.65-4.08a201 201 0 0 0-5.02-23.4 150 150 0 0 0-8.48-22.35c-1.3-2.78-2.4-5-3.15-6.55l-.87-1.76a2.8 2.8 0 0 1-.26-.65" style="fill:#263238"/><path d="m534 295.44 9.79-11 18.22 11a214 214 0 0 0-1.46-47.44 232 232 0 0 1-3 42.3l-15.22-12.51Z" style="opacity:.30000000000000004"/><path d="M540.39 319.56c0 1.34 21.6 126.32 21.6 126.32l-6.61 9.92-9.7-8.38-9.28-108 1.43-20.14Z" style="fill:#3cf"/><path d="M535.15 322.46S524 420.75 523.91 422.62 538 437.08 538 437.08s14.19-21.33 14.18-22-10.61-91.88-10.61-91.88Z" style="fill:#3cf"/><path d="M535.15 322.46h.38l1.19.12 4.9.54h.06v.07c.91 7.72 2.73 23.06 5.12 43.27 1.18 10.13 2.51 21.47 3.93 33.68q.54 4.59 1.08 9.32c.19 1.58.37 3.17.56 4.77l.07.61v.31a3 3 0 0 1-.15.38c-.21.36-.41.72-.62 1.06l-1.3 2.08c-3.52 5.52-7.22 11.12-11 16.83l-1.13 1.69-.16.25-.23-.2c-3.12-2.8-6.17-5.62-9.08-8.49a60 60 0 0 1-4.17-4.45 6.5 6.5 0 0 1-.86-1.32 1.05 1.05 0 0 1-.09-.46v-.38l.07-.76c.1-1 .21-2 .31-3 .88-7.85 1.72-15.41 2.53-22.62 1.65-14.4 3.13-27.35 4.37-38.23s2.29-19.64 3-25.73c.37-3 .65-5.36.85-7 .1-.79.18-1.39.23-1.82l.09-.61v.63c0 .4-.1 1-.18 1.81-.17 1.62-.42 4-.75 7a31598 31598 0 0 1-7.1 63.98c-.79 7.21-1.63 14.78-2.49 22.63-.11 1-.21 2-.31 2.95l-.07.73v.37a.45.45 0 0 0 .05.26A6.5 6.5 0 0 0 525 424c1.26 1.53 2.69 3 4.13 4.41 2.91 2.85 6 5.66 9.07 8.46l-.39.05 1.12-1.69c3.78-5.71 7.49-11.31 11-16.81.43-.7.86-1.38 1.29-2.07.21-.34.41-.7.6-1a1 1 0 0 1 .1-.18s0-.19 0-.28l-.07-.6c-.19-1.6-.37-3.19-.55-4.77-.37-3.15-.72-6.26-1.07-9.31-1.4-12.21-2.7-23.55-3.85-33.67-2.28-20.22-4-35.56-4.87-43.28l.07.07-4.84-.62-1.2-.16Z" style="fill:#263238"/><path style="fill:#3cf" d="m530.44 318.49 2.29-7.22 5.33-1.34 4.3 5.57-.87 8.86-6.5.55z"/><path d="M530.44 318.49a2 2 0 0 1 .38.43l1 1.27 3.37 4.61-.18-.09 6.5-.59-.22.22c.21-2.25.45-4.71.69-7.27.06-.54.11-1.07.16-1.6v.19c-1.51-2-2.95-3.85-4.28-5.58l.25.09-5.34 1.29.14-.13c-.72 2.13-1.31 3.89-1.75 5.21l-.51 1.44a2.4 2.4 0 0 1-.22.51 1.8 1.8 0 0 1 .11-.5l.4-1.44 1.59-5.34v-.1h.11l5.36-1.41h.15l.09.13 4.32 5.55.06.08v.1c0 .53-.1 1.06-.16 1.6-.25 2.56-.5 5-.72 7.27v.2h-.21l-6.5.5h-.12l-.06-.09-3.27-4.78c-.34-.52-.62-.95-.86-1.3a2 2 0 0 1-.28-.47" style="fill:#263238"/><path style="opacity:.30000000000000004" d="m538.04 437.07 16.21-16.89v-7.75l-7.61-45.81 5.58 48.49z"/><path d="M540.28 312.93a21.3 21.3 0 0 1-4.56 3.23 21.8 21.8 0 0 1-5 2.39 46 46 0 0 1 4.78-2.84 50 50 0 0 1 4.78-2.78m-4.56 3.43a19.6 19.6 0 0 1 2.83 3.54 19.4 19.4 0 0 1 2.4 3.84 20.5 20.5 0 0 1-2.83-3.54 20 20 0 0 1-2.4-3.84" style="fill:#263238"/><path d="m456.75 385.85.85-41.46 1.4-48.34c-1.17-.13-6.11 44.88-5.57 53.21.03 1.17 3.32 36.59 3.32 36.59" style="opacity:.30000000000000004"/><path style="fill:#ffcbae" d="m652.59 202.27-4.7-34.85 10.83-15.28 19.58 40.65v14.3l-13.46 4z"/><path d="M585.77 222.07s7.48-5.64 19.83-3.89c15.7 2.21 43.63 11.28 43.63 11.28l-1.13-12.22-3.32-.5a2.43 2.43 0 0 1-2.07-2.54l.74-13.68a4 4 0 0 1 4.22-3.82c4.28.18 10.94.28 14.3-.66 5.22-1.44 15.58-4.46 15.58-4.46l1.67-.61a3.54 3.54 0 0 1 4.53 2.12l5.71 15.74a3.54 3.54 0 0 1-1.83 4.41l-1 .47s9.6 29.39 11 41.73c.5 4.4 6.34 26.49-10 30.16-33.65 7.55-74.24-3.93-74.24-3.93L597 249.11Z" style="fill:#e0e0e0"/><path d="M664 243.93s-.3-.09-.79-.34-1.18-.65-2-1.19a34.6 34.6 0 0 1-10.62-11.05c-.5-.85-.88-1.56-1.11-2.06s-.35-.78-.31-.8.65 1 1.73 2.66a41.1 41.1 0 0 0 10.52 10.94c1.58 1.15 2.58 1.77 2.58 1.84" style="fill:#263238"/><path d="M658.87 255.44a5.2 5.2 0 0 1-.65-1c-.39-.66-.93-1.64-1.54-2.88a97 97 0 0 1-4.24-9.92 69 69 0 0 1-3-10.38A27 27 0 0 1 649 228a6.5 6.5 0 0 1 0-1.2c.09 0 .22 1.7.83 4.37a87 87 0 0 0 3.12 10.28c1.44 3.94 2.93 7.44 4.08 9.94.57 1.25 1 2.25 1.39 3a4.8 4.8 0 0 1 .45 1.05m28.71-41.96a10 10 0 0 1-1.54.6c-.5.18-1.12.37-1.85.58s-1.55.46-2.48.68c-1.83.49-4.06.93-6.54 1.36s-5.22.74-8.12 1a99 99 0 0 1-14.85 0c-1.89-.14-3.42-.31-4.47-.47a9.4 9.4 0 0 1-1.63-.29 9.7 9.7 0 0 1 1.65.09c1.06.09 2.59.21 4.48.3a119 119 0 0 0 14.78-.18c2.88-.23 5.61-.56 8.09-.92s4.69-.81 6.53-1.25c.92-.19 1.75-.41 2.48-.6s1.36-.35 1.87-.5a10 10 0 0 1 1.6-.4" style="fill:#263238"/><path d="M610.68 127.3c-.73-12.77 1.85-14.91 3.22-17.27s2.42-3.7 2.39-6.46.28-14.85.3-18.72 1.18-9.65.67-11.61l-.09-.37a6.9 6.9 0 0 1 4.83-1.26 9 9 0 0 1 1 .2 4.8 4.8 0 0 0 2.56.07c.38-.1.76-.22 1.12-.34a5.9 5.9 0 0 1 2.34-.46 4.5 4.5 0 0 1 1.46.33c0 .34-.1.76-.18 1.27-.35 2 1.32 7.65 1.67 11.51s1.7 15.86 1.91 18.62 1.37 4 2.94 6.23 4.32 4.14 4.69 16.93 1.49 41.21 1.49 41.21c.1 1.32.14 2.76.11 4.12-.05 2.62-.42 5.75-2.13 7.91a6.55 6.55 0 0 1-4.98 2.09c-1.92.11-4.7.24-7.54.36s-5.61.24-7.53.29a6.88 6.88 0 0 1-4.8-1.36c-3.29-3-3.14-8.1-3.34-12.11.04 0-1.37-28.41-2.11-41.18" style="fill:#455a64"/><path d="M616.32 111.36c.17-.3.34-.58.51-.86a12.06 12.06 0 0 0 2.24-7c0-1.45.07-5.65.15-9.72v-.08c.07-3.47.14-7.06.15-8.88 0-.61 0-1.28.09-2l9.79-.43c.11.7.21 1.37.26 2 .17 1.82.55 5.38.91 8.83v.09c.43 4 .88 8.22 1 9.66a12.1 12.1 0 0 0 2.84 6.76c.18.25.38.52.57.8s.44.58.67.89c1.37 1.76 3.24 4.17 3.54 14.59.14 4.6.27 9.2.43 13.8.29 8.11.5 16.22.89 24.31.15 3.29.43 6.46-1.33 9.43-1.6 2.68-5.71 2.7-8.38 2.84a72 72 0 0 1-8.94.09 7.53 7.53 0 0 1-4.28-1.46c-2-1.71-1.81-6.51-1.93-8.9-.32-6-.61-12.08-.92-18.12-.36-7-.72-13.93-1.12-20.89-.6-10.41 1.06-13 2.27-14.84.21-.27.41-.6.59-.91" style="opacity:.30000000000000004"/><path d="m633.34 157.08 9.25-.42-1-28.71-9.57.43a14.37 14.37 0 0 0-13.71 15 14.37 14.37 0 0 0 15.03 13.7" style="fill:#f5f5f5"/><path d="m617.83 74.75 12-.54a2.07 2.07 0 0 0 2-2.14 2.07 2.07 0 0 0-2.19-1.95l-12 .55a2.08 2.08 0 0 0-2 2.14 2.07 2.07 0 0 0 2.19 1.94" style="fill:#455a64"/><path d="M630.21 74.15a41 41 0 0 1-6.54.54 42 42 0 0 1-6.57 0 41 41 0 0 1 6.54-.54 42 42 0 0 1 6.57 0" style="fill:#263238"/><path d="M619.54 104.64c-.15 0-.26-5.92-.26-13.22s.11-13.23.26-13.23.26 5.92.26 13.23-.12 13.22-.26 13.22m-6.04 19.58a14.3 14.3 0 0 1-.12-5.29 14.6 14.6 0 0 1 1.32-5.14c.15 0-.48 2.32-.81 5.19s-.24 5.23-.39 5.24m1.93 49.13a7 7 0 0 1-.11-1.38c-.05-1-.1-2.24-.17-3.74-.15-3.16-.43-7.52-.74-12.35s-.53-9.19-.58-12.36v-3.76a8.4 8.4 0 0 1 .09-1.37 6.4 6.4 0 0 1 .12 1.37c0 1 .1 2.24.16 3.74.15 3.17.43 7.53.74 12.35s.53 9.2.59 12.37v3.75a6.3 6.3 0 0 1-.1 1.38" style="fill:#fff"/><path d="M659 152.29v-18.75a7.83 7.83 0 0 0-3.19-5.92c.53-3.55-2.43-6.28-4.59-7.6-1.59-1-14.1-6.67-17.31-8.11a3.1 3.1 0 0 0-1.31-.28h-13.65s-.66 1.45.52 4.16 10.13 2.8 10.13 2.8l8.55 4.69-11.64 3.43s-6.3 3.33-8.76 4.82c-2.13 1.42-.83 6.87 2 6l4-1-3.3 2.29a3.89 3.89 0 0 0 1 6.92 1.5 1.5 0 0 0 .75.15 35.5 35.5 0 0 0 9.38-3.81s4.64-2.17 7-1.69c.76.15 8 2.56 8 2.56l-4.72 1.9s-6.29 1.31-7.74 1.52c-3.69.56-6.7.87-7.56 2.3a3.45 3.45 0 0 0 2.24 5.14c2.19.33 12.85-.64 12.85-.64l.43 9.58c1.19 4.9 6.63 5.22 6.63 5.22L661 157.22Z" style="fill:#ffcbae"/><path d="M652 134.81a6.6 6.6 0 0 1-1.08-.35c-.69-.24-1.7-.58-3-1s-2.78-.82-4.49-1.22a28 28 0 0 0-5.68-.82h.07l-1.91.59c-4.4 1.38-8.24 3.05-11.13 4-1.44.49-2.62.83-3.44 1.06a5.5 5.5 0 0 1-1.29.28 7 7 0 0 1 1.23-.47c.8-.29 2-.68 3.37-1.21 2.84-1 6.67-2.75 11.1-4.15l1.93-.59h.07a26 26 0 0 1 5.78.9c1.73.43 3.24.9 4.5 1.33s2.24.82 2.91 1.12a4.1 4.1 0 0 1 1.06.53m-.87-6.62a29.8 29.8 0 0 0-13.56-5.11 7 7 0 0 1 2.17 0 21 21 0 0 1 5.11 1.21 21 21 0 0 1 4.64 2.46 6.6 6.6 0 0 1 1.64 1.44m2.31 24.73a3.83 3.83 0 0 1-2.41.61 16 16 0 0 1-2.67-.29c-1-.15-2.08-.31-3.22-.44a8.5 8.5 0 0 0-3.14.2 19 19 0 0 1-2.64.43 7.2 7.2 0 0 1-2.48-.06c0-.08.95-.08 2.43-.3.75-.11 1.61-.3 2.59-.54a10.6 10.6 0 0 1 1.58-.27 8.5 8.5 0 0 1 1.74.05c1.16.13 2.25.31 3.24.49a21 21 0 0 0 2.6.39 10.7 10.7 0 0 0 2.38-.27" style="fill:#ff9458"/><path d="M627.85 251.14a1.4 1.4 0 0 1 0 .49c0 .37-.08.83-.14 1.38-.13 1.28-.32 3-.54 5.07-.45 4.28-1 10.2-1.33 16.76s-.45 12.51-.46 16.81v6.49a2.4 2.4 0 0 1 0 .49 1.8 1.8 0 0 1-.07-.49q0-.56-.09-1.38c-.06-1.2-.12-2.95-.16-5.1-.09-4.31 0-10.27.31-16.85s.94-12.5 1.48-16.77c.27-2.14.52-3.87.71-5.06.1-.54.17-1 .24-1.37a2 2 0 0 1 .05-.47" style="fill:#263238"/><path d="M686.34 213.89a31.52 31.52 0 0 1-18.28 8.7c-6.84.63-14.17-1.65-20-5.35 0 0 12.26 1.07 20.13.07s18.15-3.42 18.15-3.42" style="opacity:.30000000000000004"/><path d="m544.41 232.19-19.07-63.39c-6.72-21.73-23.92-36.53-45.46-29.2l-1.95.79a40.66 40.66 0 0 0-23.47 49.89c5.94 18.8 12.74 39.51 16.84 49.24 8.47 20.11 30 15 30 15a51 51 0 0 0 2 6.72c1.52 4.76 25.7 36.85 25.7 36.85l17-56.93Z" style="fill:#ffcbae"/><path d="M501.22 254.57s13-4.44 23.16-18.49c0 0-.42 17.38-21.33 23.76Z" style="fill:#ff9458"/><path d="M491.16 214.4c-.05-.19-2.12.27-5.41 1.14-.83.24-1.64.39-2-.1a4.44 4.44 0 0 1-.43-2.57q0-3.33-.11-7c-.24-9.93-.75-18-1.15-17.95s-.53 8.07-.29 18c.07 2.44.15 4.77.22 7a5 5 0 0 0 .86 3.28 2.12 2.12 0 0 0 1.77.63 5.7 5.7 0 0 0 1.43-.36c3.21-1.11 5.17-1.89 5.11-2.07m-4.01-41.4c.58.66 3.17-.82 6.55-1.73s6.35-1.06 6.49-1.92c.06-.41-.69-1-2-1.27a11.1 11.1 0 0 0-5.31.21 10.9 10.9 0 0 0-4.63 2.57c-1.02.96-1.37 1.81-1.1 2.14" style="fill:#263238"/><path d="M529.87 184.73c.31-.3 13.09-9.91 18.14 4.93s-11.53 17.52-11.7 17.1-6.44-22.03-6.44-22.03" style="fill:#ffcbae"/><path d="M539.58 198.93c0-.07.32.09.82.14a2.72 2.72 0 0 0 2-.62c1.37-1.11 1.84-4 1-6.74a9 9 0 0 0-2-3.46 3.14 3.14 0 0 0-2.62-1.32 1.38 1.38 0 0 0-1.28 1.23c-.06.48.13.75.06.8s-.4-.14-.49-.8a1.73 1.73 0 0 1 .27-1.12 2.08 2.08 0 0 1 1.3-.87 3.83 3.83 0 0 1 3.48 1.38 9.4 9.4 0 0 1 2.31 3.83c.92 3 .34 6.34-1.59 7.69a2.91 2.91 0 0 1-2.5.41c-.61-.2-.81-.48-.76-.55" style="fill:#ff9458"/><path d="M420.42 180.79a3.5 3.5 0 0 1 .94-2.47c1.31-1.48 3.21-2 5-2.57a31.3 31.3 0 0 0 11.88-7.45 15.6 15.6 0 0 1-4.67-1.43c-3-1.54-5.47-4.61-5.41-8a2.06 2.06 0 0 1 .67-1.71c.83-.58 1.93.06 2.8.57 2.87 1.67 5.14 2.05 8.18.71a13.24 13.24 0 0 0 4.86-3.33c0-.08.07-.17.11-.26.49-1 1-1.95 1.45-2.88 3.61-7 7-12.14 11.09-15.57 6-5 17.19-9.88 25-10.33s16.17 3.3 19.56 10.35c2.93-4.72 9-6.65 14.56-6.27l.1-.09c6.11.17 11.1 4.95 14.52 10 .19.28.37.56.55.84a22.7 22.7 0 0 0 9.7 4.81c.63.14 1.36.32 1.62.91a1.87 1.87 0 0 1-.46 1.76 11.45 11.45 0 0 1-3.84 3.28 27 27 0 0 0 3.06 3.26c1 .84 2.1 1.86 1.91 3.12a2.43 2.43 0 0 1-2.07 1.84 7.15 7.15 0 0 1-2.93-.33l3.26 3.8a13.7 13.7 0 0 1-6.09 1.53c.53 5.6 1.38 12.69 1.18 16.66-2.29.74-4.63.9-5.63 2.63-1.36 2.35-1.17 5.87-4.75 5.67-1.83-.1-4.41-3-5.49-4.5a84.9 84.9 0 0 1-14.58-33 27.2 27.2 0 0 0-9.88-3.18l.31.14c-6.43-.14-13.61 0-18.22 4.5-3.57 3.48-4.64 8.71-6.68 13.27a32.27 32.27 0 0 1-18.89 17.89c1.21 6.51 4.45 14.21 6 20.14l-8.43-7.65a23 23 0 0 1-1.72-1.72l-.18-.17c-.87-.94-1.71-1.89-2.71-2.78v.07c-2.25 3.81-8.29 1.06-6.9-3.15a8.8 8.8 0 0 1 1.19-2.33 6.07 6.07 0 0 1-5 3.2 4.77 4.77 0 0 1-4.65-3.44 4.05 4.05 0 0 1 1.29-3.82 13.6 13.6 0 0 1-7.9.76c-1.74-.38-3.61-1.29-3.71-3.28" style="fill:#263238"/><path d="M496.16 140.91a20 20 0 0 1 2.69 1.23 15.6 15.6 0 0 1 5.4 5.84 27 27 0 0 1 2.23 5.09c.63 1.9 1.14 4 1.69 6.19a58 58 0 0 0 2 6.84 27 27 0 0 0 1.63 3.43 7.9 7.9 0 0 0 2.59 3 3.31 3.31 0 0 0 3.24 0 4.9 4.9 0 0 0 2.14-2.34c.83-2 .52-4.06.29-5.9l-.42.19a18.3 18.3 0 0 0 3.93 3.52 6.5 6.5 0 0 0 4.73.89 4.25 4.25 0 0 0 2-1.07 3.53 3.53 0 0 0 1-1.9 3.63 3.63 0 0 0-.15-2 2.66 2.66 0 0 0-1.19-1.4l-.15.27a13.9 13.9 0 0 0 5.52 1.89 13 13 0 0 0 1.56.09 2 2 0 0 0 .53 0h-.53c-.35 0-.87-.07-1.53-.17a14.5 14.5 0 0 1-5.39-2l-.16.26a2.79 2.79 0 0 1 1.14 3 3.33 3.33 0 0 1-.9 1.69 3.7 3.7 0 0 1-1.84.94 6 6 0 0 1-4.41-.87 18 18 0 0 1-3.8-3.46l-.51-.56.09.76c.23 1.84.49 3.85-.27 5.64a4.33 4.33 0 0 1-1.92 2.09 2.76 2.76 0 0 1-2.75 0 7.4 7.4 0 0 1-2.4-2.81 25.6 25.6 0 0 1-1.6-3.35 58 58 0 0 1-2.06-6.78c-.56-2.19-1.08-4.28-1.74-6.21a27.4 27.4 0 0 0-2.32-5.13A15.33 15.33 0 0 0 499 142a8.8 8.8 0 0 0-2.84-1.09" style="fill:#455a64"/><path d="M438.66 181.8s.07 0 .21.09l.64.21a8 8 0 0 0 1.06.28 14 14 0 0 0 1.47.25 19.3 19.3 0 0 0 9.38-1.28 24.65 24.65 0 0 0 11-8.66 42.7 42.7 0 0 0 6.72-15.84c.7-3 1.09-6 1.67-8.78a29 29 0 0 1 2.59-7.8 14.8 14.8 0 0 1 4.79-5.55 10.6 10.6 0 0 1 3-1.38 11.8 11.8 0 0 1 3.06-.38 12.63 12.63 0 0 1 8.48 3.47 14.8 14.8 0 0 1 2.07 2.76.7.7 0 0 0-.08-.21l-.31-.6a11 11 0 0 0-1.54-2.09 12.5 12.5 0 0 0-3.34-2.39 12.6 12.6 0 0 0-5.27-1.3 11.7 11.7 0 0 0-3.17.36 11.2 11.2 0 0 0-3.15 1.41 15.2 15.2 0 0 0-5 5.68 29.2 29.2 0 0 0-2.65 7.92c-.6 2.84-1 5.8-1.68 8.76a42.8 42.8 0 0 1-6.61 15.69 24.5 24.5 0 0 1-10.75 8.6 19.6 19.6 0 0 1-9.22 1.41 28 28 0 0 1-3.37-.63" style="fill:#fff"/><path d="M433.83 173.32a3.4 3.4 0 0 0 .9.27 17.4 17.4 0 0 0 2.56.41 22.3 22.3 0 0 0 3.85 0 25.4 25.4 0 0 0 4.65-.85 26.3 26.3 0 0 0 4.38-1.76 23.3 23.3 0 0 0 3.25-2.06 16.5 16.5 0 0 0 1.94-1.71 3.8 3.8 0 0 0 .63-.72c-.07-.07-1 .89-2.79 2.14A25 25 0 0 1 450 171a29 29 0 0 1-4.31 1.68 27 27 0 0 1-4.54.87 26 26 0 0 1-3.78.1c-2.21-.12-3.53-.43-3.54-.33" style="fill:#fff"/><path d="M492.62 193.53c.51.31 2.39-2.22 5.82-3.21s6.44 0 6.69-.5c.13-.24-.5-.89-1.83-1.39a8.83 8.83 0 0 0-5.5-.12 8.66 8.66 0 0 0-4.49 3.08c-.81 1.14-.94 2.01-.69 2.14m-33.81-.41c.52.53 3-.87 6.27-1.81s6.05-1.24 6.23-2c.07-.35-.62-.77-1.88-1a11.7 11.7 0 0 0-5 .46 12 12 0 0 0-4.49 2.43c-1 .92-1.37 1.66-1.13 1.92m4.91 12.06c.52.31 2.4-2.23 5.83-3.21s6.44 0 6.69-.51c.12-.24-.5-.89-1.83-1.39a8.94 8.94 0 0 0-5.51-.12 8.6 8.6 0 0 0-4.48 3.08c-.81 1.14-.95 1.97-.7 2.15" style="fill:#263238"/><path d="M504.74 219.67a20.5 20.5 0 0 0-2.3-3.87c-.39-.55-.88-1.16-1.56-1.18a2.25 2.25 0 0 0-1.5.87l-6.61 6.79-.46 1.47a15.6 15.6 0 0 0 2 3.64 5.3 5.3 0 0 0 3.51 2.05 6.42 6.42 0 0 0 4.18-1.51 7.8 7.8 0 0 0 3.09-3.85 6.7 6.7 0 0 0-.35-4.41" style="fill:#ff9458"/><path d="M498.24 229.72a8 8 0 0 1 1.2-.48 10.6 10.6 0 0 0 3-1.74 7.4 7.4 0 0 0 2.62-4.21 8.17 8.17 0 0 0-1.52-5.83 9.1 9.1 0 0 0-3.15-2.83h.31a70 70 0 0 1-6.19 6c-.82.69-1.48 1.22-1.95 1.57a3.5 3.5 0 0 1-.75.51 4.2 4.2 0 0 1 .64-.64l1.85-1.68c1.56-1.44 3.72-3.53 6-6.11l.13-.14.18.09a9.56 9.56 0 0 1 4.75 6 6.9 6.9 0 0 1 .15 3.15 7.64 7.64 0 0 1-2.86 4.41 9.5 9.5 0 0 1-3.14 1.64 8 8 0 0 1-.93.25c-.22.04-.33.06-.34.04" style="fill:#263238"/><path d="M511.73 178.5 484 189.68s1.57 11.53 9.6 15.18 17.77-4.23 19.47-10.56c1.98-7.3-1.34-15.8-1.34-15.8M479 191.64l-26.55 10.41s2 11.47 9.7 15.16 16.81-3.9 18.34-10.07c1.78-7.14-1.49-15.5-1.49-15.5" style="fill:#455a64"/><path d="m485.48 189.1-7.93 3.11.53 2.45a10.87 10.87 0 0 1 9-3.21Z" style="fill:#455a64"/><path d="m509.42 181.92-21.91 8.6s1.53 9.09 7.79 11.93 13.83-3.29 15.17-8.22c1.53-5.71-1.05-12.31-1.05-12.31m-33.06 13.24-20.69 8.11s1.59 8.93 7.57 11.8 13.09-3 14.28-7.84c1.38-5.58-1.16-12.07-1.16-12.07" style="fill:#263238"/><path d="m511.61 178.5 20.84 3.81c-.12 1.64-2.87 4.94-4.06 5.92l-15.85-3Z" style="fill:#455a64"/><path d="M472.7 211.14s-.14.26-.52.62a6.5 6.5 0 0 1-1.87 1.21 8.8 8.8 0 0 1-7.21-.16 10.76 10.76 0 0 1-5-5.29 10 10 0 0 1-.69-2.11 2.2 2.2 0 0 1-.1-.8c.09 0 .31 1.11 1.13 2.75a11 11 0 0 0 4.84 5 8.8 8.8 0 0 0 6.85.29 11.6 11.6 0 0 0 2.57-1.51M506.4 198a2.7 2.7 0 0 1-.56.7 8.1 8.1 0 0 1-1.95 1.45 9.41 9.41 0 0 1-13.47-4.88 8.2 8.2 0 0 1-.57-2.37 2.5 2.5 0 0 1 0-.89 17 17 0 0 0 .89 3.11 9.34 9.34 0 0 0 13 4.71 16.7 16.7 0 0 0 2.66-1.83" style="fill:#fff"/></svg>